<svg width="400" height="400" fill="none" xmlns="http://www.w3.org/2000/svg"><path d="M200 400c110.457 0 200-89.543 200-200S310.457 0 200 0 0 89.543 0 200s89.543 200 200 200z" fill="#5D536C" stroke="#E3DBE2" stroke-width="3.7" stroke-miterlimit="10" stroke-linecap="round"/><g stroke-miterlimit="10"><path d="M172.521 79.76v55.331c-.001 7.161-1.962 14.175-5.656 20.232L95.356 272.42c-14.203 23.257 1.958 53.574 28.55 53.574h152.188c26.592 0 42.753-30.317 28.55-53.574l-71.515-117.097c-3.692-6.058-5.651-13.072-5.65-20.232V79.76" stroke="#C8B7BE" stroke-width="10"/><path d="M173.174 79.76v55.331a38.658 38.658 0 01-5.701 20.232L95.401 272.42c-14.315 23.257 1.973 53.574 28.775 53.574h153.387c26.802 0 43.09-30.317 28.775-53.574L234.26 155.323a38.667 38.667 0 01-5.695-20.232V79.76" stroke="#E3DBE2" stroke-width="3.7"/></g><path opacity=".997" d="M207.947 73.766h-15.894c-12.713 0-23.018 1.605-23.018 3.586v.363c0 1.981 10.305 3.587 23.018 3.587h15.894c12.713 0 23.018-1.606 23.018-3.587v-.363c0-1.98-10.305-3.587-23.018-3.587z" stroke="#C8B7BE" stroke-width="9.2" stroke-miterlimit="10"/><g opacity=".997" filter="url(#filter0_f)"><path d="M209.1 73.75h-17.04c-12.713 0-23.018 1.606-23.018 3.587v.994c0 1.98 10.305 3.586 23.018 3.586h17.04c12.712 0 23.017-1.605 23.017-3.586v-.994c0-1.981-10.305-3.587-23.017-3.587z" stroke="#E3DBE2" stroke-width="3.2" stroke-miterlimit="10"/></g><g opacity=".997" filter="url(#filter1_f)"><path d="M159.501 249.36c4.918 0 8.905-4.123 8.905-9.208s-3.987-9.207-8.905-9.207c-4.919 0-8.906 4.122-8.906 9.207 0 5.085 3.987 9.208 8.906 9.208z" fill="#C83771"/></g><g opacity=".997" filter="url(#filter2_f)"><path d="M162.616 252.281c4.918 0 8.905-4.122 8.905-9.207 0-5.085-3.987-9.208-8.905-9.208-4.918 0-8.905 4.123-8.905 9.208s3.987 9.207 8.905 9.207z" fill="#C83771"/></g><g opacity=".997" filter="url(#filter3_f)"><path d="M156.023 251.532c4.918 0 8.906-4.122 8.906-9.207 0-5.086-3.988-9.208-8.906-9.208-4.918 0-8.905 4.122-8.905 9.208 0 5.085 3.987 9.207 8.905 9.207z" fill="#C83771"/></g><g opacity=".997" filter="url(#filter4_f)"><path d="M223.741 260.637c5.248 0 9.503-4.398 9.503-9.825 0-5.426-4.255-9.825-9.503-9.825-5.249 0-9.503 4.399-9.503 9.825 0 5.427 4.254 9.825 9.503 9.825z" fill="#F06"/></g><g opacity=".997" filter="url(#filter5_f)"><path d="M215.142 266.981c5.408 0 9.793-4.533 9.793-10.125s-4.385-10.125-9.793-10.125c-5.408 0-9.793 4.533-9.793 10.125s4.385 10.125 9.793 10.125z" fill="#F06"/></g><g opacity=".997" filter="url(#filter6_f)"><path d="M219.189 258.131c5.248 0 9.503-4.398 9.503-9.825 0-5.426-4.255-9.825-9.503-9.825s-9.503 4.399-9.503 9.825c0 5.427 4.255 9.825 9.503 9.825z" fill="#F06"/></g><g opacity=".997" filter="url(#filter7_f)"><path d="M217.645 251.202c3.001 0 5.433-2.515 5.433-5.618s-2.432-5.618-5.433-5.618-5.434 2.515-5.434 5.618 2.433 5.618 5.434 5.618z" fill="#DE87AA"/></g><g opacity=".997" filter="url(#filter8_f)"><path d="M160.08 239.853c2.121 0 3.84-1.778 3.84-3.97 0-2.193-1.719-3.97-3.84-3.97-2.12 0-3.839 1.777-3.839 3.97 0 2.192 1.719 3.97 3.839 3.97z" fill="#D35F8D"/></g><path d="M120.803 322.721c-2.146-.238-5.096-.922-7.057-1.638-8.986-3.276-15.961-10.696-19.036-20.248-2.506-7.785-2.015-15.913 1.398-23.157.7-1.485 7.12-12.271 14.267-23.969l5.712-10.511 26.408-5.187c34.756-5.514 97.955 22.585 138.176 1.319 5.045 7.502 2.978 5.367 8.023 12.869 8.371 12.445 14.588 24.046 15.031 24.948 2.02 4.122 3.061 8.746 3.076 13.671.027 8.921-3.249 16.911-9.486 23.137-4.921 4.911-10.813 7.822-17.567 8.678-1.946.247-156.737.332-158.945.088z" fill="#C83771"/><path d="M118.675 322.41c-9.284-1.613-17.5-7.834-21.902-16.585-2.544-5.059-3.563-9.294-3.57-14.845-.005-5.127.968-9.461 3.105-13.82.864-1.762 15.008-25.231 15.64-25.952.103-.117 1.275-.036 2.606.18 17.647 3.556 39.822 11.345 72.523 5.191 36.038-6.782 82.404-27.344 93.594-17.249.635.751 22.249 36.263 23.018 37.83 2.107 4.296 3.102 8.679 3.11 13.694.006 3.867-.322 6.15-1.383 9.636-2.996 9.843-10.667 17.849-20.019 20.894-4.632 1.508.657 1.422-85.644 1.395-65.341-.021-79.445-.085-81.078-.369z" fill="#F06"/><g opacity=".997" filter="url(#filter9_f)"><path d="M153.557 226.221c4.15 0 7.514-3.478 7.514-7.768 0-4.291-3.364-7.769-7.514-7.769-4.149 0-7.513 3.478-7.513 7.769 0 4.29 3.364 7.768 7.513 7.768z" fill="#F06"/></g><g opacity=".997" filter="url(#filter10_f)"><path d="M208.803 176.488c1.342 0 2.43-1.124 2.43-2.512s-1.088-2.512-2.43-2.512-2.43 1.124-2.43 2.512 1.088 2.512 2.43 2.512z" fill="#F06"/></g><g opacity=".997" filter="url(#filter11_f)"><path d="M162.547 202.825c2.034 0 3.683-1.705 3.683-3.808 0-2.102-1.649-3.807-3.683-3.807s-3.682 1.705-3.682 3.807c0 2.103 1.648 3.808 3.682 3.808z" fill="#F06"/></g><g opacity=".997" filter="url(#filter12_f)"><path d="M173.339 189.878c1.633 0 2.958-1.369 2.958-3.058 0-1.689-1.325-3.059-2.958-3.059-1.634 0-2.958 1.37-2.958 3.059s1.324 3.058 2.958 3.058z" fill="#F06"/></g><g opacity=".997" filter="url(#filter13_f)"><path d="M208.404 201.413c2.834 0 5.132-2.375 5.132-5.305 0-2.93-2.298-5.305-5.132-5.305-2.834 0-5.131 2.375-5.131 5.305 0 2.93 2.297 5.305 5.131 5.305z" fill="#C83771"/></g><g opacity=".997" filter="url(#filter14_f)"><path d="M229.994 188.829c2.434 0 4.407-2.04 4.407-4.556 0-2.517-1.973-4.556-4.407-4.556s-4.407 2.039-4.407 4.556c0 2.516 1.973 4.556 4.407 4.556z" fill="#F06"/></g><g opacity=".997" filter="url(#filter15_f)"><path d="M222.394 233.069c4.918 0 8.905-4.122 8.905-9.207 0-5.085-3.987-9.207-8.905-9.207-4.918 0-8.905 4.122-8.905 9.207 0 5.085 3.987 9.207 8.905 9.207z" fill="#C83771"/></g><g opacity=".997" filter="url(#filter16_f)"><path d="M188.582 220.145c4.919 0 8.906-4.122 8.906-9.207 0-5.085-3.987-9.207-8.906-9.207-4.918 0-8.905 4.122-8.905 9.207 0 5.085 3.987 9.207 8.905 9.207z" fill="#C83771"/></g><g opacity=".997" filter="url(#filter17_f)"><path d="M155.658 227.142c3.882 0 7.028-3.253 7.028-7.266s-3.146-7.266-7.028-7.266c-3.881 0-7.027 3.253-7.027 7.266s3.146 7.266 7.027 7.266z" fill="#E9AFC6"/></g><g opacity=".997" filter="url(#filter18_f)"><path d="M209.563 201.501c2.481 0 4.492-2.079 4.492-4.644s-2.011-4.644-4.492-4.644c-2.48 0-4.492 2.079-4.492 4.644s2.012 4.644 4.492 4.644z" fill="#E9AFC6"/></g><g opacity=".997" filter="url(#filter19_f)"><path d="M224.93 232.925c4.321 0 7.824-3.622 7.824-8.089 0-4.468-3.503-8.09-7.824-8.09-4.322 0-7.825 3.622-7.825 8.09 0 4.467 3.503 8.089 7.825 8.089z" fill="#E9AFC6"/></g><g opacity=".997" filter="url(#filter20_f)"><path d="M163.127 203.574c1.92 0 3.477-1.61 3.477-3.596 0-1.985-1.557-3.595-3.477-3.595-1.921 0-3.478 1.61-3.478 3.595 0 1.986 1.557 3.596 3.478 3.596z" fill="#E9AFC6"/></g><g opacity=".997" filter="url(#filter21_f)"><path d="M230.574 189.516c2.32 0 4.202-1.945 4.202-4.344 0-2.4-1.882-4.345-4.202-4.345-2.321 0-4.202 1.945-4.202 4.345 0 2.399 1.881 4.344 4.202 4.344z" fill="#E9AFC6"/></g><g opacity=".997" filter="url(#filter22_f)"><path d="M209.298 176.685c1.247 0 2.258-1.045 2.258-2.335 0-1.289-1.011-2.334-2.258-2.334s-2.258 1.045-2.258 2.334c0 1.29 1.011 2.335 2.258 2.335z" fill="#E9AFC6"/></g><g opacity=".997" filter="url(#filter23_f)"><path d="M173.918 190.415c1.441 0 2.608-1.207 2.608-2.697 0-1.489-1.167-2.696-2.608-2.696-1.44 0-2.608 1.207-2.608 2.696 0 1.49 1.168 2.697 2.608 2.697z" fill="#E9AFC6"/></g><g opacity=".997" filter="url(#filter24_f)"><path d="M191.698 221.2c4.321 0 7.824-3.622 7.824-8.09s-3.503-8.089-7.824-8.089c-4.322 0-7.825 3.621-7.825 8.089s3.503 8.09 7.825 8.09z" fill="#E9AFC6"/></g><defs><filter id="filter0_f" x="166.551" y="71.259" width="68.058" height="13.15" filterUnits="userSpaceOnUse" color-interpolation-filters="sRGB"><feFlood flood-opacity="0" result="BackgroundImageFix"/><feBlend in="SourceGraphic" in2="BackgroundImageFix" result="shape"/><feGaussianBlur stdDeviation=".446" result="effect1_foregroundBlur"/></filter><filter id="filter1_f" x="150.411" y="230.761" width="18.179" height="18.783" filterUnits="userSpaceOnUse" color-interpolation-filters="sRGB"><feFlood flood-opacity="0" result="BackgroundImageFix"/><feBlend in="SourceGraphic" in2="BackgroundImageFix" result="shape"/><feGaussianBlur stdDeviation=".092" result="effect1_foregroundBlur"/></filter><filter id="filter2_f" x="152.846" y="233.002" width="19.54" height="20.144" filterUnits="userSpaceOnUse" color-interpolation-filters="sRGB"><feFlood flood-opacity="0" result="BackgroundImageFix"/><feBlend in="SourceGraphic" in2="BackgroundImageFix" result="shape"/><feGaussianBlur stdDeviation=".432" result="effect1_foregroundBlur"/></filter><filter id="filter3_f" x="146.934" y="232.933" width="18.179" height="18.783" filterUnits="userSpaceOnUse" color-interpolation-filters="sRGB"><feFlood flood-opacity="0" result="BackgroundImageFix"/><feBlend in="SourceGraphic" in2="BackgroundImageFix" result="shape"/><feGaussianBlur stdDeviation=".092" result="effect1_foregroundBlur"/></filter><filter id="filter4_f" x="213.385" y="240.134" width="20.712" height="21.356" filterUnits="userSpaceOnUse" color-interpolation-filters="sRGB"><feFlood flood-opacity="0" result="BackgroundImageFix"/><feBlend in="SourceGraphic" in2="BackgroundImageFix" result="shape"/><feGaussianBlur stdDeviation=".427" result="effect1_foregroundBlur"/></filter><filter id="filter5_f" x="204.041" y="245.423" width="22.202" height="22.866" filterUnits="userSpaceOnUse" color-interpolation-filters="sRGB"><feFlood flood-opacity="0" result="BackgroundImageFix"/><feBlend in="SourceGraphic" in2="BackgroundImageFix" result="shape"/><feGaussianBlur stdDeviation=".654" result="effect1_foregroundBlur"/></filter><filter id="filter6_f" x="209.268" y="238.063" width="19.842" height="20.486" filterUnits="userSpaceOnUse" color-interpolation-filters="sRGB"><feFlood flood-opacity="0" result="BackgroundImageFix"/><feBlend in="SourceGraphic" in2="BackgroundImageFix" result="shape"/><feGaussianBlur stdDeviation=".209" result="effect1_foregroundBlur"/></filter><filter id="filter7_f" x="209.494" y="237.249" width="16.301" height="16.669" filterUnits="userSpaceOnUse" color-interpolation-filters="sRGB"><feFlood flood-opacity="0" result="BackgroundImageFix"/><feBlend in="SourceGraphic" in2="BackgroundImageFix" result="shape"/><feGaussianBlur stdDeviation="1.358" result="effect1_foregroundBlur"/></filter><filter id="filter8_f" x="153.653" y="229.325" width="12.855" height="13.116" filterUnits="userSpaceOnUse" color-interpolation-filters="sRGB"><feFlood flood-opacity="0" result="BackgroundImageFix"/><feBlend in="SourceGraphic" in2="BackgroundImageFix" result="shape"/><feGaussianBlur stdDeviation="1.294" result="effect1_foregroundBlur"/></filter><filter id="filter9_f" x="144.444" y="209.085" width="18.227" height="18.736" filterUnits="userSpaceOnUse" color-interpolation-filters="sRGB"><feFlood flood-opacity="0" result="BackgroundImageFix"/><feBlend in="SourceGraphic" in2="BackgroundImageFix" result="shape"/><feGaussianBlur stdDeviation=".8" result="effect1_foregroundBlur"/></filter><filter id="filter10_f" x="205.117" y="170.207" width="7.373" height="7.538" filterUnits="userSpaceOnUse" color-interpolation-filters="sRGB"><feFlood flood-opacity="0" result="BackgroundImageFix"/><feBlend in="SourceGraphic" in2="BackgroundImageFix" result="shape"/><feGaussianBlur stdDeviation=".628" result="effect1_foregroundBlur"/></filter><filter id="filter11_f" x="157.176" y="193.522" width="10.742" height="10.991" filterUnits="userSpaceOnUse" color-interpolation-filters="sRGB"><feFlood flood-opacity="0" result="BackgroundImageFix"/><feBlend in="SourceGraphic" in2="BackgroundImageFix" result="shape"/><feGaussianBlur stdDeviation=".844" result="effect1_foregroundBlur"/></filter><filter id="filter12_f" x="169.381" y="182.762" width="7.915" height="8.115" filterUnits="userSpaceOnUse" color-interpolation-filters="sRGB"><feFlood flood-opacity="0" result="BackgroundImageFix"/><feBlend in="SourceGraphic" in2="BackgroundImageFix" result="shape"/><feGaussianBlur stdDeviation=".5" result="effect1_foregroundBlur"/></filter><filter id="filter13_f" x="201.539" y="189.069" width="13.73" height="14.078" filterUnits="userSpaceOnUse" color-interpolation-filters="sRGB"><feFlood flood-opacity="0" result="BackgroundImageFix"/><feBlend in="SourceGraphic" in2="BackgroundImageFix" result="shape"/><feGaussianBlur stdDeviation=".867" result="effect1_foregroundBlur"/></filter><filter id="filter14_f" x="223.27" y="177.4" width="13.447" height="13.746" filterUnits="userSpaceOnUse" color-interpolation-filters="sRGB"><feFlood flood-opacity="0" result="BackgroundImageFix"/><feBlend in="SourceGraphic" in2="BackgroundImageFix" result="shape"/><feGaussianBlur stdDeviation="1.158" result="effect1_foregroundBlur"/></filter><filter id="filter15_f" x="212.138" y="213.304" width="20.513" height="21.117" filterUnits="userSpaceOnUse" color-interpolation-filters="sRGB"><feFlood flood-opacity="0" result="BackgroundImageFix"/><feBlend in="SourceGraphic" in2="BackgroundImageFix" result="shape"/><feGaussianBlur stdDeviation=".676" result="effect1_foregroundBlur"/></filter><filter id="filter16_f" x="178.326" y="200.38" width="20.513" height="21.117" filterUnits="userSpaceOnUse" color-interpolation-filters="sRGB"><feFlood flood-opacity="0" result="BackgroundImageFix"/><feBlend in="SourceGraphic" in2="BackgroundImageFix" result="shape"/><feGaussianBlur stdDeviation=".676" result="effect1_foregroundBlur"/></filter><filter id="filter17_f" x="139.987" y="203.966" width="31.343" height="31.819" filterUnits="userSpaceOnUse" color-interpolation-filters="sRGB"><feFlood flood-opacity="0" result="BackgroundImageFix"/><feBlend in="SourceGraphic" in2="BackgroundImageFix" result="shape"/><feGaussianBlur stdDeviation="4.322" result="effect1_foregroundBlur"/></filter><filter id="filter18_f" x="196.428" y="183.569" width="26.271" height="26.576" filterUnits="userSpaceOnUse" color-interpolation-filters="sRGB"><feFlood flood-opacity="0" result="BackgroundImageFix"/><feBlend in="SourceGraphic" in2="BackgroundImageFix" result="shape"/><feGaussianBlur stdDeviation="4.322" result="effect1_foregroundBlur"/></filter><filter id="filter19_f" x="208.461" y="208.102" width="32.937" height="33.467" filterUnits="userSpaceOnUse" color-interpolation-filters="sRGB"><feFlood flood-opacity="0" result="BackgroundImageFix"/><feBlend in="SourceGraphic" in2="BackgroundImageFix" result="shape"/><feGaussianBlur stdDeviation="4.322" result="effect1_foregroundBlur"/></filter><filter id="filter20_f" x="151.005" y="187.739" width="24.243" height="24.479" filterUnits="userSpaceOnUse" color-interpolation-filters="sRGB"><feFlood flood-opacity="0" result="BackgroundImageFix"/><feBlend in="SourceGraphic" in2="BackgroundImageFix" result="shape"/><feGaussianBlur stdDeviation="4.322" result="effect1_foregroundBlur"/></filter><filter id="filter21_f" x="217.728" y="172.183" width="25.692" height="25.977" filterUnits="userSpaceOnUse" color-interpolation-filters="sRGB"><feFlood flood-opacity="0" result="BackgroundImageFix"/><feBlend in="SourceGraphic" in2="BackgroundImageFix" result="shape"/><feGaussianBlur stdDeviation="4.322" result="effect1_foregroundBlur"/></filter><filter id="filter22_f" x="198.396" y="163.372" width="21.804" height="21.957" filterUnits="userSpaceOnUse" color-interpolation-filters="sRGB"><feFlood flood-opacity="0" result="BackgroundImageFix"/><feBlend in="SourceGraphic" in2="BackgroundImageFix" result="shape"/><feGaussianBlur stdDeviation="4.322" result="effect1_foregroundBlur"/></filter><filter id="filter23_f" x="162.666" y="176.378" width="22.504" height="22.681" filterUnits="userSpaceOnUse" color-interpolation-filters="sRGB"><feFlood flood-opacity="0" result="BackgroundImageFix"/><feBlend in="SourceGraphic" in2="BackgroundImageFix" result="shape"/><feGaussianBlur stdDeviation="4.322" result="effect1_foregroundBlur"/></filter><filter id="filter24_f" x="175.229" y="196.377" width="32.937" height="33.467" filterUnits="userSpaceOnUse" color-interpolation-filters="sRGB"><feFlood flood-opacity="0" result="BackgroundImageFix"/><feBlend in="SourceGraphic" in2="BackgroundImageFix" result="shape"/><feGaussianBlur stdDeviation="4.322" result="effect1_foregroundBlur"/></filter></defs></svg>