<?xml version="1.0" encoding="UTF-8" standalone="no"?>
<svg
   xmlns:dc="http://purl.org/dc/elements/1.1/"
   xmlns:cc="http://creativecommons.org/ns#"
   xmlns:rdf="http://www.w3.org/1999/02/22-rdf-syntax-ns#"
   xmlns:svg="http://www.w3.org/2000/svg"
   xmlns="http://www.w3.org/2000/svg"
   xmlns:sodipodi="http://sodipodi.sourceforge.net/DTD/sodipodi-0.dtd"
   xmlns:inkscape="http://www.inkscape.org/namespaces/inkscape"
   class="ionicon"
   viewBox="0 0 389.10587 430.51099"
   version="1.1"
   id="svg180"
   sodipodi:docname="douglaswhitelogo.svg"
   inkscape:export-filename="C:\Users\dougw\Dev\douglaswhite-app\resources\android\icon.png"
   inkscape:export-xdpi="96.000008"
   inkscape:export-ydpi="96.000008"
   inkscape:version="1.0.1 (3bc2e813f5, 2020-09-07)"
   width="389.10587"
   height="430.51099">
  <metadata
     id="metadata184">
    <rdf:RDF>
      <cc:Work
         rdf:about="">
        <dc:format>image/svg+xml</dc:format>
        <dc:type
           rdf:resource="http://purl.org/dc/dcmitype/StillImage" />
        <dc:title />
      </cc:Work>
    </rdf:RDF>
  </metadata>
  <sodipodi:namedview
     pagecolor="#ffffff"
     bordercolor="#666666"
     borderopacity="1"
     objecttolerance="10"
     gridtolerance="10"
     guidetolerance="10"
     inkscape:pageopacity="0"
     inkscape:pageshadow="2"
     inkscape:window-width="1920"
     inkscape:window-height="1027"
     id="namedview182"
     showgrid="false"
     inkscape:zoom="1.5930331"
     inkscape:cx="193.63553"
     inkscape:cy="217.511"
     inkscape:window-x="1912"
     inkscape:window-y="-8"
     inkscape:window-maximized="1"
     inkscape:current-layer="svg180"
     inkscape:document-rotation="0" />
  <defs
     id="defs68">
    <filter
       id="e"
       x="-0.117"
       width="1.235"
       y="-0.117"
       height="1.235"
       color-interpolation-filters="sRGB">
      <feGaussianBlur
         stdDeviation=".744"
         id="feGaussianBlur2" />
    </filter>
    <filter
       id="a"
       x="-0.074000001"
       width="1.148"
       y="-0.074000001"
       height="1.148"
       color-interpolation-filters="sRGB">
      <feGaussianBlur
         stdDeviation=".8"
         id="feGaussianBlur5" />
    </filter>
    <filter
       id="g"
       x="-0.052999999"
       width="1.1059999"
       y="-0.052999999"
       height="1.1059999"
       color-interpolation-filters="sRGB">
      <feGaussianBlur
         stdDeviation=".676"
         id="feGaussianBlur8" />
    </filter>
    <filter
       id="c"
       x="-0.18000001"
       width="1.36"
       y="-0.18000001"
       height="1.36"
       color-interpolation-filters="sRGB">
      <feGaussianBlur
         stdDeviation=".628"
         id="feGaussianBlur11" />
    </filter>
    <filter
       id="d"
       x="-0.15899999"
       width="1.319"
       y="-0.15899999"
       height="1.319"
       color-interpolation-filters="sRGB">
      <feGaussianBlur
         stdDeviation="1.01"
         id="feGaussianBlur14" />
    </filter>
    <filter
       id="f"
       x="-0.183"
       width="1.3660001"
       y="-0.183"
       height="1.3660001"
       color-interpolation-filters="sRGB">
      <feGaussianBlur
         stdDeviation="1.158"
         id="feGaussianBlur17" />
    </filter>
    <filter
       id="t"
       x="-0.046"
       width="1.0930001"
       y="-0.046"
       height="1.0930001"
       color-interpolation-filters="sRGB">
      <feGaussianBlur
         stdDeviation=".635"
         id="feGaussianBlur20" />
    </filter>
    <filter
       id="h"
       x="-0.0070000002"
       width="1.0140001"
       y="-0.0070000002"
       height="1.0140001"
       color-interpolation-filters="sRGB">
      <feGaussianBlur
         stdDeviation=".092"
         id="feGaussianBlur23" />
    </filter>
    <filter
       id="r"
       x="-0.234"
       width="1.469"
       y="-0.234"
       height="1.469"
       color-interpolation-filters="sRGB">
      <feGaussianBlur
         stdDeviation="1.66"
         id="feGaussianBlur26" />
    </filter>
    <filter
       id="s"
       x="-0.034000002"
       width="1.068"
       y="-0.034000002"
       height="1.068"
       color-interpolation-filters="sRGB">
      <feGaussianBlur
         stdDeviation=".432"
         id="feGaussianBlur29" />
    </filter>
    <filter
       id="u"
       x="-0.030999999"
       width="1.062"
       y="-0.030999999"
       height="1.062"
       color-interpolation-filters="sRGB">
      <feGaussianBlur
         stdDeviation=".427"
         id="feGaussianBlur32" />
    </filter>
    <filter
       id="b"
       x="-0.015"
       width="1.031"
       y="-0.015"
       height="1.031"
       color-interpolation-filters="sRGB">
      <feGaussianBlur
         stdDeviation=".209"
         id="feGaussianBlur35" />
    </filter>
    <filter
       id="o"
       x="-0.17399999"
       width="1.348"
       y="-0.17399999"
       height="1.348"
       color-interpolation-filters="sRGB">
      <feGaussianBlur
         stdDeviation="1.358"
         id="feGaussianBlur38" />
    </filter>
    <filter
       id="v"
       x="-0.0080000004"
       width="1.017"
       y="-0.093000002"
       height="1.186"
       color-interpolation-filters="sRGB">
      <feGaussianBlur
         stdDeviation=".37"
         id="feGaussianBlur41" />
    </filter>
    <filter
       id="k"
       x="-0.384"
       width="1.768"
       y="-0.384"
       height="1.768"
       color-interpolation-filters="sRGB">
      <feGaussianBlur
         stdDeviation="2.721"
         id="feGaussianBlur44" />
    </filter>
    <filter
       id="q"
       x="-0.384"
       width="1.768"
       y="-0.384"
       height="1.768"
       color-interpolation-filters="sRGB">
      <feGaussianBlur
         stdDeviation="2.721"
         id="feGaussianBlur47" />
    </filter>
    <filter
       id="i"
       x="-0.428"
       width="1.855"
       y="-0.428"
       height="1.855"
       color-interpolation-filters="sRGB">
      <feGaussianBlur
         stdDeviation="1.871"
         id="feGaussianBlur50" />
    </filter>
    <filter
       id="l"
       x="-0.86400002"
       width="2.7290001"
       y="-0.86400002"
       height="2.7290001"
       color-interpolation-filters="sRGB">
      <feGaussianBlur
         stdDeviation="3.421"
         id="feGaussianBlur53" />
    </filter>
    <filter
       id="p"
       x="-1.153"
       width="3.3050001"
       y="-1.153"
       height="3.3050001"
       color-interpolation-filters="sRGB">
      <feGaussianBlur
         stdDeviation="4.562"
         id="feGaussianBlur56" />
    </filter>
    <filter
       id="n"
       x="-1.331"
       width="3.6619999"
       y="-1.331"
       height="3.6619999"
       color-interpolation-filters="sRGB">
      <feGaussianBlur
         stdDeviation="3.328"
         id="feGaussianBlur59" />
    </filter>
    <filter
       id="m"
       x="-0.71499997"
       width="2.431"
       y="-0.71499997"
       height="2.431"
       color-interpolation-filters="sRGB">
      <feGaussianBlur
         stdDeviation="4.322"
         id="feGaussianBlur62" />
    </filter>
    <filter
       id="j"
       x="-0.66900003"
       width="2.3380001"
       y="-0.66900003"
       height="2.3380001"
       color-interpolation-filters="sRGB">
      <feGaussianBlur
         stdDeviation="3.904"
         id="feGaussianBlur65" />
    </filter>
  </defs>
  <g
     fill="none"
     stroke-miterlimit="10"
     id="g74"
     transform="translate(-61.447477,-38.489001)">
    <path
       stroke="#c8b7be"
       stroke-width="10"
       d="m 208.59,53.091 v 92.336 a 63.304,63.304 0 0 1 -9.76,33.762 L 75.455,374.599 C 50.95,413.406 78.832,464 124.712,464 h 262.576 c 45.88,0 73.763,-50.594 49.258,-89.403 L 313.16,179.19 a 63.308,63.308 0 0 1 -9.75,-33.762 V 53.091"
       id="path70" />
    <path
       stroke="#e3dbe2"
       stroke-width="3.7"
       d="m 209.716,53.091 v 92.336 a 62.94,62.94 0 0 1 -9.836,33.762 L 75.53,374.599 C 50.833,413.406 78.937,464 125.178,464 h 264.646 c 46.241,0 74.345,-50.594 49.646,-89.403 L 315.11,179.19 a 62.944,62.944 0 0 1 -9.826,-33.762 V 53.091"
       id="path72" />
  </g>
  <circle
     cx="114.42352"
     cy="246.05"
     r="12.964"
     opacity="0.997"
     fill="#ff0066"
     filter="url(#a)"
     id="circle76" />
  <circle
     cx="227.65952"
     cy="295.86798"
     r="16.396"
     opacity="0.997"
     fill="#ff0066"
     filter="url(#b)"
     id="circle78" />
  <circle
     cx="209.74152"
     cy="171.828"
     r="4.1929998"
     opacity="0.997"
     fill="#ff0066"
     filter="url(#c)"
     id="circle80" />
  <circle
     cx="243"
     cy="216.75"
     r="7.6030002"
     transform="matrix(0.8356,0,0,0.8356,-73.117477,32.499999)"
     opacity="0.997"
     fill="#ff0066"
     filter="url(#d)"
     id="circle82" />
  <circle
     cx="210"
     cy="231.75"
     r="7.6030002"
     transform="matrix(0.6712,0,0,0.6712,7.6005236,37.709999)"
     opacity="0.997"
     fill="#ff0066"
     filter="url(#e)"
     id="circle84" />
  <circle
     cx="270.5"
     cy="247.25"
     r="7.6030002"
     transform="matrix(1.1644,0,0,1.1644,-105.91748,-79.137001)"
     opacity="0.997"
     fill="#c83771"
     filter="url(#e)"
     id="circle86" />
  <circle
     cx="246.30252"
     cy="189.011"
     r="7.6030002"
     opacity="0.997"
     fill="#ff0066"
     filter="url(#f)"
     id="circle88" />
  <circle
     cx="233.18951"
     cy="255.076"
     r="15.365"
     opacity="0.997"
     fill="#c83771"
     filter="url(#g)"
     id="circle90" />
  <circle
     cx="174.85352"
     cy="233.50899"
     r="15.365"
     opacity="0.997"
     fill="#c83771"
     filter="url(#g)"
     id="circle92" />
  <circle
     cx="124.67752"
     cy="282.26099"
     r="15.365"
     opacity="0.997"
     fill="#c83771"
     filter="url(#h)"
     id="circle94" />
  <g
     opacity="0.997"
     id="g116"
     transform="translate(-61.447477,-38.489001)">
    <circle
       cx="233.5"
       cy="270.75"
       r="5.25"
       transform="matrix(2.30952,0,0,2.30952,-359.778,-338.39)"
       fill="#e9afc6"
       filter="url(#i)"
       id="circle96" />
    <circle
       cx="272.5"
       cy="248.5"
       r="7"
       transform="matrix(1.10714,0,0,1.10714,-29.196,-26.625)"
       fill="#e9afc6"
       filter="url(#j)"
       id="circle98" />
    <circle
       cx="253.25"
       cy="306.875"
       r="8.5"
       transform="matrix(1.58824,0,0,1.58824,-103.208,-192.2)"
       fill="#e9afc6"
       filter="url(#k)"
       id="circle100" />
    <circle
       cx="243.5"
       cy="217.5"
       r="4.75"
       transform="matrix(1.26316,0,0,1.26316,-115.198,-21.028)"
       fill="#e9afc6"
       filter="url(#l)"
       id="circle102" />
    <circle
       cx="308.75"
       cy="229"
       r="7.25"
       fill="#e9afc6"
       filter="url(#m)"
       id="circle104" />
    <circle
       cx="188"
       cy="261"
       r="3"
       transform="matrix(1.29882,0,0,1.29882,27.865,-128.049)"
       fill="#e9afc6"
       filter="url(#n)"
       id="circle106" />
    <circle
       cx="286.44299"
       cy="329.814"
       r="9.375"
       fill="#de87aa"
       filter="url(#o)"
       id="circle108" />
    <circle
       cx="210.5"
       cy="232"
       r="4.75"
       transform="matrix(0.94737,0,0,0.94737,11.579,13.46)"
       fill="#e9afc6"
       filter="url(#p)"
       id="circle110" />
    <circle
       cx="253.25"
       cy="306.875"
       r="8.5"
       transform="matrix(1.58824,0,0,1.58824,-160.545,-211.766)"
       fill="#e9afc6"
       filter="url(#q)"
       id="circle112" />
    <circle
       cx="253.25"
       cy="306.875"
       r="8.5"
       transform="matrix(0.77941,0,0,0.77941,-10.261,74.443)"
       fill="#d35f8d"
       filter="url(#r)"
       id="circle114" />
  </g>
  <g
     fill="#c83771"
     id="g124"
     transform="translate(-61.447477,-38.489001)">
    <path
       d="m 119.359,458.538 c -3.703,-0.397 -8.793,-1.539 -12.177,-2.732 -15.503,-5.468 -27.538,-17.85 -32.843,-33.791 -4.323,-12.991 -3.477,-26.555 2.412,-38.643 1.206,-2.477 12.284,-20.477 24.616,-39.999 l 9.855,-17.54 45.562,-8.656 c 59.966,-9.201 169.006,37.69 238.4,2.201 8.706,12.519 5.139,8.957 13.844,21.475 14.441,20.768 25.17,40.127 25.932,41.633 3.487,6.878 5.282,14.595 5.308,22.813 0.047,14.887 -5.605,28.22 -16.367,38.61 -8.49,8.197 -18.655,13.054 -30.308,14.483 -3.358,0.412 -270.425,0.554 -274.234,0.146 z"
       id="path118" />
    <circle
       cx="191.5"
       cy="325.625"
       r="15.365"
       opacity="0.997"
       filter="url(#s)"
       id="circle120" />
    <circle
       cx="180.125"
       cy="324.375"
       r="15.365"
       opacity="0.997"
       filter="url(#h)"
       id="circle122" />
  </g>
  <path
     d="m 57.911523,420.049 c -3.703,-0.397 -8.793,-1.539 -12.177,-2.732 -15.503,-5.468 -27.538,-17.85 -32.843,-33.791 -4.2759994,-12.849 -3.4929994,-26.293 2.23,-38.298 1.218,-2.557 26.878,-43.596 64.826,-103.68 34.545997,-54.697 63.866997,-101.543 65.157997,-104.103 2.626,-5.21 4.536,-10.63 5.964,-16.928 l 0.96,-4.231 0.141,-47.926001 c 0.123,-41.503 0.224,-47.926 0.755,-47.926 0.337,0 3.71,0.321 7.496,0.713 5.682,0.589 11.607,0.714 33.967,0.718 25.474,0.005 28.746,-0.1 39.872,-1.271 l 2.633,-0.278 0.135,48.197 c 0.134,48.128001 0.135,48.202001 1.08,52.327001 1.338,5.85 3.224,11.278 5.62,16.182 1.138,2.327 19.944,32.51 41.791,67.074 21.848,34.564 39.694,62.883 39.659,62.932 -0.315,0.439 -33.992,8.94 -49.75,12.558 -81.155,18.635 -160.303,26.64 -213.707997,21.613 -6.525,-0.615 -15.197,-1.737 -16.61,-2.15 -0.526,-0.154 -0.741,0.022 -0.741,0.604 0,0.913 -0.058,0.9 8.148,1.968 20.978,2.734 54.429997,3.066 85.375997,0.85 53.11,-3.805 111.865,-14.091 175.41,-30.71 6.283,-1.642 11.63,-3.247 11.879,-3.565 0.35,-0.447 5.691,7.716 23.485,35.899 12.667,20.063 23.735,37.817 24.597,39.454 3.63,6.899 5.53,14.85 5.556,23.261 0.047,14.887 -5.605,28.22 -16.367,38.61 -8.49,8.197 -18.655,13.054 -30.308,14.483 -3.358,0.412 -270.424997,0.554 -274.233997,0.146 z"
     fill="none"
     id="path126" />
  <path
     d="m 57.911523,420.049 c -3.703,-0.397 -8.793,-1.539 -12.177,-2.732 -15.503,-5.468 -27.538,-17.85 -32.843,-33.791 -4.2759994,-12.849 -3.4929994,-26.293 2.23,-38.298 1.218,-2.557 26.878,-43.596 64.826,-103.68 34.545997,-54.697 63.866997,-101.543 65.157997,-104.103 2.626,-5.21 4.536,-10.63 5.964,-16.928 l 0.96,-4.231 0.141,-47.926001 c 0.123,-41.503 0.224,-47.926 0.755,-47.926 0.337,0 3.71,0.321 7.496,0.713 5.682,0.589 11.607,0.714 33.967,0.718 25.474,0.005 28.746,-0.1 39.872,-1.271 l 2.633,-0.278 0.135,48.197 c 0.134,48.128001 0.135,48.202001 1.08,52.327001 1.338,5.85 3.224,11.278 5.62,16.182 1.138,2.327 19.944,32.51 41.791,67.074 21.848,34.564 39.694,62.883 39.659,62.932 -0.315,0.439 -33.992,8.94 -49.75,12.558 -81.155,18.635 -160.303,26.64 -213.707997,21.613 -6.525,-0.615 -15.197,-1.737 -16.61,-2.15 -0.526,-0.154 -0.741,0.022 -0.741,0.604 0,0.913 -0.058,0.9 8.148,1.968 20.978,2.734 54.429997,3.066 85.375997,0.85 53.11,-3.805 111.865,-14.091 175.41,-30.71 6.283,-1.642 11.63,-3.247 11.879,-3.565 0.35,-0.447 5.691,7.716 23.485,35.899 12.667,20.063 23.735,37.817 24.597,39.454 3.63,6.899 5.53,14.85 5.556,23.261 0.047,14.887 -5.605,28.22 -16.367,38.61 -8.49,8.197 -18.655,13.054 -30.308,14.483 -3.358,0.412 -270.424997,0.554 -274.233997,0.146 z"
     fill="none"
     id="path128" />
  <path
     d="m 57.911523,420.049 c -3.703,-0.397 -8.793,-1.539 -12.177,-2.732 -15.503,-5.468 -27.538,-17.85 -32.843,-33.791 -4.2759994,-12.849 -3.4929994,-26.293 2.23,-38.298 1.218,-2.557 26.878,-43.596 64.826,-103.68 34.545997,-54.697 63.866997,-101.543 65.157997,-104.103 2.626,-5.21 4.536,-10.63 5.964,-16.928 l 0.96,-4.231 0.141,-47.926001 c 0.123,-41.503 0.224,-47.926 0.755,-47.926 0.337,0 3.71,0.321 7.496,0.713 5.682,0.589 11.607,0.714 33.967,0.718 25.474,0.005 28.746,-0.1 39.872,-1.271 l 2.633,-0.278 0.135,48.197 c 0.134,48.128001 0.135,48.202001 1.08,52.327001 1.338,5.85 3.224,11.278 5.62,16.182 1.138,2.327 19.944,32.51 41.791,67.074 21.848,34.564 39.694,62.883 39.659,62.932 -0.315,0.439 -33.992,8.94 -49.75,12.558 -81.155,18.635 -160.303,26.64 -213.707997,21.613 -6.525,-0.615 -15.197,-1.737 -16.61,-2.15 -0.526,-0.154 -0.741,0.022 -0.741,0.604 0,0.913 -0.058,0.9 8.148,1.968 20.978,2.734 54.429997,3.066 85.375997,0.85 53.11,-3.805 111.865,-14.091 175.41,-30.71 6.283,-1.642 11.63,-3.247 11.879,-3.565 0.35,-0.447 5.691,7.716 23.485,35.899 12.667,20.063 23.735,37.817 24.597,39.454 3.63,6.899 5.53,14.85 5.556,23.261 0.047,14.887 -5.605,28.22 -16.367,38.61 -8.49,8.197 -18.655,13.054 -30.308,14.483 -3.358,0.412 -270.424997,0.554 -274.233997,0.146 z"
     fill="none"
     id="path130" />
  <path
     d="m 54.238523,419.531 c -16.018,-2.692 -30.192,-13.074 -37.787,-27.677 -4.39,-8.442 -6.148,-15.51 -6.159,-24.773 -0.01,-8.556 1.67,-15.788 5.357,-23.063 1.49,-2.94 25.893,-42.105 26.984,-43.307 0.177,-0.195 2.2,-0.06 4.495,0.3 30.448,5.934 68.707997,18.933 125.127997,8.663 62.177,-11.318 142.175,-45.632 161.48,-28.785 1.096,1.253 38.388,60.514 39.714,63.129 3.635,7.17 5.353,14.484 5.366,22.852 0.01,6.453 -0.554,10.263 -2.385,16.08 -5.17,16.427 -18.406,29.787 -34.54,34.869 -7.991,2.516 1.134,2.372 -147.764,2.327 C 81.390523,420.112 57.057523,420.005 54.237523,419.531 Z"
     fill="#ff0066"
     id="path132" />
  <path
     d="m 16.278523,392.248 c -2.984,-5.557 -5.024,-11.884 -5.88,-18.236 -0.345,-2.569 -0.4779994,-4.92 -0.4359994,-7.697 0.032,-2.057 0.065,-2.649 0.2499994,-4.496 0.741,-7.434 3.233,-14.943 7.153,-21.553 0.82,-1.382 12.435,-19.744 12.507,-19.772 0.04,-0.015 0.085,-0.016 0.1,-0.002 0.014,0.014 -1.193,1.987 -2.682,4.384 -5.93,9.544 -10.249,16.607 -11.38,18.613 -0.652,1.156 -1.574,3.16 -2.29,4.973 -1.814,4.596 -2.917,9.557 -3.369,15.155 -0.106,1.315 -0.088,5.738 0.03,7.136 0.448,5.344 1.396,9.8 3.007,14.129 0.865,2.322 2.196,5.27 3.34,7.392 l 0.391,0.728 h -0.167 c -0.162,0 -0.182,-0.027 -0.573,-0.754 z m 45.936,28.242 a 56.445,56.445 0 0 1 -5.951,-0.434 c -8.647,-1.09 -16.778,-4.261 -23.817,-9.29 a 52.818,52.818 0 0 1 -5.21,-4.246 80.036,80.036 0 0 1 -2.764,-2.754 54.584,54.584 0 0 1 -6.3,-8.213 c -0.46,-0.738 -1.212,-2.002 -1.212,-2.038 a 0.67,0.67 0 0 1 0.18,-0.012 h 0.182 l 0.273,0.47 c 7.025,12.05 18.384,20.821 31.712,24.486 1.65,0.454 4.188,1 5.224,1.123 0.13,0.016 0.446,0.063 0.7,0.106 1.644,0.272 2.455,0.367 3.386,0.396 0.87,0.028 5.238,0.07 10.163,0.096 l 3.247,0.018 v 0.31 l -4.715,-0.006 c -2.593,-0.003 -4.887,-0.01 -5.098,-0.012 z m 152.858997,-0.101 v -0.115 l 7.52,-0.006 c 4.137,-0.003 8.7,-0.01 10.142,-0.012 l 2.62,-0.006 v 0.255 h -20.282 z M 72.029523,420.347 v -0.15 l 6.13,0.02 c 4.566,0.013 27.157997,0.061 32.253997,0.068 h 0.523 v 0.212 H 72.029523 Z"
     fill="#ff0066"
     id="path134" />
  <path
     d="m 105.82852,420.503 5.113,-0.002 v -0.215 l -0.12,-0.003 c -0.065,-0.002 1.836,-0.004 4.225,-0.005 2.389,0 4.707,0 5.15,0.004 l 0.807,0.006 v 0.223 l -10.144,-0.002 c -5.579,-0.001 -7.843,-0.003 -5.03,-0.005 z m 15.186,-0.098 v -0.106 h 22.534 v 0.211 h -22.534 z m 114.385,-0.027 c 0.033,-0.033 19.096,-0.106 42.363,-0.163 23.266,-0.056 45.159,-0.145 48.65,-0.197 l 6.348,-0.094 1.851,-0.323 c 2.159,-0.376 2.934,-0.415 1.168,-0.058 -1.38,0.279 -4.17,0.635 -6.182,0.79 -1.444,0.11 -94.308,0.155 -94.198,0.045 z"
     fill="#ff0066"
     id="path136" />
  <path
     d="m 237.39252,420.381 -0.262,-0.056 0.299,-0.002 c 0.165,0 0.501,0.023 0.748,0.054 l 0.449,0.056 h -0.486 a 4.66,4.66 0 0 1 -0.748,-0.053 z m 20.71,0.093 c 12.52,-0.01 32.989,-0.01 45.483,0 12.494,0.01 2.25,0.019 -22.767,0.019 -25.016,0 -35.239,-0.01 -22.717,-0.02 z"
     fill="#ff0066"
     id="path138" />
  <path
     d="m 237.85952,420.421 a 15.87,15.87 0 0 0 -1.01,-0.027 c -0.247,0 -0.648,-0.003 -0.893,-0.007 l -0.444,-0.007 0.313,-0.006 c 0.173,-0.003 0.533,-0.006 0.8,-0.007 0.269,0 0.527,-0.004 0.576,-0.008 l 0.088,-0.007 -0.052,-0.012 c -0.044,-0.01 -0.013,-0.011 0.225,-0.008 a 15.731,15.731 0 0 0 1.211,0.02 c 1.53,-0.012 8.478,-0.041 13.52,-0.058 l 1.904,-0.006 v 0.143 h -1.807 c -2.205,0 -11.412,-0.016 -12.86,-0.022 -0.878,-0.004 -1.034,-0.002 -0.968,0.008 0.075,0.011 0.063,0.012 -0.2,0.012 -0.155,0 -0.336,-0.003 -0.403,-0.007 z"
     fill="#ff0066"
     id="path140" />
  <path
     d="m 235.35852,420.381 v -0.125 l 3.462,-0.006 c 1.904,-0.003 5.66,-0.008 8.348,-0.01 2.687,-0.003 5.346,-0.007 5.908,-0.01 l 1.021,-0.006 v 0.058 h -0.605 c -0.933,0 -9.002,0.033 -12.856,0.052 -1.784,0.009 -2.75,0.01 -2.805,0.004 a 8.645,8.645 0 0 0 -0.704,-0.014 0.228,0.228 0 0 0 0.06,0.018 c 0.045,0.01 -0.112,0.012 -0.833,0.018 -0.489,0.004 -0.906,0.01 -0.926,0.014 -0.07,0.014 0.235,0.021 1.23,0.03 0.537,0.005 1.013,0.013 1.056,0.018 0.126,0.013 0.914,0.023 0.903,0.011 a 0.11,0.11 0 0 0 -0.047,-0.014 c -0.02,-0.002 0.453,-0.002 1.052,0 1.493,0.006 10.934,0.021 12.888,0.022 1.58,0 1.587,0 1.587,0.018 0,0.019 -0.008,0.02 -0.67,0.022 l -0.672,0.002 0.671,0.002 c 0.44,0 0.671,0.005 0.671,0.011 0,0.006 -3.13,0.01 -9.37,0.01 h -9.37 z m -54.954,0.02 v -0.107 h 34.648 v 0.212 h -34.648 z m -36.834,0.003 v -0.094 h 36.806 v 0.187 h -36.806 z m 158.507,0.068 c -6,-0.017 -5.091,-0.022 8.34,-0.047 8.292,-0.015 15.959,-0.035 17.039,-0.044 2.233,-0.018 2.073,0.026 -0.318,0.088 -1.505,0.04 -11.598,0.04 -25.061,0.003 z m 30.241,-0.392 c 0.395,-0.056 0.757,-0.071 0.449,-0.019 a 6.074,6.074 0 0 1 -0.486,0.05 l -0.318,0.02 z m -46.007,0.238 v -0.098 l 5.994,-0.024 c 3.296,-0.014 10.538,-0.042 16.093,-0.062 10.923,-0.041 17.572,-0.087 21.695,-0.15 l 2.618,-0.04 1.31,-0.222 c 1.58,-0.268 2.25,-0.372 2.374,-0.368 0.47,0.014 -2.182,0.459 -4.096,0.687 -0.432,0.051 -1.214,0.136 -1.739,0.188 l -0.954,0.095 -9.052,0.037 c -4.978,0.02 -14.72,0.04 -21.647,0.045 l -12.596,0.01 z"
     fill="#ff0066"
     id="path142" />
  <path
     d="m 332.88552,420.038 c 0.008,-0.013 -0.005,-0.021 -0.04,-0.023 -0.028,0 0.066,-0.018 0.21,-0.037 a 47.659,47.659 0 0 0 2.647,-0.412 c 0.681,-0.134 1.066,-0.228 1.066,-0.26 0,-0.064 -0.803,0.051 -2.888,0.413 l -1.176,0.205 -0.301,-0.002 -0.302,-0.002 0.206,-0.026 a 68.602,68.602 0 0 0 3.236,-0.502 c 0.308,-0.055 0.733,-0.123 0.944,-0.15 a 20.74,20.74 0 0 0 2.14,-0.393 c 0.583,-0.143 0.961,-0.26 2.554,-0.786 l 1.272,-0.418 a 50.577,50.577 0 0 0 8.701,-3.8 c 0.166,-0.092 0.304,-0.168 0.308,-0.168 0.003,0 0.006,0.082 0.006,0.183 v 0.182 l -0.435,0.233 a 52.27,52.27 0 0 1 -17.35,5.674 c -0.786,0.112 -0.813,0.115 -0.797,0.09 z m -3.841,0.356 c 0,-0.015 -0.154,-0.022 -0.529,-0.025 -0.471,-0.003 -0.436,-0.005 0.332,-0.016 a 17.58,17.58 0 0 0 1.178,-0.044 c 0.7,-0.067 1.123,-0.109 1.506,-0.15 0.283,-0.03 0.446,-0.039 0.552,-0.03 0.082,0.007 0.128,0.015 0.103,0.016 a 63.054,63.054 0 0 1 -2.969,0.258 c -0.123,0.008 -0.173,0.006 -0.173,-0.01 z m 22.462,-6.585 c 10e-4,-0.088 0.3,-0.302 0.91,-0.655 1.145,-0.66 3.564,-2.264 4.726,-3.136 a 52.949,52.949 0 0 0 6.298,-5.519 c 7.38,-7.517 11.987,-15.957 14.32,-26.229 0.66,-2.906 0.927,-5.184 1.052,-8.955 0.231,-6.994 -0.611,-13.06 -2.649,-19.077 -1.192,-3.517 -2.143,-5.53 -4.926,-10.42 -0.616,-1.083 -1.104,-1.985 -1.084,-2.004 0.04,-0.041 0.952,1.405 1.844,2.925 0.808,1.377 2.493,4.778 3.114,6.284 4.494,10.904 5.252,22.36 2.23,33.74 -1.46,5.5 -3.943,11.006 -7.168,15.896 a 53.327,53.327 0 0 1 -15.975,15.72 c -1.003,0.637 -2.573,1.56 -2.652,1.56 -0.023,0 -0.04,-0.058 -0.04,-0.13 z"
     fill="#ff0066"
     id="path144" />
  <path
     d="m 370.26552,338.171 a 535.339,535.339 0 0 0 -1.692,-2.916 c -0.438,-0.746 -0.139,-0.303 0.805,1.191 0.542,0.86 0.981,1.567 0.975,1.573 -0.006,0.006 -0.05,-0.046 -0.1,-0.114 -0.131,-0.187 -0.125,-0.097 0.014,0.179 0.067,0.134 0.117,0.248 0.11,0.255 -0.007,0.007 -0.057,-0.07 -0.112,-0.168 z"
     fill="#ff0066"
     id="path146" />
  <path
     d="m 376.03852,349.414 a 50.862,50.862 0 0 0 -1.141,-2.901 80.53,80.53 0 0 0 -2.659,-5.359 c -0.412,-0.744 -1.578,-2.658 -1.868,-3.068 -0.044,-0.063 -0.049,-0.074 -0.027,-0.066 0.008,0.003 0.014,0.002 0.014,-0.003 0,-0.004 -0.036,-0.067 -0.08,-0.14 -0.144,-0.237 -0.077,-0.149 0.104,0.137 a 91.707,91.707 0 0 1 1.1,1.765 55.601,55.601 0 0 1 2.99,5.67 54.683,54.683 0 0 1 1.553,3.792 l 0.062,0.171 c 0.004,0.009 -0.002,0.013 -0.02,0.013 -0.013,0 -0.026,-0.005 -0.028,-0.012 z"
     fill="#ff0066"
     id="path148" />
  <path
     d="m 375.77252,349.292 a 50.785,50.785 0 0 0 -2.129,-4.897 c -0.267,-0.537 -0.377,-0.732 -0.983,-1.74 a 640.717,640.717 0 0 0 -3.592,-5.849 l -0.122,-0.196 0.193,-0.003 c 0.106,-0.001 0.196,0 0.2,0.005 0.013,0.013 1.053,1.815 1.567,2.714 a 215.075,215.075 0 0 1 2.49,4.46 c 0.131,0.246 0.545,1.085 0.72,1.46 a 48.256,48.256 0 0 1 1.624,3.89 c 0.107,0.29 0.107,0.29 0.093,0.29 a 0.481,0.481 0 0 1 -0.061,-0.134 z"
     fill="#ff0066"
     id="path150" />
  <path
     d="m 375.82452,349.245 c -0.678,-1.905 -1.361,-3.464 -2.365,-5.397 a 116.916,116.916 0 0 0 -2.078,-3.788 c -0.818,-1.446 -1.228,-2.197 -1.208,-2.217 0.037,-0.037 1.28,1.953 1.93,3.092 0.714,1.248 2.051,3.927 2.766,5.54 a 48.993,48.993 0 0 1 1.154,2.925 l 0.01,0.025 h -0.145 z"
     fill="#ff0066"
     id="path152" />
  <path
     d="m 374.28252,345.584 a 38.444,38.444 0 0 0 -1.478,-2.901 259.32,259.32 0 0 0 -1.322,-2.36 l -0.039,-0.068 0.018,-10e-4 c 0.01,0 0.02,0 0.022,0.004 0.005,0.005 0.125,0.218 0.38,0.671 1.062,1.89 1.794,3.277 2.381,4.508 l 0.072,0.151 0.009,0.02 h -0.016 c -0.016,0 -0.016,0 -0.027,-0.024 z m 3.605,10.157 a 57.634,57.634 0 0 0 -0.58,-2.317 55.053,55.053 0 0 0 -1.265,-3.996 l 0.025,-10e-4 h 0.025 l 0.08,0.223 a 53.04,53.04 0 0 1 1.777,6.162 c 0,0.005 -0.01,0.008 -0.022,0.008 -0.022,0 -0.022,-0.002 -0.04,-0.08 z"
     fill="#ff0066"
     id="path154" />
  <path
     d="m 377.66152,355.596 c -0.122,-0.558 -0.34,-1.46 -0.478,-1.982 a 51.46,51.46 0 0 0 -1.121,-3.684 c -0.609,-1.77 -1.14,-3.084 -1.83,-4.53 a 43.343,43.343 0 0 1 -0.132,-0.28 c -0.003,-0.007 0.013,-0.01 0.067,-0.01 h 0.072 l 0.059,0.123 c 0.475,0.992 0.821,1.792 1.228,2.84 a 54.22,54.22 0 0 1 2.368,7.74 c 0,0.004 -0.04,0.007 -0.092,0.007 h -0.092 z"
     fill="#ff0066"
     id="path156" />
  <path
     d="m 377.68452,355.701 a 50.811,50.811 0 0 0 -1.492,-5.388 c -0.658,-1.952 -1.222,-3.365 -1.962,-4.918 l -0.13,-0.275 c -0.003,-0.007 0.013,-0.01 0.069,-0.01 h 0.073 l 0.05,0.107 0.174,0.37 c 0.378,0.81 0.593,1.307 0.909,2.1 a 54.283,54.283 0 0 1 2.52,8.126 c 0,0.004 -0.04,0.007 -0.093,0.007 h -0.093 z"
     fill="#ff0066"
     id="path158" />
  <path
     d="m 377.68052,355.811 -0.067,-0.299 a 54.21,54.21 0 0 0 -1.04,-3.932 48.304,48.304 0 0 0 -2.273,-5.967 c 0,-0.002 0.005,-0.003 0.012,-0.003 0.007,0 0.023,0.023 0.038,0.057 l 0.102,0.22 a 39.896,39.896 0 0 1 1.423,3.532 51.369,51.369 0 0 1 1.824,6.394 c 0,0.011 -0.016,0.01 -0.02,-10e-4 z m 1.457,9.684 a 51.718,51.718 0 0 0 -1.226,-9.664 c 0,-0.004 0.009,-0.007 0.02,-0.007 0.017,0 0.026,0.029 0.062,0.19 a 51.926,51.926 0 0 1 1.172,9.48 c 0.003,0.022 0,0.03 -0.012,0.03 -0.01,0 -0.016,-0.01 -0.016,-0.03 z"
     fill="#ff0066"
     id="path160" />
  <path
     d="m 378.83452,365.478 a 6.385,6.385 0 0 1 -0.012,-0.306 55.125,55.125 0 0 0 -0.11,-2.221 c -0.302,-4.254 -1.063,-8.171 -2.365,-12.172 -0.07,-0.214 -0.127,-0.392 -0.127,-0.395 0,-0.004 0.034,-0.006 0.074,-0.004 l 0.075,0.003 0.108,0.331 a 52.65,52.65 0 0 1 1.665,6.277 51.087,51.087 0 0 1 0.984,8.498 v 0.036 h -0.286 z"
     fill="#ff0066"
     id="path162" />
  <path
     d="m 378.78752,364.261 a 51.786,51.786 0 0 0 -1,-8.068 52.13,52.13 0 0 0 -0.59,-2.528 0.46,0.46 0 0 1 0.084,-0.004 h 0.084 l 0.053,0.202 a 51.573,51.573 0 0 1 1.634,10.037 l 0.024,0.392 0.005,0.08 h -0.288 z"
     fill="#ff0066"
     id="path164" />
  <path
     d="m 378.76452,364.355 a 52.978,52.978 0 0 0 -0.408,-4.65 50.283,50.283 0 0 0 -0.65,-3.772 c -0.017,-0.08 -0.02,-0.107 -0.013,-0.11 0.007,-0.003 0.014,0.02 0.026,0.075 a 51.728,51.728 0 0 1 1.064,8.44 c 0,0.036 -0.013,0.047 -0.02,0.017 z m -27.29,49.51 c 0,-0.094 -0.002,-0.177 -0.005,-0.185 -0.003,-0.01 0.115,-0.084 0.353,-0.218 0.704,-0.4 1.529,-0.9 2.285,-1.385 a 3.65,3.65 0 0 1 0.28,-0.171 41.595,41.595 0 0 1 -2.134,1.34 c -0.39,0.229 -0.667,0.421 -0.724,0.502 a 0.13,0.13 0 0 0 -0.024,0.086 c 0,0.06 0.02,0.113 0.042,0.113 0.07,0 1.522,-0.851 2.507,-1.47 a 53.3,53.3 0 0 0 10.827,-9.026 c 0.153,-0.168 0.193,-0.205 0.22,-0.208 l 0.034,-0.004 -0.056,0.058 -0.188,0.203 a 55.687,55.687 0 0 1 -3.093,3.1 52.598,52.598 0 0 1 -9.59,7.028 c -0.341,0.195 -0.72,0.407 -0.73,0.407 a 1.4,1.4 0 0 1 -0.004,-0.17 z"
     fill="#ff0066"
     id="path166" />
  <path
     d="m 354.31252,411.941 0.118,-0.077 a 53.808,53.808 0 0 0 4.552,-3.327 l 0.142,-0.117 h 0.026 l 0.024,10e-4 -0.24,0.196 a 55.853,55.853 0 0 1 -2.11,1.631 62.507,62.507 0 0 1 -2.48,1.695 0.094,0.094 0 0 1 0.022,-0.02 c 0.034,-0.023 0.022,-0.023 -0.018,0 -0.03,0.019 -0.045,0.025 -0.035,0.017 z m 4.83,-3.531 c 0.006,-0.006 0.15,-0.127 0.32,-0.268 a 53.984,53.984 0 0 0 3.183,-2.873 c 0.11,-0.107 0.202,-0.193 0.204,-0.19 0.004,0.003 -0.358,0.363 -0.657,0.65 a 51.59,51.59 0 0 1 -2.736,2.455 c -0.219,0.183 -0.288,0.236 -0.304,0.236 -0.019,0 -0.02,0 -0.01,-0.01 z"
     fill="#ff0066"
     id="path168" />
  <circle
     cx="295.625"
     cy="312.875"
     r="16.396"
     transform="matrix(1.0305,0,0,1.0305,-83.962477,-12.280001)"
     opacity="0.997"
     fill="#ff0066"
     filter="url(#t)"
     id="circle170" />
  <circle
     cx="235.51352"
     cy="300.04999"
     r="16.396"
     opacity="0.997"
     fill="#ff0066"
     filter="url(#u)"
     id="circle172" />
  <g
     fill="none"
     stroke-miterlimit="10"
     id="g178"
     transform="translate(-61.447477,-38.489001)">
    <rect
       width="106.85"
       height="12.576"
       x="202.575"
       y="43.089001"
       rx="39.713001"
       ry="5.9850001"
       opacity="0.997"
       stroke="#c8b7be"
       stroke-width="9.2"
       id="rect174" />
    <rect
       width="106.85"
       height="9.5760002"
       x="202.575"
       y="43.089001"
       rx="38.992001"
       ry="4.2049999"
       transform="matrix(1.01849,0,0,1.42323,-3.734,-18.263)"
       opacity="0.997"
       stroke="#e3dbe2"
       stroke-width="2.658"
       filter="url(#v)"
       id="rect176" />
  </g>
</svg>
