<svg xmlns="http://www.w3.org/2000/svg" class="ionicon" viewBox="0 0 512 512"><defs><filter id="e" x="-.117" width="1.235" y="-.117" height="1.235" color-interpolation-filters="sRGB"><feGaussianBlur stdDeviation=".744"/></filter><filter id="a" x="-.074" width="1.148" y="-.074" height="1.148" color-interpolation-filters="sRGB"><feGaussianBlur stdDeviation=".8"/></filter><filter id="g" x="-.053" width="1.106" y="-.053" height="1.106" color-interpolation-filters="sRGB"><feGaussianBlur stdDeviation=".676"/></filter><filter id="c" x="-.18" width="1.36" y="-.18" height="1.36" color-interpolation-filters="sRGB"><feGaussianBlur stdDeviation=".628"/></filter><filter id="d" x="-.159" width="1.319" y="-.159" height="1.319" color-interpolation-filters="sRGB"><feGaussianBlur stdDeviation="1.01"/></filter><filter id="f" x="-.183" width="1.366" y="-.183" height="1.366" color-interpolation-filters="sRGB"><feGaussianBlur stdDeviation="1.158"/></filter><filter id="t" x="-.046" width="1.093" y="-.046" height="1.093" color-interpolation-filters="sRGB"><feGaussianBlur stdDeviation=".635"/></filter><filter id="h" x="-.007" width="1.014" y="-.007" height="1.014" color-interpolation-filters="sRGB"><feGaussianBlur stdDeviation=".092"/></filter><filter id="r" x="-.234" width="1.469" y="-.234" height="1.469" color-interpolation-filters="sRGB"><feGaussianBlur stdDeviation="1.66"/></filter><filter id="s" x="-.034" width="1.068" y="-.034" height="1.068" color-interpolation-filters="sRGB"><feGaussianBlur stdDeviation=".432"/></filter><filter id="u" x="-.031" width="1.062" y="-.031" height="1.062" color-interpolation-filters="sRGB"><feGaussianBlur stdDeviation=".427"/></filter><filter id="b" x="-.015" width="1.031" y="-.015" height="1.031" color-interpolation-filters="sRGB"><feGaussianBlur stdDeviation=".209"/></filter><filter id="o" x="-.174" width="1.348" y="-.174" height="1.348" color-interpolation-filters="sRGB"><feGaussianBlur stdDeviation="1.358"/></filter><filter id="v" x="-.008" width="1.017" y="-.093" height="1.186" color-interpolation-filters="sRGB"><feGaussianBlur stdDeviation=".37"/></filter><filter id="k" x="-.384" width="1.768" y="-.384" height="1.768" color-interpolation-filters="sRGB"><feGaussianBlur stdDeviation="2.721"/></filter><filter id="q" x="-.384" width="1.768" y="-.384" height="1.768" color-interpolation-filters="sRGB"><feGaussianBlur stdDeviation="2.721"/></filter><filter id="i" x="-.428" width="1.855" y="-.428" height="1.855" color-interpolation-filters="sRGB"><feGaussianBlur stdDeviation="1.871"/></filter><filter id="l" x="-.864" width="2.729" y="-.864" height="2.729" color-interpolation-filters="sRGB"><feGaussianBlur stdDeviation="3.421"/></filter><filter id="p" x="-1.153" width="3.305" y="-1.153" height="3.305" color-interpolation-filters="sRGB"><feGaussianBlur stdDeviation="4.562"/></filter><filter id="n" x="-1.331" width="3.662" y="-1.331" height="3.662" color-interpolation-filters="sRGB"><feGaussianBlur stdDeviation="3.328"/></filter><filter id="m" x="-.715" width="2.431" y="-.715" height="2.431" color-interpolation-filters="sRGB"><feGaussianBlur stdDeviation="4.322"/></filter><filter id="j" x="-.669" width="2.338" y="-.669" height="2.338" color-interpolation-filters="sRGB"><feGaussianBlur stdDeviation="3.904"/></filter></defs><g fill="none" stroke-miterlimit="10"><path stroke="#c8b7be" stroke-width="10" d="M208.59 53.091v92.336a63.304 63.304 0 01-9.76 33.762L75.455 374.599C50.95 413.406 78.832 464 124.712 464h262.576c45.88 0 73.763-50.594 49.258-89.403L313.16 179.19a63.308 63.308 0 01-9.75-33.762V53.091"/><path stroke="#e3dbe2" stroke-width="3.7" d="M209.716 53.091v92.336a62.94 62.94 0 01-9.836 33.762L75.53 374.599C50.833 413.406 78.937 464 125.178 464h264.646c46.241 0 74.345-50.594 49.646-89.403L315.11 179.19a62.944 62.944 0 01-9.826-33.762V53.091"/></g><circle cx="175.871" cy="284.539" r="12.964" opacity=".997" fill="#f06" filter="url(#a)"/><circle cx="289.107" cy="334.357" r="16.396" opacity=".997" fill="#f06" filter="url(#b)"/><circle cx="271.189" cy="210.317" r="4.193" opacity=".997" fill="#f06" filter="url(#c)"/><circle cx="243" cy="216.75" r="7.603" transform="translate(-11.67 70.989) scale(.8356)" opacity=".997" fill="#f06" filter="url(#d)"/><circle cx="210" cy="231.75" r="7.603" transform="translate(69.048 76.199) scale(.6712)" opacity=".997" fill="#f06" filter="url(#e)"/><circle cx="270.5" cy="247.25" r="7.603" transform="translate(-44.47 -40.648) scale(1.1644)" opacity=".997" fill="#c83771" filter="url(#e)"/><circle cx="307.75" cy="227.5" r="7.603" opacity=".997" fill="#f06" filter="url(#f)"/><circle cx="294.637" cy="293.565" r="15.365" opacity=".997" fill="#c83771" filter="url(#g)"/><circle cx="236.301" cy="271.998" r="15.365" opacity=".997" fill="#c83771" filter="url(#g)"/><circle cx="186.125" cy="320.75" r="15.365" opacity=".997" fill="#c83771" filter="url(#h)"/><g opacity=".997"><circle cx="233.5" cy="270.75" r="5.25" transform="translate(-359.778 -338.39) scale(2.30952)" fill="#e9afc6" filter="url(#i)"/><circle cx="272.5" cy="248.5" r="7" transform="translate(-29.196 -26.625) scale(1.10714)" fill="#e9afc6" filter="url(#j)"/><circle cx="253.25" cy="306.875" r="8.5" transform="translate(-103.208 -192.2) scale(1.58824)" fill="#e9afc6" filter="url(#k)"/><circle cx="243.5" cy="217.5" r="4.75" transform="translate(-115.198 -21.028) scale(1.26316)" fill="#e9afc6" filter="url(#l)"/><circle cx="308.75" cy="229" r="7.25" fill="#e9afc6" filter="url(#m)"/><circle cx="188" cy="261" r="3" transform="translate(27.865 -128.049) scale(1.29882)" fill="#e9afc6" filter="url(#n)"/><circle cx="286.443" cy="329.814" r="9.375" fill="#de87aa" filter="url(#o)"/><circle cx="210.5" cy="232" r="4.75" transform="translate(11.579 13.46) scale(.94737)" fill="#e9afc6" filter="url(#p)"/><circle cx="253.25" cy="306.875" r="8.5" transform="translate(-160.545 -211.766) scale(1.58824)" fill="#e9afc6" filter="url(#q)"/><circle cx="253.25" cy="306.875" r="8.5" transform="translate(-10.261 74.443) scale(.77941)" fill="#d35f8d" filter="url(#r)"/></g><g fill="#c83771"><path d="M119.359 458.538c-3.703-.397-8.793-1.539-12.177-2.732-15.503-5.468-27.538-17.85-32.843-33.791-4.323-12.991-3.477-26.555 2.412-38.643 1.206-2.477 12.284-20.477 24.616-39.999l9.855-17.54 45.562-8.656c59.966-9.201 169.006 37.69 238.4 2.201 8.706 12.519 5.139 8.957 13.844 21.475 14.441 20.768 25.17 40.127 25.932 41.633 3.487 6.878 5.282 14.595 5.308 22.813.047 14.887-5.605 28.22-16.367 38.61-8.49 8.197-18.655 13.054-30.308 14.483-3.358.412-270.425.554-274.234.146z"/><circle cx="191.5" cy="325.625" r="15.365" opacity=".997" filter="url(#s)"/><circle cx="180.125" cy="324.375" r="15.365" opacity=".997" filter="url(#h)"/></g><path d="M119.359 458.538c-3.703-.397-8.793-1.539-12.177-2.732-15.503-5.468-27.538-17.85-32.843-33.791-4.276-12.849-3.493-26.293 2.23-38.298 1.218-2.557 26.878-43.596 64.826-103.68 34.546-54.697 63.867-101.543 65.158-104.103 2.626-5.21 4.536-10.63 5.964-16.928l.96-4.231.141-47.926c.123-41.503.224-47.926.755-47.926.337 0 3.71.321 7.496.713 5.682.589 11.607.714 33.967.718 25.474.005 28.746-.1 39.872-1.271l2.633-.278.135 48.197c.134 48.128.135 48.202 1.08 52.327 1.338 5.85 3.224 11.278 5.62 16.182 1.138 2.327 19.944 32.51 41.791 67.074 21.848 34.564 39.694 62.883 39.659 62.932-.315.439-33.992 8.94-49.75 12.558-81.155 18.635-160.303 26.64-213.708 21.613-6.525-.615-15.197-1.737-16.61-2.15-.526-.154-.741.022-.741.604 0 .913-.058.9 8.148 1.968 20.978 2.734 54.43 3.066 85.376.85 53.11-3.805 111.865-14.091 175.41-30.71 6.283-1.642 11.63-3.247 11.879-3.565.35-.447 5.691 7.716 23.485 35.899 12.667 20.063 23.735 37.817 24.597 39.454 3.63 6.899 5.53 14.85 5.556 23.261.047 14.887-5.605 28.22-16.367 38.61-8.49 8.197-18.655 13.054-30.308 14.483-3.358.412-270.425.554-274.234.146z" fill="none"/><path d="M119.359 458.538c-3.703-.397-8.793-1.539-12.177-2.732-15.503-5.468-27.538-17.85-32.843-33.791-4.276-12.849-3.493-26.293 2.23-38.298 1.218-2.557 26.878-43.596 64.826-103.68 34.546-54.697 63.867-101.543 65.158-104.103 2.626-5.21 4.536-10.63 5.964-16.928l.96-4.231.141-47.926c.123-41.503.224-47.926.755-47.926.337 0 3.71.321 7.496.713 5.682.589 11.607.714 33.967.718 25.474.005 28.746-.1 39.872-1.271l2.633-.278.135 48.197c.134 48.128.135 48.202 1.08 52.327 1.338 5.85 3.224 11.278 5.62 16.182 1.138 2.327 19.944 32.51 41.791 67.074 21.848 34.564 39.694 62.883 39.659 62.932-.315.439-33.992 8.94-49.75 12.558-81.155 18.635-160.303 26.64-213.708 21.613-6.525-.615-15.197-1.737-16.61-2.15-.526-.154-.741.022-.741.604 0 .913-.058.9 8.148 1.968 20.978 2.734 54.43 3.066 85.376.85 53.11-3.805 111.865-14.091 175.41-30.71 6.283-1.642 11.63-3.247 11.879-3.565.35-.447 5.691 7.716 23.485 35.899 12.667 20.063 23.735 37.817 24.597 39.454 3.63 6.899 5.53 14.85 5.556 23.261.047 14.887-5.605 28.22-16.367 38.61-8.49 8.197-18.655 13.054-30.308 14.483-3.358.412-270.425.554-274.234.146z" fill="none"/><path d="M119.359 458.538c-3.703-.397-8.793-1.539-12.177-2.732-15.503-5.468-27.538-17.85-32.843-33.791-4.276-12.849-3.493-26.293 2.23-38.298 1.218-2.557 26.878-43.596 64.826-103.68 34.546-54.697 63.867-101.543 65.158-104.103 2.626-5.21 4.536-10.63 5.964-16.928l.96-4.231.141-47.926c.123-41.503.224-47.926.755-47.926.337 0 3.71.321 7.496.713 5.682.589 11.607.714 33.967.718 25.474.005 28.746-.1 39.872-1.271l2.633-.278.135 48.197c.134 48.128.135 48.202 1.08 52.327 1.338 5.85 3.224 11.278 5.62 16.182 1.138 2.327 19.944 32.51 41.791 67.074 21.848 34.564 39.694 62.883 39.659 62.932-.315.439-33.992 8.94-49.75 12.558-81.155 18.635-160.303 26.64-213.708 21.613-6.525-.615-15.197-1.737-16.61-2.15-.526-.154-.741.022-.741.604 0 .913-.058.9 8.148 1.968 20.978 2.734 54.43 3.066 85.376.85 53.11-3.805 111.865-14.091 175.41-30.71 6.283-1.642 11.63-3.247 11.879-3.565.35-.447 5.691 7.716 23.485 35.899 12.667 20.063 23.735 37.817 24.597 39.454 3.63 6.899 5.53 14.85 5.556 23.261.047 14.887-5.605 28.22-16.367 38.61-8.49 8.197-18.655 13.054-30.308 14.483-3.358.412-270.425.554-274.234.146z" fill="none"/><path d="M115.686 458.02c-16.018-2.692-30.192-13.074-37.787-27.677-4.39-8.442-6.148-15.51-6.159-24.773-.01-8.556 1.67-15.788 5.357-23.063 1.49-2.94 25.893-42.105 26.984-43.307.177-.195 2.2-.06 4.495.3 30.448 5.934 68.708 18.933 125.128 8.663 62.177-11.318 142.175-45.632 161.48-28.785 1.096 1.253 38.388 60.514 39.714 63.129 3.635 7.17 5.353 14.484 5.366 22.852.01 6.453-.554 10.263-2.385 16.08-5.17 16.427-18.406 29.787-34.54 34.869-7.991 2.516 1.134 2.372-147.764 2.327-112.737-.034-137.07-.141-139.89-.615z" fill="#f06"/><path d="M77.726 430.737c-2.984-5.557-5.024-11.884-5.88-18.236-.345-2.569-.478-4.92-.436-7.697.032-2.057.065-2.649.25-4.496.741-7.434 3.233-14.943 7.153-21.553.82-1.382 12.435-19.744 12.507-19.772.04-.015.085-.016.1-.002.014.014-1.193 1.987-2.682 4.384-5.93 9.544-10.249 16.607-11.38 18.613-.652 1.156-1.574 3.16-2.29 4.973-1.814 4.596-2.917 9.557-3.369 15.155-.106 1.315-.088 5.738.03 7.136.448 5.344 1.396 9.8 3.007 14.129.865 2.322 2.196 5.27 3.34 7.392l.391.728H78.3c-.162 0-.182-.027-.573-.754zm45.936 28.242a56.445 56.445 0 01-5.951-.434c-8.647-1.09-16.778-4.261-23.817-9.29a52.818 52.818 0 01-5.21-4.246 80.036 80.036 0 01-2.764-2.754 54.584 54.584 0 01-6.3-8.213c-.46-.738-1.212-2.002-1.212-2.038a.67.67 0 01.18-.012h.182l.273.47c7.025 12.05 18.384 20.821 31.712 24.486 1.65.454 4.188 1 5.224 1.123.13.016.446.063.7.106 1.644.272 2.455.367 3.386.396.87.028 5.238.07 10.163.096l3.247.018v.31l-4.715-.006c-2.593-.003-4.887-.01-5.098-.012zm152.859-.101v-.115l7.52-.006c4.137-.003 8.7-.01 10.142-.012l2.62-.006v.255h-20.282zm-143.044-.042v-.15l6.13.02c4.566.013 27.158.061 32.254.068h.523v.212h-38.907z" fill="#f06"/><path d="M167.276 458.992l5.113-.002v-.215l-.12-.003c-.065-.002 1.836-.004 4.225-.005 2.389 0 4.707 0 5.15.004l.807.006V459l-10.144-.002c-5.579-.001-7.843-.003-5.03-.005zm15.186-.098v-.106h22.534v.211h-22.534zm114.385-.027c.033-.033 19.096-.106 42.363-.163 23.266-.056 45.159-.145 48.65-.197l6.348-.094 1.851-.323c2.159-.376 2.934-.415 1.168-.058-1.38.279-4.17.635-6.182.79-1.444.11-94.308.155-94.198.045z" fill="#f06"/><path d="M298.84 458.87l-.262-.056.299-.002c.165 0 .501.023.748.054l.449.056h-.486a4.66 4.66 0 01-.748-.053zm20.71.093c12.52-.01 32.989-.01 45.483 0s2.25.019-22.767.019c-25.016 0-35.239-.01-22.717-.02z" fill="#f06"/><path d="M299.307 458.91a15.87 15.87 0 00-1.01-.027c-.247 0-.648-.003-.893-.007l-.444-.007.313-.006c.173-.003.533-.006.8-.007.269 0 .527-.004.576-.008l.088-.007-.052-.012c-.044-.01-.013-.011.225-.008a15.731 15.731 0 001.211.02c1.53-.012 8.478-.041 13.52-.058l1.904-.006v.143h-1.807c-2.205 0-11.412-.016-12.86-.022-.878-.004-1.034-.002-.968.008.075.011.063.012-.2.012-.155 0-.336-.003-.403-.007z" fill="#f06"/><path d="M296.806 458.87v-.125l3.462-.006c1.904-.003 5.66-.008 8.348-.01 2.687-.003 5.346-.007 5.908-.01l1.021-.006v.058h-.605c-.933 0-9.002.033-12.856.052-1.784.009-2.75.01-2.805.004a8.645 8.645 0 00-.704-.014.228.228 0 00.06.018c.045.01-.112.012-.833.018-.489.004-.906.01-.926.014-.07.014.235.021 1.23.03.537.005 1.013.013 1.056.018.126.013.914.023.903.011a.11.11 0 00-.047-.014c-.02-.002.453-.002 1.052 0 1.493.006 10.934.021 12.888.022 1.58 0 1.587 0 1.587.018 0 .019-.008.02-.67.022l-.672.002.671.002c.44 0 .671.005.671.011 0 .006-3.13.01-9.37.01h-9.37zm-54.954.02v-.107H276.5v.212h-34.648zm-36.834.003v-.094h36.806v.187h-36.806zm158.507.068c-6-.017-5.091-.022 8.34-.047 8.292-.015 15.959-.035 17.039-.044 2.233-.018 2.073.026-.318.088-1.505.04-11.598.04-25.061.003zm30.241-.392c.395-.056.757-.071.449-.019a6.074 6.074 0 01-.486.05l-.318.02zm-46.007.238v-.098l5.994-.024c3.296-.014 10.538-.042 16.093-.062 10.923-.041 17.572-.087 21.695-.15l2.618-.04 1.31-.222c1.58-.268 2.25-.372 2.374-.368.47.014-2.182.459-4.096.687-.432.051-1.214.136-1.739.188l-.954.095-9.052.037c-4.978.02-14.72.04-21.647.045l-12.596.01z" fill="#f06"/><path d="M394.333 458.527c.008-.013-.005-.021-.04-.023-.028 0 .066-.018.21-.037a47.659 47.659 0 002.647-.412c.681-.134 1.066-.228 1.066-.26 0-.064-.803.051-2.888.413l-1.176.205-.301-.002-.302-.002.206-.026a68.602 68.602 0 003.236-.502c.308-.055.733-.123.944-.15a20.74 20.74 0 002.14-.393c.583-.143.961-.26 2.554-.786l1.272-.418a50.577 50.577 0 008.701-3.8c.166-.092.304-.168.308-.168.003 0 .006.082.006.183v.182l-.435.233a52.27 52.27 0 01-17.35 5.674c-.786.112-.813.115-.797.09zm-3.841.356c0-.015-.154-.022-.529-.025-.471-.003-.436-.005.332-.016a17.58 17.58 0 001.178-.044c.7-.067 1.123-.109 1.506-.15.283-.03.446-.039.552-.03.082.007.128.015.103.016a63.054 63.054 0 01-2.969.258c-.123.008-.173.006-.173-.01zm22.462-6.585c.001-.088.3-.302.91-.655 1.145-.66 3.564-2.264 4.726-3.136a52.949 52.949 0 006.298-5.519c7.38-7.517 11.987-15.957 14.32-26.229.66-2.906.927-5.184 1.052-8.955.231-6.994-.611-13.06-2.649-19.077-1.192-3.517-2.143-5.53-4.926-10.42-.616-1.083-1.104-1.985-1.084-2.004.04-.041.952 1.405 1.844 2.925.808 1.377 2.493 4.778 3.114 6.284 4.494 10.904 5.252 22.36 2.23 33.74-1.46 5.5-3.943 11.006-7.168 15.896a53.327 53.327 0 01-15.975 15.72c-1.003.637-2.573 1.56-2.652 1.56-.023 0-.04-.058-.04-.13z" fill="#f06"/><path d="M431.713 376.66a535.339 535.339 0 00-1.692-2.916c-.438-.746-.139-.303.805 1.191.542.86.981 1.567.975 1.573-.006.006-.05-.046-.1-.114-.131-.187-.125-.097.014.179.067.134.117.248.11.255-.007.007-.057-.07-.112-.168z" fill="#f06"/><path d="M437.486 387.903a50.862 50.862 0 00-1.141-2.901 80.53 80.53 0 00-2.659-5.359c-.412-.744-1.578-2.658-1.868-3.068-.044-.063-.049-.074-.027-.066.008.003.014.002.014-.003 0-.004-.036-.067-.08-.14-.144-.237-.077-.149.104.137a91.707 91.707 0 011.1 1.765 55.601 55.601 0 012.99 5.67 54.683 54.683 0 011.553 3.792l.062.171c.004.009-.002.013-.02.013-.013 0-.026-.005-.028-.012z" fill="#f06"/><path d="M437.22 387.781a50.785 50.785 0 00-2.129-4.897c-.267-.537-.377-.732-.983-1.74a640.717 640.717 0 00-3.592-5.849l-.122-.196.193-.003c.106-.001.196 0 .2.005.013.013 1.053 1.815 1.567 2.714a215.075 215.075 0 012.49 4.46c.131.246.545 1.085.72 1.46a48.256 48.256 0 011.624 3.89c.107.29.107.29.093.29a.481.481 0 01-.061-.134z" fill="#f06"/><path d="M437.272 387.734c-.678-1.905-1.361-3.464-2.365-5.397a116.916 116.916 0 00-2.078-3.788c-.818-1.446-1.228-2.197-1.208-2.217.037-.037 1.28 1.953 1.93 3.092.714 1.248 2.051 3.927 2.766 5.54a48.993 48.993 0 011.154 2.925l.01.025h-.145z" fill="#f06"/><path d="M435.73 384.073a38.444 38.444 0 00-1.478-2.901 259.32 259.32 0 00-1.322-2.36l-.039-.068.018-.001c.01 0 .02 0 .022.004.005.005.125.218.38.671 1.062 1.89 1.794 3.277 2.381 4.508l.072.151.009.02h-.016c-.016 0-.016 0-.027-.024zm3.605 10.157a57.634 57.634 0 00-.58-2.317 55.053 55.053 0 00-1.265-3.996l.025-.001h.025l.08.223a53.04 53.04 0 011.777 6.162c0 .005-.01.008-.022.008-.022 0-.022-.002-.04-.08z" fill="#f06"/><path d="M439.109 394.085c-.122-.558-.34-1.46-.478-1.982a51.46 51.46 0 00-1.121-3.684c-.609-1.77-1.14-3.084-1.83-4.53a43.343 43.343 0 01-.132-.28c-.003-.007.013-.01.067-.01h.072l.059.123c.475.992.821 1.792 1.228 2.84a54.22 54.22 0 012.368 7.74c0 .004-.04.007-.092.007h-.092z" fill="#f06"/><path d="M439.132 394.19a50.811 50.811 0 00-1.492-5.388c-.658-1.952-1.222-3.365-1.962-4.918l-.13-.275c-.003-.007.013-.01.069-.01h.073l.05.107.174.37c.378.81.593 1.307.909 2.1a54.283 54.283 0 012.52 8.126c0 .004-.04.007-.093.007h-.093z" fill="#f06"/><path d="M439.128 394.3l-.067-.299a54.21 54.21 0 00-1.04-3.932 48.304 48.304 0 00-2.273-5.967c0-.002.005-.003.012-.003s.023.023.038.057l.102.22a39.896 39.896 0 011.423 3.532 51.369 51.369 0 011.824 6.394c0 .011-.016.01-.02-.001zm1.457 9.684a51.718 51.718 0 00-1.226-9.664c0-.004.009-.007.02-.007.017 0 .026.029.062.19a51.926 51.926 0 011.172 9.48c.003.022 0 .03-.012.03-.01 0-.016-.01-.016-.03z" fill="#f06"/><path d="M440.282 403.967a6.385 6.385 0 01-.012-.306 55.125 55.125 0 00-.11-2.221c-.302-4.254-1.063-8.171-2.365-12.172-.07-.214-.127-.392-.127-.395 0-.004.034-.006.074-.004l.075.003.108.331a52.65 52.65 0 011.665 6.277 51.087 51.087 0 01.984 8.498v.036h-.286z" fill="#f06"/><path d="M440.235 402.75a51.786 51.786 0 00-1-8.068 52.13 52.13 0 00-.59-2.528.46.46 0 01.084-.004h.084l.053.202a51.573 51.573 0 011.634 10.037l.024.392.005.08h-.288z" fill="#f06"/><path d="M440.212 402.844a52.978 52.978 0 00-.408-4.65 50.283 50.283 0 00-.65-3.772c-.017-.08-.02-.107-.013-.11.007-.003.014.02.026.075a51.728 51.728 0 011.064 8.44c0 .036-.013.047-.02.017zm-27.29 49.51c0-.094-.002-.177-.005-.185-.003-.01.115-.084.353-.218.704-.4 1.529-.9 2.285-1.385a3.65 3.65 0 01.28-.171 41.595 41.595 0 01-2.134 1.34c-.39.229-.667.421-.724.502a.13.13 0 00-.024.086c0 .06.02.113.042.113.07 0 1.522-.851 2.507-1.47a53.3 53.3 0 0010.827-9.026c.153-.168.193-.205.22-.208l.034-.004-.056.058-.188.203a55.687 55.687 0 01-3.093 3.1 52.598 52.598 0 01-9.59 7.028c-.341.195-.72.407-.73.407a1.4 1.4 0 01-.004-.17z" fill="#f06"/><path d="M415.76 450.43l.118-.077a53.808 53.808 0 004.552-3.327l.142-.117h.026l.024.001-.24.196a55.853 55.853 0 01-2.11 1.631 62.507 62.507 0 01-2.48 1.695.094.094 0 01.022-.02c.034-.023.022-.023-.018 0-.03.019-.045.025-.035.017zm4.83-3.531c.006-.006.15-.127.32-.268a53.984 53.984 0 003.183-2.873c.11-.107.202-.193.204-.19.004.003-.358.363-.657.65a51.59 51.59 0 01-2.736 2.455c-.219.183-.288.236-.304.236-.019 0-.02 0-.01-.01z" fill="#f06"/><circle cx="295.625" cy="312.875" r="16.396" transform="translate(-22.515 26.209) scale(1.0305)" opacity=".997" fill="#f06" filter="url(#t)"/><circle cx="296.961" cy="338.539" r="16.396" opacity=".997" fill="#f06" filter="url(#u)"/><g fill="none" stroke-miterlimit="10"><rect width="106.85" height="12.576" x="202.575" y="43.089" rx="39.713" ry="5.985" opacity=".997" stroke="#c8b7be" stroke-width="9.2"/><rect width="106.85" height="9.576" x="202.575" y="43.089" rx="38.992" ry="4.205" transform="matrix(1.01849 0 0 1.42323 -3.734 -18.263)" opacity=".997" stroke="#e3dbe2" stroke-width="2.658" filter="url(#v)"/></g></svg>