<?xml version="1.0" encoding="UTF-8" standalone="no"?>
<svg
   xmlns:dc="http://purl.org/dc/elements/1.1/"
   xmlns:cc="http://creativecommons.org/ns#"
   xmlns:rdf="http://www.w3.org/1999/02/22-rdf-syntax-ns#"
   xmlns:svg="http://www.w3.org/2000/svg"
   xmlns="http://www.w3.org/2000/svg"
   xmlns:sodipodi="http://sodipodi.sourceforge.net/DTD/sodipodi-0.dtd"
   xmlns:inkscape="http://www.inkscape.org/namespaces/inkscape"
   class="ionicon"
   viewBox="0 0 693.83624 671.2088"
   version="1.1"
   id="svg6"
   sodipodi:docname="douglaswhitelogo.svg"
   inkscape:version="1.0.1 (3bc2e813f5, 2020-09-07)"
   inkscape:export-filename="C:\Users\dougw\Dev\douglaswhite-app\src\assets\shapes.png"
   inkscape:export-xdpi="96"
   inkscape:export-ydpi="96"
   width="693.83624"
   height="671.2088">
  <metadata
     id="metadata12">
    <rdf:RDF>
      <cc:Work
         rdf:about="">
        <dc:format>image/svg+xml</dc:format>
        <dc:type
           rdf:resource="http://purl.org/dc/dcmitype/StillImage" />
        <dc:title>Flask</dc:title>
      </cc:Work>
    </rdf:RDF>
  </metadata>
  <defs
     id="defs10">
    <filter
       inkscape:collect="always"
       style="color-interpolation-filters:sRGB"
       id="filter1173"
       x="-0.11749011"
       width="1.2349802"
       y="-0.11749011"
       height="1.2349802">
      <feGaussianBlur
         inkscape:collect="always"
         stdDeviation="0.74444215"
         id="feGaussianBlur1175" />
    </filter>
    <filter
       inkscape:collect="always"
       style="color-interpolation-filters:sRGB"
       id="filter1471"
       x="-0.074035376"
       width="1.1480708"
       y="-0.074035376"
       height="1.1480708">
      <feGaussianBlur
         inkscape:collect="always"
         stdDeviation="0.79982222"
         id="feGaussianBlur1473" />
    </filter>
    <filter
       inkscape:collect="always"
       style="color-interpolation-filters:sRGB"
       id="filter2433"
       x="-0.052757543"
       width="1.1055151"
       y="-0.052757543"
       height="1.1055151">
      <feGaussianBlur
         inkscape:collect="always"
         stdDeviation="0.67550908"
         id="feGaussianBlur2435" />
    </filter>
    <filter
       inkscape:collect="always"
       style="color-interpolation-filters:sRGB"
       id="filter2513"
       x="-0.25178772"
       width="1.5035754"
       y="-0.25178772"
       height="1.5035754">
      <feGaussianBlur
         inkscape:collect="always"
         stdDeviation="1.7834964"
         id="feGaussianBlur2515" />
    </filter>
    <filter
       inkscape:collect="always"
       style="color-interpolation-filters:sRGB"
       id="filter3231"
       x="-0.1798127"
       width="1.3596255"
       y="-0.1798127"
       height="1.3596255">
      <feGaussianBlur
         inkscape:collect="always"
         stdDeviation="0.6282397"
         id="feGaussianBlur3233" />
    </filter>
    <filter
       inkscape:collect="always"
       style="color-interpolation-filters:sRGB"
       id="filter3551"
       x="-0.1594464"
       width="1.3188928"
       y="-0.1594464"
       height="1.3188928">
      <feGaussianBlur
         inkscape:collect="always"
         stdDeviation="1.0102861"
         id="feGaussianBlur3553" />
    </filter>
    <filter
       inkscape:collect="always"
       style="color-interpolation-filters:sRGB"
       id="filter3787"
       x="-0.18282206"
       width="1.3656441"
       y="-0.18282206"
       height="1.3656441">
      <feGaussianBlur
         inkscape:collect="always"
         stdDeviation="1.1583991"
         id="feGaussianBlur3789" />
    </filter>
    <filter
       inkscape:collect="always"
       style="color-interpolation-filters:sRGB"
       id="filter3931"
       x="-0.0464641"
       width="1.0929282"
       y="-0.0464641"
       height="1.0929282">
      <feGaussianBlur
         inkscape:collect="always"
         stdDeviation="0.6348471"
         id="feGaussianBlur3933" />
    </filter>
    <filter
       inkscape:collect="always"
       style="color-interpolation-filters:sRGB"
       id="filter4511"
       x="-0.0071925079"
       width="1.014385"
       y="-0.0071925079"
       height="1.014385">
      <feGaussianBlur
         inkscape:collect="always"
         stdDeviation="0.092093073"
         id="feGaussianBlur4513" />
    </filter>
    <filter
       inkscape:collect="always"
       style="color-interpolation-filters:sRGB"
       id="filter4607"
       x="-0.23436837"
       width="1.4687366"
       y="-0.23436837"
       height="1.4687366">
      <feGaussianBlur
         inkscape:collect="always"
         stdDeviation="1.6601093"
         id="feGaussianBlur4609" />
    </filter>
    <filter
       inkscape:collect="always"
       style="color-interpolation-filters:sRGB"
       id="filter4823"
       x="-0.033764828"
       width="1.0675297"
       y="-0.033764828"
       height="1.0675297">
      <feGaussianBlur
         inkscape:collect="always"
         stdDeviation="0.43232581"
         id="feGaussianBlur4825" />
    </filter>
    <filter
       inkscape:collect="always"
       style="color-interpolation-filters:sRGB"
       id="filter5111"
       x="-0.031217482"
       width="1.062435"
       y="-0.031217482"
       height="1.062435">
      <feGaussianBlur
         inkscape:collect="always"
         stdDeviation="0.4265299"
         id="feGaussianBlur5113" />
    </filter>
    <filter
       inkscape:collect="always"
       style="color-interpolation-filters:sRGB"
       id="filter5159"
       x="-0.015296566"
       width="1.0305932"
       y="-0.015296566"
       height="1.0305932">
      <feGaussianBlur
         inkscape:collect="always"
         stdDeviation="0.20899965"
         id="feGaussianBlur5161" />
    </filter>
    <filter
       inkscape:collect="always"
       style="color-interpolation-filters:sRGB"
       id="filter5343"
       x="-0.17386889"
       width="1.3477378"
       y="-0.17386889"
       height="1.3477378">
      <feGaussianBlur
         inkscape:collect="always"
         stdDeviation="1.3583507"
         id="feGaussianBlur5345" />
    </filter>
    <filter
       inkscape:collect="always"
       style="color-interpolation-filters:sRGB"
       id="filter5629"
       x="-0.0083176261"
       width="1.0166353"
       y="-0.092807606"
       height="1.1856152">
      <feGaussianBlur
         inkscape:collect="always"
         stdDeviation="0.37030605"
         id="feGaussianBlur5631" />
    </filter>
    <filter
       inkscape:collect="always"
       style="color-interpolation-filters:sRGB"
       id="filter8965"
       x="-0.38416818"
       width="1.7683363"
       y="-0.38416818"
       height="1.7683363">
      <feGaussianBlur
         inkscape:collect="always"
         stdDeviation="2.7211912"
         id="feGaussianBlur8967" />
    </filter>
    <filter
       inkscape:collect="always"
       style="color-interpolation-filters:sRGB"
       id="filter8969"
       x="-0.38416818"
       width="1.7683363"
       y="-0.38416818"
       height="1.7683363">
      <feGaussianBlur
         inkscape:collect="always"
         stdDeviation="2.7211912"
         id="feGaussianBlur8971" />
    </filter>
    <filter
       inkscape:collect="always"
       style="color-interpolation-filters:sRGB"
       id="filter8973"
       x="-0.42773363"
       width="1.8554673"
       y="-0.42773363"
       height="1.8554673">
      <feGaussianBlur
         inkscape:collect="always"
         stdDeviation="1.8713347"
         id="feGaussianBlur8975" />
    </filter>
    <filter
       inkscape:collect="always"
       style="color-interpolation-filters:sRGB"
       id="filter8977"
       x="-0.86437839"
       width="2.7287569"
       y="-0.86437839"
       height="2.7287569">
      <feGaussianBlur
         inkscape:collect="always"
         stdDeviation="3.4214978"
         id="feGaussianBlur8979" />
    </filter>
    <filter
       inkscape:collect="always"
       style="color-interpolation-filters:sRGB"
       id="filter8981"
       x="-1.1525044"
       width="3.3050091"
       y="-1.1525044"
       height="3.3050091">
      <feGaussianBlur
         inkscape:collect="always"
         stdDeviation="4.5619971"
         id="feGaussianBlur8983" />
    </filter>
    <filter
       inkscape:collect="always"
       style="color-interpolation-filters:sRGB"
       id="filter8985"
       x="-1.3310258"
       width="3.6620517"
       y="-1.3310258"
       height="3.6620517">
      <feGaussianBlur
         inkscape:collect="always"
         stdDeviation="3.3275645"
         id="feGaussianBlur8987" />
    </filter>
    <filter
       inkscape:collect="always"
       style="color-interpolation-filters:sRGB"
       id="filter8989"
       x="-0.71534765"
       width="2.4306953"
       y="-0.71534765"
       height="2.4306953">
      <feGaussianBlur
         inkscape:collect="always"
         stdDeviation="4.321892"
         id="feGaussianBlur8991" />
    </filter>
    <filter
       inkscape:collect="always"
       style="color-interpolation-filters:sRGB"
       id="filter8993"
       x="-0.66919613"
       width="2.3383923"
       y="-0.66919613"
       height="2.3383923">
      <feGaussianBlur
         inkscape:collect="always"
         stdDeviation="3.9036442"
         id="feGaussianBlur8995" />
    </filter>
  </defs>
  <sodipodi:namedview
     pagecolor="#ffffff"
     bordercolor="#666666"
     borderopacity="1"
     objecttolerance="10"
     gridtolerance="10"
     guidetolerance="10"
     inkscape:pageopacity="0"
     inkscape:pageshadow="2"
     inkscape:window-width="1920"
     inkscape:window-height="1027"
     id="namedview8"
     showgrid="false"
     inkscape:snap-global="false"
     inkscape:zoom="0.35355339"
     inkscape:cx="-769.81789"
     inkscape:cy="584.76833"
     inkscape:window-x="-8"
     inkscape:window-y="-8"
     inkscape:window-maximized="1"
     inkscape:current-layer="layer10" />
  <title
     id="title2">Flask</title>
  <g
     inkscape:groupmode="layer"
     id="layer8"
     inkscape:label="flask"
     style="display:inline"
     transform="translate(90.918115,81.859415)" />
  <g
     inkscape:groupmode="layer"
     id="layer11"
     inkscape:label="bubbles2"
     style="display:inline"
     transform="translate(90.918115,81.859415)" />
  <g
     inkscape:groupmode="layer"
     id="layer9"
     inkscape:label="bubbles"
     style="display:inline;opacity:0.997"
     transform="translate(90.918115,81.859415)" />
  <g
     inkscape:groupmode="layer"
     id="layer6"
     inkscape:label="wave1"
     style="display:inline"
     transform="translate(90.918115,81.859415)" />
  <g
     inkscape:groupmode="layer"
     id="layer7"
     inkscape:label="wave2"
     style="display:inline"
     transform="translate(90.918115,81.859415)">
    <path
       style="fill:#ff0066;stroke:none;stroke-width:1;stroke-linecap:round;stroke-miterlimit:4;stroke-dasharray:none;stroke-opacity:0.97992;paint-order:normal"
       d=""
       id="path944" />
    <path
       style="fill:#ff0066;stroke:none;stroke-width:1;stroke-linecap:round;stroke-miterlimit:4;stroke-dasharray:none;stroke-opacity:0.97992;paint-order:normal"
       d=""
       id="path976" />
    <path
       style="fill:#ff0066;stroke:none;stroke-width:1;stroke-linecap:round;stroke-miterlimit:4;stroke-dasharray:none;stroke-opacity:0.97992;paint-order:normal"
       d=""
       id="path980" />
    <path
       style="fill:#ff0066;stroke:none;stroke-width:1;stroke-linecap:round;stroke-miterlimit:4;stroke-dasharray:none;stroke-opacity:0.97992;paint-order:normal"
       d=""
       id="path982" />
    <path
       style="fill:#ff0066;stroke:none;stroke-width:1;stroke-linecap:round;stroke-miterlimit:4;stroke-dasharray:none;stroke-opacity:0.97992;paint-order:normal"
       d=""
       id="path986" />
    <path
       style="fill:#ff0066;stroke:none;stroke-width:1;stroke-linecap:round;stroke-miterlimit:4;stroke-dasharray:none;stroke-opacity:0.97992;paint-order:normal"
       d=""
       id="path992" />
    <path
       style="fill:#ff0066;stroke:none;stroke-width:1;stroke-linecap:round;stroke-miterlimit:4;stroke-dasharray:none;stroke-opacity:0.97992;paint-order:normal"
       d=""
       id="path994" />
    <path
       style="fill:#ff0066;stroke:none;stroke-width:1;stroke-linecap:round;stroke-miterlimit:4;stroke-dasharray:none;stroke-opacity:0.97992;paint-order:normal"
       d=""
       id="path1004" />
    <path
       style="fill:#ff0066;stroke:none;stroke-width:1;stroke-linecap:round;stroke-miterlimit:4;stroke-dasharray:none;stroke-opacity:0.97992;paint-order:normal"
       d=""
       id="path1010" />
    <path
       style="fill:#ff0066;stroke:none;stroke-width:1;stroke-linecap:round;stroke-miterlimit:4;stroke-dasharray:none;stroke-opacity:0.97992;paint-order:normal"
       d=""
       id="path1022" />
    <path
       style="fill:#ff0066;stroke:none;stroke-width:1;stroke-linecap:round;stroke-miterlimit:4;stroke-dasharray:none;stroke-opacity:0.97992;paint-order:normal"
       d=""
       id="path1024" />
    <path
       style="fill:#ff0066;stroke:none;stroke-width:1;stroke-linecap:round;stroke-miterlimit:4;stroke-dasharray:none;stroke-opacity:0.97992;paint-order:normal"
       d=""
       id="path1032" />
    <path
       style="fill:#ff0066;stroke:none;stroke-width:1;stroke-linecap:round;stroke-miterlimit:4;stroke-dasharray:none;stroke-opacity:0.97992;paint-order:normal"
       d=""
       id="path1036" />
    <path
       style="fill:#ff0066;stroke:none;stroke-width:1;stroke-linecap:round;stroke-miterlimit:4;stroke-dasharray:none;stroke-opacity:0.97992;paint-order:normal"
       d=""
       id="path1038" />
    <path
       style="fill:#ff0066;stroke:none;stroke-width:1;stroke-linecap:round;stroke-miterlimit:4;stroke-dasharray:none;stroke-opacity:0.97992;paint-order:normal"
       d=""
       id="path1042" />
  </g>
  <g
     inkscape:groupmode="layer"
     id="layer10"
     inkscape:label="lid"
     style="display:inline"
     transform="translate(90.918115,81.859415)">
    <ellipse
       style="fill:#5d536c;fill-opacity:1;stroke:#e3dbe2;stroke-width:3.7;stroke-linecap:round;stroke-miterlimit:10;stroke-dasharray:none;stroke-opacity:1;paint-order:normal"
       id="path9297"
       cx="256"
       cy="253.74498"
       rx="345.06812"
       ry="333.75439" />
    <g
       id="g9295">
      <path
         fill="none"
         stroke="currentColor"
         stroke-linecap="round"
         stroke-miterlimit="10"
         stroke-width="32"
         d="m 208.58928,53.091253 v 92.336057 c -9.9e-4,11.94941 -3.38474,23.65442 -9.7587,33.76173 L 75.454064,374.59815 c -24.505414,38.8092 3.378014,89.4024 49.257756,89.4024 h 262.57635 c 45.87975,0 73.76318,-50.5932 49.25776,-89.4024 L 313.15954,179.18904 c -6.37048,-10.10835 -9.75034,-21.81328 -9.74882,-33.76173 V 53.091253"
         id="path4"
         sodipodi:nodetypes="ccccsscccc"
         style="display:inline;stroke:#c8b7be;stroke-width:10;stroke-linecap:butt;stroke-miterlimit:10;stroke-dasharray:none;paint-order:normal" />
      <path
         fill="none"
         stroke="currentColor"
         stroke-linecap="round"
         stroke-miterlimit="10"
         stroke-width="32"
         d="m 209.71554,53.091253 v 92.336057 c -9.9e-4,11.94941 -3.41141,23.65442 -9.83563,33.76173 L 75.530876,374.59815 c -24.698582,38.8092 3.40464,89.4024 49.646034,89.4024 h 264.64615 c 46.24139,0 74.34463,-50.5932 49.64603,-89.4024 l -124.359,-195.40911 c -6.42069,-10.10835 -9.82719,-21.81328 -9.82566,-33.76173 V 53.091253"
         id="path5563"
         sodipodi:nodetypes="ccccsscccc"
         style="display:inline;stroke:#e3dbe2;stroke-width:3.7;stroke-linecap:butt;stroke-miterlimit:10;stroke-dasharray:none;paint-order:normal" />
      <circle
         style="display:inline;opacity:0.997;fill:#ff0066;fill-opacity:1;stroke:none;stroke-width:2.9;stroke-linecap:round;stroke-miterlimit:4;stroke-dasharray:none;stroke-opacity:1;paint-order:normal;filter:url(#filter1471)"
         id="path1055"
         cx="175.8708"
         cy="284.53857"
         r="12.963892" />
      <circle
         style="display:inline;opacity:0.997;fill:#ff0066;stroke:none;stroke-width:1;stroke-linecap:round;stroke-miterlimit:4;stroke-dasharray:none;stroke-opacity:0.97992;paint-order:normal;filter:url(#filter5159)"
         id="path1057"
         cx="289.10724"
         cy="334.35724"
         r="16.395809" />
      <circle
         style="display:inline;opacity:0.997;fill:#ff0066;stroke:none;stroke-width:1;stroke-linecap:round;stroke-miterlimit:4;stroke-dasharray:none;stroke-opacity:0.97992;paint-order:normal;filter:url(#filter3231)"
         id="path1059"
         cx="271.1886"
         cy="210.31686"
         r="4.1926274" />
      <circle
         style="display:inline;opacity:0.997;fill:#ff0066;fill-opacity:1;stroke:none;stroke-width:0.478697;stroke-linecap:round;stroke-miterlimit:4;stroke-dasharray:none;stroke-opacity:1;paint-order:normal;filter:url(#filter3551)"
         id="path1061"
         cx="243"
         cy="216.75"
         r="7.6034532"
         transform="matrix(0.83560101,0,0,0.83560101,-11.669841,70.988819)" />
      <circle
         style="display:inline;opacity:0.997;fill:#ff0066;fill-opacity:1;stroke:none;stroke-width:2.2348;stroke-linecap:round;stroke-miterlimit:4;stroke-dasharray:none;stroke-opacity:1;paint-order:normal;filter:url(#filter1173)"
         id="circle1177"
         cx="210"
         cy="231.75"
         r="7.6034532"
         transform="matrix(0.67120203,0,0,0.67120203,69.047574,76.19893)" />
      <circle
         style="display:inline;opacity:0.997;fill:#c83771;fill-opacity:1;stroke:none;stroke-width:2.57644;stroke-linecap:round;stroke-miterlimit:4;stroke-dasharray:none;stroke-opacity:1;paint-order:normal;filter:url(#filter1173)"
         id="circle1179"
         cx="270.5"
         cy="247.25"
         r="7.6034532"
         transform="matrix(1.164399,0,0,1.164399,-44.469926,-40.64765)" />
      <circle
         style="display:inline;opacity:0.997;fill:#ff0066;fill-opacity:1;stroke:none;stroke-width:1.5;stroke-linecap:round;stroke-miterlimit:4;stroke-dasharray:none;stroke-opacity:1;paint-order:normal;filter:url(#filter3787)"
         id="circle1181"
         cx="307.75"
         cy="227.5"
         r="7.6034532" />
      <circle
         style="display:inline;opacity:0.997;fill:#c83771;fill-opacity:1;stroke:none;stroke-width:1;stroke-linecap:round;stroke-miterlimit:4;stroke-dasharray:none;stroke-opacity:0.97992;paint-order:normal;filter:url(#filter2433)"
         id="path1053"
         cx="294.63721"
         cy="293.56497"
         r="15.364834" />
      <circle
         style="display:inline;opacity:0.997;fill:#c83771;fill-opacity:1;stroke:none;stroke-width:1;stroke-linecap:round;stroke-miterlimit:4;stroke-dasharray:none;stroke-opacity:0.97992;paint-order:normal;filter:url(#filter2433)"
         id="circle5351"
         cx="236.3009"
         cy="271.99823"
         r="15.364834" />
      <circle
         style="display:inline;opacity:0.997;fill:#c83771;fill-opacity:1;stroke:none;stroke-width:1;stroke-linecap:round;stroke-miterlimit:4;stroke-dasharray:none;stroke-opacity:0.97992;paint-order:normal;filter:url(#filter4511)"
         id="circle4515"
         cx="186.125"
         cy="320.75"
         r="15.364834" />
      <circle
         style="display:inline;opacity:0.997;fill:#e9afc6;fill-opacity:1;stroke:none;stroke-width:1.25567;stroke-linecap:round;stroke-miterlimit:4;stroke-dasharray:none;stroke-opacity:1;paint-order:normal;filter:url(#filter8973)"
         id="path1475"
         cx="233.5"
         cy="270.75"
         r="5.25"
         transform="matrix(2.3095238,0,0,2.3095238,-359.77801,-338.38999)" />
      <circle
         style="display:inline;opacity:0.997;fill:#e9afc6;fill-opacity:1;stroke:none;stroke-width:1.80645;stroke-linecap:round;stroke-miterlimit:4;stroke-dasharray:none;stroke-opacity:1;paint-order:normal;filter:url(#filter8993)"
         id="path1627"
         cx="272.5"
         cy="248.5"
         r="7"
         transform="matrix(1.1071429,0,0,1.1071429,-29.196428,-26.625)" />
      <circle
         style="display:inline;opacity:0.997;fill:#e9afc6;fill-opacity:1;stroke:none;stroke-width:1.25926;stroke-linecap:round;stroke-miterlimit:4;stroke-dasharray:none;stroke-opacity:1;paint-order:normal;filter:url(#filter8965)"
         id="path2243"
         cx="253.25"
         cy="306.875"
         r="8.5"
         transform="matrix(1.5882353,0,0,1.5882353,-103.2084,-192.19973)" />
      <circle
         style="display:inline;opacity:0.997;fill:#e9afc6;fill-opacity:1;stroke:none;stroke-width:0.316667;stroke-linecap:round;stroke-miterlimit:4;stroke-dasharray:none;stroke-opacity:1;paint-order:normal;filter:url(#filter8977)"
         id="path2517"
         cx="243.5"
         cy="217.5"
         r="4.75"
         transform="matrix(1.2631579,0,0,1.2631579,-115.19775,-21.02795)" />
      <circle
         style="display:inline;opacity:0.997;fill:#e9afc6;fill-opacity:1;stroke:none;stroke-width:0.4;stroke-linecap:round;stroke-miterlimit:4;stroke-dasharray:none;stroke-opacity:1;paint-order:normal;filter:url(#filter8989)"
         id="path2523"
         cx="308.75"
         cy="229"
         r="7.25" />
      <circle
         style="display:inline;opacity:0.997;fill:#e9afc6;fill-opacity:1;stroke:none;stroke-width:0.307973;stroke-linecap:round;stroke-miterlimit:4;stroke-dasharray:none;stroke-opacity:1;paint-order:normal;filter:url(#filter8985)"
         id="path2525"
         cx="188"
         cy="261"
         r="3"
         transform="matrix(1.2988154,0,0,1.2988154,27.864834,-128.04899)" />
      <circle
         style="display:inline;opacity:0.997;fill:#de87aa;fill-opacity:1;stroke:none;stroke-width:0.400001;stroke-linecap:round;stroke-miterlimit:4;stroke-dasharray:none;stroke-opacity:1;paint-order:normal;filter:url(#filter5343)"
         id="path2527"
         cx="286.44302"
         cy="329.81433"
         r="9.375" />
      <circle
         style="display:inline;opacity:0.997;fill:#e9afc6;fill-opacity:1;stroke:none;stroke-width:0.422222;stroke-linecap:round;stroke-miterlimit:4;stroke-dasharray:none;stroke-opacity:1;paint-order:normal;filter:url(#filter8981)"
         id="circle2529"
         cx="210.5"
         cy="232"
         r="4.75"
         transform="matrix(0.94736842,0,0,0.94736842,11.578948,13.460527)" />
      <circle
         style="display:inline;opacity:0.997;fill:#e9afc6;fill-opacity:1;stroke:none;stroke-width:1.25926;stroke-linecap:round;stroke-miterlimit:4;stroke-dasharray:none;stroke-opacity:1;paint-order:normal;filter:url(#filter8969)"
         id="circle5353"
         cx="253.25"
         cy="306.875"
         r="8.5"
         transform="matrix(1.5882353,0,0,1.5882353,-160.54471,-211.76649)" />
      <circle
         style="display:inline;opacity:0.997;fill:#d35f8d;fill-opacity:1;stroke:none;stroke-width:2.56604;stroke-linecap:round;stroke-miterlimit:4;stroke-dasharray:none;stroke-opacity:1;paint-order:normal;filter:url(#filter4607)"
         id="circle4461"
         cx="253.25"
         cy="306.875"
         r="8.5"
         transform="matrix(0.77941177,0,0,0.77941177,-10.261032,74.44302)" />
      <path
         style="display:inline;fill:#c83771;stroke:none;stroke-width:1;stroke-linecap:butt;stroke-miterlimit:4;stroke-dasharray:none;stroke-opacity:0.97992;paint-order:normal"
         d="m 119.35886,458.53782 c -3.70271,-0.39653 -8.79318,-1.53869 -12.17706,-2.73219 -15.503104,-5.46798 -27.537873,-17.85011 -32.842749,-33.7907 -4.3233,-12.99106 -3.476773,-26.5551 2.411699,-38.6431 1.206747,-2.47724 12.284129,-20.47665 24.61641,-39.9987 l 9.85441,-17.54049 45.56287,-8.65576 c 59.96554,-9.201 169.00572,37.68961 238.40011,2.20134 8.70525,12.51868 5.13817,8.95638 13.84342,21.47505 14.44144,20.76767 25.16917,40.12662 25.93248,41.63272 3.48608,6.87847 5.2814,14.59548 5.30737,22.81319 0.047,14.88681 -5.60507,28.22042 -16.36692,38.61035 -8.48992,8.19652 -18.65467,13.05374 -30.30803,14.48266 -3.35761,0.4117 -270.42515,0.55354 -274.23401,0.14563 z"
         id="path912"
         sodipodi:nodetypes="sssssccccsssss" />
      <circle
         style="display:inline;opacity:0.997;fill:#c83771;fill-opacity:1;stroke:none;stroke-width:1;stroke-linecap:round;stroke-miterlimit:4;stroke-dasharray:none;stroke-opacity:0.97992;paint-order:normal;filter:url(#filter4823)"
         id="circle4517"
         cx="191.5"
         cy="325.625"
         r="15.364834" />
      <circle
         style="display:inline;opacity:0.997;fill:#c83771;fill-opacity:1;stroke:none;stroke-width:1;stroke-linecap:round;stroke-miterlimit:4;stroke-dasharray:none;stroke-opacity:0.97992;paint-order:normal;filter:url(#filter4511)"
         id="circle4465"
         cx="180.125"
         cy="324.375"
         r="15.364834" />
      <path
         style="display:inline;fill:none;stroke:none;stroke-width:1;stroke-linecap:butt;stroke-miterlimit:4;stroke-dasharray:none;stroke-opacity:0.97992;paint-order:normal"
         d="m 119.35886,458.53782 c -3.70271,-0.39653 -8.79318,-1.53869 -12.17706,-2.73219 -15.503104,-5.46798 -27.537873,-17.85011 -32.842749,-33.7907 -4.275903,-12.84863 -3.493401,-26.29292 2.229078,-38.29811 1.218723,-2.55676 26.879151,-43.59611 64.827341,-103.67996 34.54559,-54.69646 63.86627,-101.54288 65.15707,-104.10314 2.62608,-5.20877 4.53624,-10.62957 5.96478,-16.92734 l 0.95992,-4.23183 0.14115,-47.92554 c 0.12223,-41.503056 0.22332,-47.925527 0.75432,-47.925527 0.33725,0 3.71051,0.320771 7.49613,0.712825 5.68227,0.588479 11.60752,0.713715 33.9667,0.717924 25.4748,0.0048 28.74652,-0.09953 39.87293,-1.271477 l 2.63278,-0.27731 0.13432,48.196145 c 0.13413,48.12808 0.13565,48.20198 1.07974,52.32696 1.3389,5.85002 3.22446,11.27824 5.62102,16.18199 1.1375,2.32751 19.94338,32.51107 41.79084,67.07458 21.84747,34.56352 39.69376,62.88302 39.65842,62.93223 -0.31486,0.43854 -33.99207,8.93903 -49.75041,12.55754 -81.15433,18.63503 -160.30201,26.6394 -213.70767,21.61269 -6.52423,-0.61408 -15.19642,-1.73653 -16.60995,-2.14985 -0.52519,-0.15356 -0.74057,0.0222 -0.74057,0.60426 0,0.91322 -0.0577,0.89927 8.14821,1.96842 20.9776,2.73318 54.42914,3.06585 85.37534,0.84905 53.10969,-3.80446 111.865,-14.0906 175.40956,-30.70852 6.28428,-1.64343 11.63022,-3.24832 11.87988,-3.56641 0.35069,-0.44683 5.69127,7.71691 23.4848,35.89947 12.66698,20.06279 23.73557,37.81693 24.59686,39.45364 3.63061,6.89922 5.5296,14.84955 5.55618,23.26154 0.047,14.88681 -5.60507,28.22042 -16.36692,38.61035 -8.48992,8.19652 -18.65467,13.05374 -30.30803,14.48266 -3.35761,0.4117 -270.42515,0.55354 -274.23401,0.14563 z"
         id="path924" />
      <path
         style="display:inline;fill:none;stroke:none;stroke-width:1;stroke-linecap:butt;stroke-miterlimit:4;stroke-dasharray:none;stroke-opacity:0.97992;paint-order:normal"
         d="m 119.35886,458.53782 c -3.70271,-0.39653 -8.79318,-1.53869 -12.17706,-2.73219 -15.503104,-5.46798 -27.537873,-17.85011 -32.842749,-33.7907 -4.275903,-12.84863 -3.493401,-26.29292 2.229078,-38.29811 1.218723,-2.55676 26.879151,-43.59611 64.827341,-103.67996 34.54559,-54.69646 63.86627,-101.54288 65.15707,-104.10314 2.62608,-5.20877 4.53624,-10.62957 5.96478,-16.92734 l 0.95992,-4.23183 0.14115,-47.92554 c 0.12223,-41.503056 0.22332,-47.925527 0.75432,-47.925527 0.33725,0 3.71051,0.320771 7.49613,0.712825 5.68227,0.588479 11.60752,0.713715 33.9667,0.717924 25.4748,0.0048 28.74652,-0.09953 39.87293,-1.271477 l 2.63278,-0.27731 0.13432,48.196145 c 0.13413,48.12808 0.13565,48.20198 1.07974,52.32696 1.3389,5.85002 3.22446,11.27824 5.62102,16.18199 1.1375,2.32751 19.94338,32.51107 41.79084,67.07458 21.84747,34.56352 39.69376,62.88302 39.65842,62.93223 -0.31486,0.43854 -33.99207,8.93903 -49.75041,12.55754 -81.15433,18.63503 -160.30201,26.6394 -213.70767,21.61269 -6.52423,-0.61408 -15.19642,-1.73653 -16.60995,-2.14985 -0.52519,-0.15356 -0.74057,0.0222 -0.74057,0.60426 0,0.91322 -0.0577,0.89927 8.14821,1.96842 20.9776,2.73318 54.42914,3.06585 85.37534,0.84905 53.10969,-3.80446 111.865,-14.0906 175.40956,-30.70852 6.28428,-1.64343 11.63022,-3.24832 11.87988,-3.56641 0.35069,-0.44683 5.69127,7.71691 23.4848,35.89947 12.66698,20.06279 23.73557,37.81693 24.59686,39.45364 3.63061,6.89922 5.5296,14.84955 5.55618,23.26154 0.047,14.88681 -5.60507,28.22042 -16.36692,38.61035 -8.48992,8.19652 -18.65467,13.05374 -30.30803,14.48266 -3.35761,0.4117 -270.42515,0.55354 -274.23401,0.14563 z"
         id="path926" />
      <path
         style="display:inline;fill:none;stroke:none;stroke-width:1;stroke-linecap:butt;stroke-miterlimit:4;stroke-dasharray:none;stroke-opacity:0.97992;paint-order:normal"
         d="m 119.35886,458.53782 c -3.70271,-0.39653 -8.79318,-1.53869 -12.17706,-2.73219 -15.503104,-5.46798 -27.537873,-17.85011 -32.842749,-33.7907 -4.275903,-12.84863 -3.493401,-26.29292 2.229078,-38.29811 1.218723,-2.55676 26.879151,-43.59611 64.827341,-103.67996 34.54559,-54.69646 63.86627,-101.54288 65.15707,-104.10314 2.62608,-5.20877 4.53624,-10.62957 5.96478,-16.92734 l 0.95992,-4.23183 0.14115,-47.92554 c 0.12223,-41.503056 0.22332,-47.925527 0.75432,-47.925527 0.33725,0 3.71051,0.320771 7.49613,0.712825 5.68227,0.588479 11.60752,0.713715 33.9667,0.717924 25.4748,0.0048 28.74652,-0.09953 39.87293,-1.271477 l 2.63278,-0.27731 0.13432,48.196145 c 0.13413,48.12808 0.13565,48.20198 1.07974,52.32696 1.3389,5.85002 3.22446,11.27824 5.62102,16.18199 1.1375,2.32751 19.94338,32.51107 41.79084,67.07458 21.84747,34.56352 39.69376,62.88302 39.65842,62.93223 -0.31486,0.43854 -33.99207,8.93903 -49.75041,12.55754 -81.15433,18.63503 -160.30201,26.6394 -213.70767,21.61269 -6.52423,-0.61408 -15.19642,-1.73653 -16.60995,-2.14985 -0.52519,-0.15356 -0.74057,0.0222 -0.74057,0.60426 0,0.91322 -0.0577,0.89927 8.14821,1.96842 20.9776,2.73318 54.42914,3.06585 85.37534,0.84905 53.10969,-3.80446 111.865,-14.0906 175.40956,-30.70852 6.28428,-1.64343 11.63022,-3.24832 11.87988,-3.56641 0.35069,-0.44683 5.69127,7.71691 23.4848,35.89947 12.66698,20.06279 23.73557,37.81693 24.59686,39.45364 3.63061,6.89922 5.5296,14.84955 5.55618,23.26154 0.047,14.88681 -5.60507,28.22042 -16.36692,38.61035 -8.48992,8.19652 -18.65467,13.05374 -30.30803,14.48266 -3.35761,0.4117 -270.42515,0.55354 -274.23401,0.14563 z"
         id="path928" />
      <g
         id="g1047"
         style="display:inline">
        <path
           style="fill:#ff0066;stroke:none;stroke-width:1;stroke-linecap:round;stroke-miterlimit:4;stroke-dasharray:none;stroke-opacity:0.97992;paint-order:normal"
           d="m 115.68583,458.02021 c -16.018013,-2.6927 -30.191985,-13.07465 -37.786842,-27.67757 -4.390467,-8.44172 -6.147767,-15.50989 -6.158909,-24.77223 -0.01029,-8.55638 1.669477,-15.78877 5.356647,-23.0635 1.490444,-2.94062 25.893294,-42.10496 26.984304,-43.30734 0.17678,-0.19482 2.19964,-0.0596 4.49526,0.30047 30.44818,5.93382 68.70734,18.93261 125.12764,8.66281 62.17713,-11.31768 142.17471,-45.63182 161.48062,-28.78463 1.09532,1.25249 38.38785,60.51401 39.71356,63.12869 3.63512,7.16942 5.3527,14.48361 5.36629,22.85191 0.0105,6.45338 -0.55478,10.26333 -2.38583,16.08097 -5.16993,16.42597 -18.4051,29.78664 -34.54033,34.86786 -7.99069,2.51639 1.13429,2.37265 -147.76367,2.32752 -112.73611,-0.0342 -137.07022,-0.14115 -139.88874,-0.61496 z"
           id="path934"
           sodipodi:nodetypes="ssssscscssssss" />
      </g>
      <path
         style="display:inline;fill:#ff0066;stroke:none;stroke-width:0.999999;stroke-linecap:round;stroke-miterlimit:4;stroke-dasharray:none;stroke-opacity:0.97992;paint-order:normal"
         d="m 77.726386,430.73729 c -2.98429,-5.55683 -5.024448,-11.8846 -5.879711,-18.23656 -0.345813,-2.56832 -0.479158,-4.92064 -0.436299,-7.69665 0.03176,-2.05673 0.06452,-2.64868 0.2489,-4.49633 0.741842,-7.43404 3.234002,-14.94257 7.15374,-21.55323 0.819133,-1.38147 12.434609,-19.7438 12.506905,-19.77155 0.04018,-0.0154 0.08493,-0.0162 0.09944,-0.002 0.01452,0.0145 -1.192099,1.98725 -2.681373,4.38384 -5.930655,9.54382 -10.248991,16.60697 -11.380063,18.61344 -0.651687,1.15606 -1.574304,3.15937 -2.290017,4.9724 -1.814357,4.59609 -2.917105,9.5573 -3.368622,15.15526 -0.106052,1.31485 -0.08782,5.73791 0.02941,7.13611 0.448038,5.34356 1.396487,9.79905 3.007641,14.12886 0.864203,2.32246 2.195642,5.27016 3.339096,7.39249 l 0.391875,0.72735 h -0.168052 c -0.162004,0 -0.182625,-0.0271 -0.572878,-0.7538 z"
         id="path946" />
      <path
         style="display:inline;fill:#ff0066;stroke:none;stroke-width:1;stroke-linecap:round;stroke-miterlimit:4;stroke-dasharray:none;stroke-opacity:0.97992;paint-order:normal"
         d="m 123.66203,458.97886 c -1.87051,-0.0308 -3.96876,-0.18367 -5.95102,-0.43351 -8.64667,-1.08981 -16.77785,-4.2617 -23.817297,-9.29088 -1.834486,-1.31061 -3.441742,-2.62006 -5.210447,-4.24504 -0.574665,-0.52796 -2.203009,-2.15079 -2.763437,-2.75407 -2.370336,-2.55157 -4.504081,-5.33341 -6.299697,-8.21313 -0.460198,-0.73804 -1.21229,-2.0023 -1.21229,-2.03785 0,-0.007 0.0814,-0.0119 0.180897,-0.0119 h 0.180897 l 0.273659,0.46947 c 7.024378,12.05053 18.383664,20.82145 31.711635,24.48571 1.65096,0.4539 4.18804,0.99966 5.22367,1.12369 0.13092,0.0157 0.44633,0.063 0.7009,0.10519 1.6439,0.27235 2.4543,0.36736 3.38547,0.39693 0.87014,0.0276 5.23815,0.0688 10.16301,0.0959 l 3.24662,0.0178 v 0.15486 0.15485 l -4.71453,-0.006 c -2.59299,-0.003 -4.88711,-0.009 -5.09804,-0.0122 z"
         id="path948" />
      <path
         style="display:inline;fill:#ff0066;stroke:none;stroke-width:1;stroke-linecap:round;stroke-miterlimit:4;stroke-dasharray:none;stroke-opacity:0.97992;paint-order:normal"
         d="m 276.52104,458.87847 v -0.11553 l 7.52064,-0.006 c 4.13635,-0.003 8.69993,-0.009 10.14129,-0.0121 l 2.62065,-0.006 v 0.1276 0.1276 h -10.14129 -10.14129 z"
         id="path950" />
      <path
         style="display:inline;fill:#ff0066;stroke:none;stroke-width:1;stroke-linecap:round;stroke-miterlimit:4;stroke-dasharray:none;stroke-opacity:0.97992;paint-order:normal"
         d="m 133.47707,458.83632 v -0.14954 l 6.12955,0.0186 c 4.56661,0.0139 27.15824,0.0617 32.25451,0.0682 l 0.52237,6.7e-4 v 0.1058 0.10579 h -19.45322 -19.45321 z"
         id="path952" />
      <path
         style="display:inline;fill:#ff0066;stroke:none;stroke-width:1;stroke-linecap:round;stroke-miterlimit:4;stroke-dasharray:none;stroke-opacity:0.97992;paint-order:normal"
         d="m 167.27619,458.99167 5.11272,-0.002 v -0.10725 -0.10725 l -0.11922,-0.003 c -0.0656,-0.002 1.83539,-0.004 4.22437,-0.005 2.38898,-0.001 4.70653,7.6e-4 5.15013,0.004 l 0.80653,0.006 v 0.11067 0.11067 l -10.14363,-0.002 c -5.57899,-10e-4 -7.8429,-0.003 -5.0309,-0.005 z"
         id="path954" />
      <path
         style="display:inline;fill:#ff0066;stroke:none;stroke-width:1;stroke-linecap:round;stroke-miterlimit:4;stroke-dasharray:none;stroke-opacity:0.97992;paint-order:normal"
         d="m 182.46194,458.89369 v -0.1058 h 11.26726 11.26726 v 0.1058 0.1058 H 193.7292 182.46194 Z"
         id="path956" />
      <path
         style="display:inline;fill:#ff0066;stroke:none;stroke-width:1;stroke-linecap:round;stroke-miterlimit:4;stroke-dasharray:none;stroke-opacity:0.97992;paint-order:normal"
         d="m 296.84719,458.86688 c 0.0327,-0.0327 19.09585,-0.10588 42.36243,-0.1625 23.26659,-0.0566 45.15937,-0.1453 48.65064,-0.19706 l 6.34775,-0.0941 1.85143,-0.32283 c 2.15806,-0.37629 2.93395,-0.41521 1.16779,-0.0586 -1.38052,0.27876 -4.17118,0.63529 -6.18201,0.78979 -1.44433,0.11098 -94.30836,0.15561 -94.19803,0.0453 z"
         id="path958" />
      <path
         style="display:inline;fill:#ff0066;stroke:none;stroke-width:1;stroke-linecap:round;stroke-miterlimit:4;stroke-dasharray:none;stroke-opacity:0.97992;paint-order:normal"
         d="m 298.83952,458.86917 -0.26183,-0.0551 0.29924,-0.002 c 0.16458,-9.5e-4 0.50122,0.0233 0.74809,0.054 l 0.44885,0.0557 -0.48626,0.001 c -0.26744,6.3e-4 -0.60408,-0.0237 -0.74809,-0.054 z"
         id="path962" />
      <path
         style="display:inline;fill:#ff0066;stroke:none;stroke-width:1;stroke-linecap:round;stroke-miterlimit:4;stroke-dasharray:none;stroke-opacity:0.97992;paint-order:normal"
         d="m 319.54905,458.96268 c 12.52173,-0.0104 32.98946,-0.0104 45.48386,0 12.49439,0.0104 2.24935,0.019 -22.76677,0.019 -25.01613,0 -35.23882,-0.009 -22.71709,-0.019 z"
         id="path964" />
      <path
         style="display:inline;fill:#ff0066;stroke:none;stroke-width:1;stroke-linecap:round;stroke-miterlimit:4;stroke-dasharray:none;stroke-opacity:0.97992;paint-order:normal"
         d="m 299.30717,458.91023 c -0.34697,-0.02 -0.60294,-0.0269 -1.00992,-0.0271 -0.24687,-1.4e-4 -0.64874,-0.003 -0.89303,-0.007 l -0.44418,-0.007 0.31326,-0.006 c 0.17229,-0.003 0.53248,-0.006 0.80042,-0.007 0.26794,-7.3e-4 0.52673,-0.004 0.5751,-0.008 l 0.0879,-0.007 -0.0514,-0.0119 c -0.0443,-0.0102 -0.013,-0.0113 0.22443,-0.008 0.15172,0.002 0.31794,0.009 0.36937,0.0142 0.0636,0.007 0.3325,0.008 0.8416,0.005 1.53065,-0.011 8.47857,-0.0406 13.51938,-0.0575 l 1.90529,-0.006 v 0.0716 0.0716 l -1.8071,-10e-5 c -2.20514,-1.2e-4 -11.41249,-0.0159 -12.86013,-0.0221 -0.87782,-0.004 -1.03446,-0.002 -0.96784,0.008 0.0746,0.0113 0.0623,0.012 -0.20105,0.0118 -0.1543,-1.5e-4 -0.33524,-0.003 -0.4021,-0.007 z"
         id="path966" />
      <path
         style="display:inline;fill:#ff0066;stroke:none;stroke-width:1;stroke-linecap:round;stroke-miterlimit:4;stroke-dasharray:none;stroke-opacity:0.97992;paint-order:normal"
         d="m 296.80574,458.87026 v -0.12484 l 3.46226,-0.006 c 1.90424,-0.003 5.66093,-0.008 8.34821,-0.0108 2.68728,-0.003 5.34569,-0.007 5.90757,-0.0102 l 1.02161,-0.005 v 0.0289 0.0289 l -0.60548,4e-5 c -0.93322,7e-5 -9.00162,0.0324 -12.85546,0.0514 -1.78413,0.009 -2.75015,0.0104 -2.80533,0.004 -0.10643,-0.0115 -0.71298,-0.0234 -0.704,-0.0138 0.004,0.004 0.031,0.0121 0.0608,0.0182 0.0439,0.009 -0.11257,0.0124 -0.83426,0.0182 -0.4886,0.004 -0.90519,0.0103 -0.92576,0.0141 -0.0706,0.0132 0.23493,0.0207 1.22967,0.0299 0.53746,0.005 1.01296,0.0128 1.05668,0.0174 0.126,0.0132 0.91354,0.0232 0.90238,0.0115 -0.005,-0.005 -0.0262,-0.0118 -0.0468,-0.0142 -0.0206,-0.002 0.45283,-0.002 1.05201,-1.4e-4 1.49289,0.006 10.93437,0.0216 12.88818,0.0218 1.57933,1.1e-4 1.58735,2.1e-4 1.58735,0.0188 0,0.0184 -0.008,0.0187 -0.67094,0.0211 l -0.67094,0.002 0.67094,0.002 c 0.43955,10e-4 0.67094,0.005 0.67094,0.0116 0,0.006 -3.12951,0.009 -9.36982,0.009 h -9.36983 z"
         id="path968" />
      <path
         style="display:inline;fill:#ff0066;stroke:none;stroke-width:1;stroke-linecap:round;stroke-miterlimit:4;stroke-dasharray:none;stroke-opacity:0.97992;paint-order:normal"
         d="m 241.85159,458.8891 v -0.1058 h 17.32407 17.32408 v 0.1058 0.10579 h -17.32408 -17.32407 z"
         id="path970" />
      <path
         style="display:inline;fill:#ff0066;stroke:none;stroke-width:1;stroke-linecap:round;stroke-miterlimit:4;stroke-dasharray:none;stroke-opacity:0.97992;paint-order:normal"
         d="m 205.01752,458.89261 v -0.0935 h 18.40301 18.40301 v 0.0935 0.0935 h -18.40301 -18.40301 z"
         id="path972" />
      <path
         style="display:inline;fill:#ff0066;stroke:none;stroke-width:1;stroke-linecap:round;stroke-miterlimit:4;stroke-dasharray:none;stroke-opacity:0.97992;paint-order:normal"
         d="m 363.52462,458.9612 c -5.9994,-0.0168 -5.09078,-0.0219 8.3412,-0.0469 8.2907,-0.0154 15.95769,-0.0354 17.03774,-0.0443 2.23377,-0.0185 2.07383,0.026 -0.31794,0.0885 -1.50508,0.0393 -11.59806,0.0404 -25.061,0.003 z"
         id="path974" />
      <path
         style="display:inline;fill:#ff0066;stroke:none;stroke-width:1;stroke-linecap:round;stroke-miterlimit:4;stroke-dasharray:none;stroke-opacity:0.97992;paint-order:normal"
         d="m 393.76615,458.56901 c 0.39533,-0.0561 0.75699,-0.0712 0.44885,-0.0188 -0.0926,0.0158 -0.31139,0.0378 -0.48626,0.0489 l -0.31794,0.0203 z"
         id="path978" />
      <path
         style="display:inline;fill:#ff0066;stroke:none;stroke-width:1;stroke-linecap:round;stroke-miterlimit:4;stroke-dasharray:none;stroke-opacity:0.97992;paint-order:normal"
         d="m 347.75862,458.80696 v -0.098 l 5.99407,-0.0244 c 3.29674,-0.0134 10.53872,-0.0413 16.09328,-0.0619 10.92333,-0.0407 17.57213,-0.0863 21.69461,-0.149 l 2.61831,-0.0398 1.30916,-0.22244 c 1.5816,-0.26874 2.25066,-0.37265 2.37519,-0.3689 0.47007,0.0142 -2.1818,0.45915 -4.0958,0.68727 -0.43202,0.0515 -1.21471,0.13637 -1.7393,0.18863 l -0.95382,0.095 -9.05189,0.0363 c -4.97853,0.02 -14.72007,0.0406 -21.64785,0.0457 l -12.59596,0.009 z"
         id="path984" />
      <path
         style="display:inline;fill:#ff0066;stroke:none;stroke-width:1;stroke-linecap:round;stroke-miterlimit:4;stroke-dasharray:none;stroke-opacity:0.97992;paint-order:normal"
         d="m 394.33333,458.5275 c 0.008,-0.0137 -0.005,-0.0219 -0.0394,-0.0232 -0.0289,-10e-4 0.0653,-0.0179 0.20929,-0.0373 1.1795,-0.15897 2.04242,-0.29336 2.64637,-0.41216 0.68177,-0.1341 1.06603,-0.22803 1.06603,-0.2606 0,-0.063 -0.80283,0.0522 -2.88724,0.41425 l -1.17599,0.20425 -0.30149,-0.002 -0.30149,-0.002 0.20572,-0.0259 c 0.90604,-0.11409 2.14847,-0.30663 3.23549,-0.50138 0.30859,-0.0553 0.7336,-0.12321 0.94446,-0.15092 0.74088,-0.0974 1.50681,-0.23801 2.13951,-0.39284 0.58391,-0.14287 0.96191,-0.25908 2.55476,-0.78539 0.41659,-0.13765 0.98888,-0.32568 1.27175,-0.41785 2.92749,-0.95381 5.962,-2.27926 8.70102,-3.80053 0.16591,-0.0922 0.30432,-0.16755 0.30756,-0.16755 0.003,0 0.006,0.0821 0.006,0.18235 l -3.4e-4,0.18235 -0.43448,0.23309 c -5.37896,2.88568 -11.2392,4.80217 -17.35067,5.67423 -0.78475,0.11198 -0.81236,0.11508 -0.79638,0.0892 z"
         id="path988" />
      <path
         style="display:inline;fill:#ff0066;stroke:none;stroke-width:1;stroke-linecap:round;stroke-miterlimit:4;stroke-dasharray:none;stroke-opacity:0.97992;paint-order:normal"
         d="m 390.49155,458.88258 c 0,-0.0149 -0.15327,-0.022 -0.52834,-0.0245 -0.47155,-0.003 -0.43587,-0.005 0.33197,-0.0164 0.55516,-0.008 0.97307,-0.0236 1.17824,-0.0433 0.70011,-0.0671 1.12213,-0.10914 1.50553,-0.14996 0.28299,-0.0301 0.44642,-0.0391 0.55172,-0.0301 0.0823,0.007 0.12857,0.0142 0.10286,0.0159 -0.0257,0.002 -0.24033,0.0239 -0.47691,0.0493 -0.69826,0.0748 -1.46984,0.13929 -2.49207,0.2083 -0.12208,0.008 -0.173,0.006 -0.173,-0.009 z"
         id="path990" />
      <path
         style="display:inline;fill:#ff0066;stroke:none;stroke-width:1;stroke-linecap:round;stroke-miterlimit:4;stroke-dasharray:none;stroke-opacity:0.97992;paint-order:normal"
         d="m 412.95421,452.29802 c 0.001,-0.088 0.2995,-0.3025 0.91056,-0.65458 1.14465,-0.65953 3.56326,-2.26493 4.72507,-3.13635 2.32781,-1.74598 4.23142,-3.41417 6.29794,-5.51907 7.37961,-7.51667 11.98747,-15.95682 14.31945,-26.22874 0.65983,-2.90639 0.92754,-5.18448 1.0524,-8.95515 0.23159,-6.99396 -0.6107,-13.06059 -2.6486,-19.07664 -1.19158,-3.51767 -2.14295,-5.53041 -4.92558,-10.42063 -0.61616,-1.08285 -1.10434,-1.98476 -1.08485,-2.00425 0.0409,-0.0409 0.9526,1.40517 1.84452,2.92573 0.80764,1.37689 2.49248,4.77739 3.11347,6.28393 4.49473,10.9042 5.25222,22.35961 2.231,33.73888 -1.46043,5.50064 -3.94349,11.00716 -7.1684,15.89691 -4.18559,6.34635 -9.5948,11.66922 -15.97556,15.72055 -1.00258,0.63657 -2.57251,1.56032 -2.65177,1.56032 -0.0227,0 -0.0406,-0.0589 -0.0396,-0.13091 z"
         id="path996" />
      <path
         style="display:inline;fill:#ff0066;stroke:none;stroke-width:1;stroke-linecap:round;stroke-miterlimit:4;stroke-dasharray:none;stroke-opacity:0.97992;paint-order:normal"
         d="m 431.71271,376.65988 c -0.10328,-0.18494 -1.32781,-2.29515 -1.69194,-2.91569 -0.43769,-0.74588 -0.13845,-0.30328 0.80524,1.191 0.54243,0.85892 0.9813,1.56662 0.97525,1.57267 -0.006,0.006 -0.0508,-0.0454 -0.0994,-0.11423 -0.132,-0.18691 -0.12546,-0.0962 0.0129,0.17936 0.0671,0.13372 0.11677,0.24845 0.11026,0.25496 -0.007,0.007 -0.057,-0.0691 -0.11229,-0.16807 z"
         id="path998" />
      <path
         style="display:inline;fill:#ff0066;stroke:none;stroke-width:1;stroke-linecap:round;stroke-miterlimit:4;stroke-dasharray:none;stroke-opacity:0.97992;paint-order:normal"
         d="m 437.48577,387.9028 c -0.34034,-0.9521 -0.82478,-2.18382 -1.14105,-2.90118 -0.65999,-1.497 -1.87326,-3.94257 -2.65825,-5.3582 -0.41259,-0.74405 -1.57833,-2.65858 -1.86859,-3.06884 -0.044,-0.0623 -0.0487,-0.0734 -0.0269,-0.0651 0.008,0.003 0.014,0.002 0.014,-0.003 0,-0.004 -0.0361,-0.0677 -0.0803,-0.14073 -0.14348,-0.23715 -0.0762,-0.14865 0.10429,0.13724 0.64183,1.01645 0.83528,1.32703 1.09967,1.76543 1.11043,1.84129 2.09732,3.7126 2.99024,5.66997 0.54023,1.18424 1.09506,2.53921 1.5527,3.79192 0.0317,0.0866 0.0598,0.16344 0.0626,0.17066 0.004,0.009 -0.002,0.0131 -0.0196,0.0131 -0.0136,0 -0.0265,-0.005 -0.0288,-0.0117 z"
         id="path1000" />
      <path
         style="display:inline;fill:#ff0066;stroke:none;stroke-width:1;stroke-linecap:round;stroke-miterlimit:4;stroke-dasharray:none;stroke-opacity:0.97992;paint-order:normal"
         d="m 437.21963,387.78124 c -0.6022,-1.62056 -1.31794,-3.26742 -2.12854,-4.89765 -0.26662,-0.5362 -0.37718,-0.73183 -0.98303,-1.73931 -0.67589,-1.12395 -2.55003,-4.17588 -3.59185,-5.84913 l -0.12227,-0.19637 0.19292,-0.003 c 0.1061,-10e-4 0.19608,7.1e-4 0.19994,0.005 0.0131,0.0135 1.05328,1.81485 1.56731,2.71436 0.98472,1.72316 2.05188,3.63447 2.49027,4.46013 0.13068,0.24612 0.54471,1.0852 0.71998,1.45913 0.60825,1.29762 1.13325,2.55523 1.62396,3.89007 0.10664,0.29008 0.10658,0.28988 0.0928,0.28988 -0.007,0 -0.0331,-0.0568 -0.0615,-0.13325 z"
         id="path1002" />
      <path
         style="display:inline;fill:#ff0066;stroke:none;stroke-width:1;stroke-linecap:round;stroke-miterlimit:4;stroke-dasharray:none;stroke-opacity:0.97992;paint-order:normal"
         d="m 437.27162,387.73448 c -0.67762,-1.90503 -1.36096,-3.46493 -2.36466,-5.39793 -0.52488,-1.01086 -1.10294,-2.06444 -2.07791,-3.78721 -0.81843,-1.44615 -1.22796,-2.19772 -1.20825,-2.21742 0.0369,-0.037 1.27949,1.95319 1.93034,3.09175 0.7137,1.2485 2.05115,3.92762 2.76591,5.54054 0.28003,0.63194 0.70294,1.69487 1.03615,2.60429 0.0594,0.16201 0.11233,0.30613 0.11772,0.32028 l 0.01,0.0257 h -0.0725 -0.0725 z"
         id="path1006" />
      <path
         style="display:inline;fill:#ff0066;stroke:none;stroke-width:1;stroke-linecap:round;stroke-miterlimit:4;stroke-dasharray:none;stroke-opacity:0.97992;paint-order:normal"
         d="m 435.73044,384.07317 c -0.12967,-0.28797 -0.41327,-0.87795 -0.64359,-1.33887 -0.21595,-0.43215 -0.37915,-0.73772 -0.83447,-1.5625 -0.35696,-0.64661 -1.00264,-1.79881 -1.32215,-2.35937 l -0.039,-0.0684 0.0176,-0.001 c 0.011,-7.5e-4 0.0194,7.3e-4 0.0224,0.004 0.005,0.005 0.12527,0.21814 0.37972,0.67114 1.06171,1.89013 1.79399,3.27647 2.38107,4.50781 0.0343,0.072 0.0665,0.14009 0.0716,0.15137 l 0.009,0.0205 h -0.0157 c -0.0155,0 -0.0159,-3.3e-4 -0.0267,-0.0244 z"
         id="path1008" />
      <path
         style="display:inline;fill:#ff0066;stroke:none;stroke-width:1;stroke-linecap:round;stroke-miterlimit:4;stroke-dasharray:none;stroke-opacity:0.97992;paint-order:normal"
         d="m 439.33526,394.22968 c -0.13235,-0.59672 -0.39067,-1.62891 -0.57978,-2.31669 -0.36019,-1.30999 -0.80945,-2.73342 -1.23301,-3.90662 -0.0176,-0.0487 -0.032,-0.0891 -0.032,-0.0898 0,-7.2e-4 0.0112,-9.7e-4 0.025,-5.7e-4 l 0.0249,7.4e-4 0.0791,0.22192 c 0.50041,1.4037 0.95172,2.86896 1.33888,4.34692 0.12311,0.46997 0.43836,1.77587 0.43836,1.81588 0,0.005 -0.01,0.008 -0.0219,0.008 -0.0214,0 -0.0223,-0.002 -0.0396,-0.0801 z"
         id="path1012" />
      <path
         style="display:inline;fill:#ff0066;stroke:none;stroke-width:1;stroke-linecap:round;stroke-miterlimit:4;stroke-dasharray:none;stroke-opacity:0.97992;paint-order:normal"
         d="m 439.10873,394.08515 c -0.12208,-0.55839 -0.3391,-1.45921 -0.4776,-1.98242 -0.33449,-1.26367 -0.68259,-2.40711 -1.1214,-3.6836 -0.60855,-1.77026 -1.13885,-3.08375 -1.82891,-4.53001 -0.0711,-0.14892 -0.13102,-0.27516 -0.13324,-0.28053 -0.003,-0.007 0.0133,-0.01 0.0676,-0.01 h 0.0717 l 0.0589,0.12305 c 0.47514,0.99194 0.82143,1.79258 1.2285,2.84031 0.96156,2.47494 1.72878,4.95984 2.30958,7.4804 0.032,0.1388 0.0581,0.25569 0.0581,0.25977 0,0.004 -0.0392,0.007 -0.0921,0.007 h -0.0921 z"
         id="path1014" />
      <path
         style="display:inline;fill:#ff0066;stroke:none;stroke-width:1;stroke-linecap:round;stroke-miterlimit:4;stroke-dasharray:none;stroke-opacity:0.97992;paint-order:normal"
         d="m 439.13186,394.19062 c -0.35942,-1.68262 -0.89611,-3.62108 -1.49195,-5.38867 -0.65805,-1.95219 -1.22157,-3.36484 -1.9618,-4.91797 -0.0696,-0.1461 -0.1284,-0.27002 -0.1306,-0.27539 -0.003,-0.007 0.0136,-0.01 0.0691,-0.01 l 0.0731,2.6e-4 0.0502,0.10716 c 0.0276,0.0589 0.10573,0.22585 0.17362,0.37091 0.37859,0.80882 0.59381,1.30582 0.90919,2.09954 1.03846,2.61345 1.86404,5.25745 2.47675,7.93209 0.0234,0.10229 0.0426,0.18931 0.0426,0.19336 0,0.004 -0.0398,0.007 -0.0924,0.007 h -0.0924 z"
         id="path1016" />
      <path
         style="display:inline;fill:#ff0066;stroke:none;stroke-width:1;stroke-linecap:round;stroke-miterlimit:4;stroke-dasharray:none;stroke-opacity:0.97992;paint-order:normal"
         d="m 439.12765,394.29999 c -0.002,-0.005 -0.0317,-0.13984 -0.0667,-0.29883 -0.26411,-1.19753 -0.66367,-2.70815 -1.04015,-3.93253 -0.61816,-2.01038 -1.34079,-3.91266 -2.22868,-5.86691 -0.0241,-0.053 -0.0438,-0.0978 -0.0438,-0.0996 0,-0.002 0.005,-0.003 0.0119,-0.003 0.007,0 0.0223,0.0225 0.038,0.0566 0.0144,0.0311 0.0603,0.13047 0.10216,0.2207 0.49811,1.07481 0.96119,2.22453 1.4223,3.53125 0.67766,1.9204 1.18896,3.64983 1.61566,5.46485 0.0756,0.32166 0.20837,0.91351 0.20837,0.92899 0,0.0118 -0.0154,0.0107 -0.0191,-0.001 z"
         id="path1018" />
      <path
         style="display:inline;fill:#ff0066;stroke:none;stroke-width:1;stroke-linecap:round;stroke-miterlimit:4;stroke-dasharray:none;stroke-opacity:0.97992;paint-order:normal"
         d="m 440.585,403.9837 c -6e-4,-0.15438 -0.0509,-1.2099 -0.0775,-1.6269 -0.16791,-2.62949 -0.53803,-5.25832 -1.09847,-7.80191 -0.0276,-0.12547 -0.0503,-0.23113 -0.0503,-0.23478 0,-0.004 0.009,-0.007 0.0202,-0.007 0.0171,0 0.0264,0.0286 0.0616,0.19059 0.62525,2.87594 0.99937,5.71175 1.13874,8.63167 0.009,0.18838 0.0192,0.4494 0.0227,0.58005 0.003,0.13065 0.008,0.25122 0.0111,0.26793 0.003,0.0215 0,0.0304 -0.0116,0.0304 -0.0104,0 -0.0163,-0.011 -0.0164,-0.0304 z"
         id="path1020" />
      <path
         style="display:inline;fill:#ff0066;stroke:none;stroke-width:1;stroke-linecap:round;stroke-miterlimit:4;stroke-dasharray:none;stroke-opacity:0.97992;paint-order:normal"
         d="m 440.28242,403.96712 c -0.003,-0.0258 -0.009,-0.16379 -0.0121,-0.30659 -0.0143,-0.58495 -0.0602,-1.5048 -0.11092,-2.22076 -0.30123,-4.25406 -1.06218,-8.17089 -2.36467,-12.1717 -0.0695,-0.21364 -0.12645,-0.39161 -0.12645,-0.39549 0,-0.004 0.0334,-0.006 0.0742,-0.004 l 0.0742,0.003 0.10879,0.33146 c 0.72013,2.19402 1.2356,4.13749 1.66483,6.27695 0.49963,2.49031 0.80485,4.91148 0.93927,7.45086 0.012,0.22718 0.0442,0.98568 0.0444,1.04685 l 1.1e-4,0.0359 h -0.14295 -0.14296 z"
         id="path1026" />
      <path
         style="display:inline;fill:#ff0066;stroke:none;stroke-width:1;stroke-linecap:round;stroke-miterlimit:4;stroke-dasharray:none;stroke-opacity:0.97992;paint-order:normal"
         d="m 440.23521,402.75014 c -0.13608,-2.83088 -0.46028,-5.44775 -0.99959,-8.06836 -0.14351,-0.69736 -0.35573,-1.61349 -0.52889,-2.2832 -0.0342,-0.13213 -0.0621,-0.24199 -0.0621,-0.24414 0,-0.002 0.0378,-0.004 0.084,-0.004 h 0.084 l 0.0535,0.20117 c 0.0846,0.31829 0.28632,1.12586 0.36348,1.45508 0.66839,2.85176 1.09478,5.73263 1.27021,8.58203 0.0106,0.17187 0.0215,0.34853 0.0242,0.39258 l 0.005,0.0801 h -0.14419 -0.14418 z"
         id="path1028" />
      <path
         style="display:inline;fill:#ff0066;stroke:none;stroke-width:1;stroke-linecap:round;stroke-miterlimit:4;stroke-dasharray:none;stroke-opacity:0.97992;paint-order:normal"
         d="m 440.21183,402.84389 c -0.002,-0.01 -0.009,-0.14414 -0.0161,-0.29883 -0.0605,-1.34314 -0.2046,-2.94413 -0.39151,-4.35156 -0.16506,-1.24282 -0.39974,-2.60376 -0.6503,-3.77103 -0.0174,-0.0813 -0.0206,-0.10787 -0.0132,-0.1107 0.007,-0.003 0.0147,0.0203 0.0261,0.0757 0.0941,0.4573 0.16798,0.82636 0.21601,1.07944 0.40511,2.13453 0.67595,4.34623 0.80841,6.60157 0.0195,0.33132 0.0394,0.71523 0.0394,0.75949 0,0.0351 -0.0129,0.0461 -0.0187,0.0159 z"
         id="path1030" />
      <path
         style="display:inline;fill:#ff0066;stroke:none;stroke-width:1;stroke-linecap:round;stroke-miterlimit:4;stroke-dasharray:none;stroke-opacity:0.97992;paint-order:normal"
         d="m 412.92155,452.35374 c 0,-0.0937 -0.002,-0.17697 -0.005,-0.18507 -0.003,-0.01 0.11581,-0.0832 0.3535,-0.21793 0.70357,-0.39888 1.52863,-0.8991 2.28447,-1.38503 0.15079,-0.0969 0.2766,-0.17382 0.27959,-0.17083 0.006,0.006 -0.66443,0.44142 -1.12275,0.7279 -0.3185,0.19908 -0.56414,0.34762 -1.01094,0.61132 -0.38961,0.22995 -0.66628,0.4221 -0.72355,0.50254 -0.0179,0.0251 -0.0247,0.0496 -0.024,0.0863 10e-4,0.0608 0.0205,0.11275 0.0418,0.11275 0.0708,0 1.52217,-0.85084 2.50723,-1.4698 0.79851,-0.50176 1.71044,-1.11323 2.51844,-1.6887 3.00655,-2.14132 5.80092,-4.60924 8.30838,-7.33777 0.15372,-0.16727 0.19372,-0.20488 0.22097,-0.20774 l 0.0333,-0.004 -0.0559,0.0587 c -0.0308,0.0323 -0.11524,0.12337 -0.18773,0.20237 -0.92812,1.01144 -2.06967,2.15546 -3.09339,3.10011 -2.93447,2.70782 -6.15659,5.06933 -9.58976,7.02839 -0.34156,0.1949 -0.72116,0.40628 -0.72961,0.40628 -0.003,0 -0.005,-0.0767 -0.005,-0.17034 z"
         id="path1034" />
      <path
         style="display:inline;fill:#ff0066;stroke:none;stroke-width:1;stroke-linecap:round;stroke-miterlimit:4;stroke-dasharray:none;stroke-opacity:0.97992;paint-order:normal"
         d="m 415.76065,450.42933 c 0.002,-0.002 0.0547,-0.0364 0.11699,-0.0768 0.164,-0.10635 0.61723,-0.40812 0.8125,-0.54099 1.29947,-0.88419 2.54036,-1.80877 3.73972,-2.78647 l 0.14206,-0.11581 h 0.0256 c 0.0141,0 0.0248,6.6e-4 0.024,10e-4 -0.006,0.005 -0.13398,0.11 -0.23991,0.19618 -0.66238,0.53894 -1.55348,1.22797 -2.10938,1.63105 -0.55165,0.4 -1.26648,0.8925 -2.04882,1.41159 -0.39041,0.25904 -0.42952,0.28463 -0.43168,0.28247 -9.8e-4,-9.8e-4 0.009,-0.009 0.0224,-0.0188 0.034,-0.0239 0.0215,-0.0242 -0.018,-3.1e-4 -0.0299,0.0181 -0.0449,0.025 -0.0355,0.0165 z"
         id="path1040" />
      <path
         style="display:inline;fill:#ff0066;stroke:none;stroke-width:1;stroke-linecap:round;stroke-miterlimit:4;stroke-dasharray:none;stroke-opacity:0.97992;paint-order:normal"
         d="m 420.58986,446.89859 c 0.006,-0.006 0.15031,-0.12638 0.32004,-0.26772 1.09439,-0.91136 2.0766,-1.79793 3.183,-2.87306 0.11008,-0.10698 0.20186,-0.19278 0.20396,-0.19069 0.004,0.004 -0.35821,0.36369 -0.65674,0.6508 -0.91051,0.87568 -1.7971,1.67123 -2.736,2.45505 -0.21901,0.18284 -0.28794,0.23636 -0.30441,0.23636 -0.0184,0 -0.0197,-0.001 -0.01,-0.0107 z"
         id="path1044" />
      <circle
         style="display:inline;opacity:0.997;fill:#ff0066;stroke:none;stroke-width:0.970407;stroke-linecap:round;stroke-miterlimit:4;stroke-dasharray:none;stroke-opacity:0.97992;paint-order:normal;filter:url(#filter3931)"
         id="circle3939"
         cx="295.625"
         cy="312.875"
         r="16.395809"
         transform="matrix(1.0304956,0,0,1.0304956,-22.515261,26.20869)" />
      <circle
         style="display:inline;opacity:0.997;fill:#ff0066;stroke:none;stroke-width:1;stroke-linecap:round;stroke-miterlimit:4;stroke-dasharray:none;stroke-opacity:0.97992;paint-order:normal;filter:url(#filter5111)"
         id="circle3937"
         cx="296.96078"
         cy="338.53922"
         r="16.395809" />
      <rect
         style="display:inline;opacity:0.997;fill:none;stroke:#c8b7be;stroke-width:9.2;stroke-linecap:butt;stroke-miterlimit:10;stroke-dasharray:none;paint-order:normal"
         id="rect898"
         width="106.84954"
         height="12.576096"
         x="202.57523"
         y="43.089417"
         rx="39.712704"
         ry="5.9847212" />
      <rect
         style="display:inline;opacity:0.997;fill:none;stroke:#e3dbe2;stroke-width:2.65787;stroke-linecap:butt;stroke-miterlimit:10;stroke-dasharray:none;paint-order:normal;filter:url(#filter5629)"
         id="rect5357"
         width="106.84954"
         height="9.5760956"
         x="202.57523"
         y="43.089417"
         rx="38.991737"
         ry="4.2050319"
         inkscape:export-filename="C:\Users\dougw\Dev\douglaswhite-app\src\assets\rect5357.png"
         inkscape:export-xdpi="96"
         inkscape:export-ydpi="96"
         transform="matrix(1.0184902,0,0,1.4232285,-3.7335358,-18.263105)" />
    </g>
  </g>
</svg>
