<svg width="390" height="373" viewBox="0 0 390 373" fill="none" xmlns="http://www.w3.org/2000/svg">
<g id="douglaswhitelogo 1">
<g id="bubbles">
<g id="bottom">
<g id="path1055" opacity="0.997" filter="url(#filter0_f)">
<path d="M133.964 216.735C139.418 216.735 143.839 212.507 143.839 207.291C143.839 202.075 139.418 197.846 133.964 197.846C128.51 197.846 124.089 202.075 124.089 207.291C124.089 212.507 128.51 216.735 133.964 216.735Z" fill="#FF0066"/>
</g>
<g id="path1057" opacity="0.997" filter="url(#filter1_f)">
<path d="M220.218 255.529C227.116 255.529 232.707 250.181 232.707 243.584C232.707 236.988 227.116 231.64 220.218 231.64C213.321 231.64 207.729 236.988 207.729 243.584C207.729 250.181 213.321 255.529 220.218 255.529Z" fill="#FF0066"/>
</g>
<g id="path1059" opacity="0.997" filter="url(#filter2_f)">
<path d="M206.569 156.273C208.333 156.273 209.763 154.906 209.763 153.219C209.763 151.532 208.333 150.165 206.569 150.165C204.806 150.165 203.376 151.532 203.376 153.219C203.376 154.906 204.806 156.273 206.569 156.273Z" fill="#FF0066"/>
</g>
<g id="path1061" opacity="0.997" filter="url(#filter3_f)">
<path d="M145.779 188.291C148.451 188.291 150.618 186.219 150.618 183.663C150.618 181.106 148.451 179.034 145.779 179.034C143.106 179.034 140.939 181.106 140.939 183.663C140.939 186.219 143.106 188.291 145.779 188.291Z" fill="#FF0066"/>
</g>
<g id="circle1177" opacity="0.997" filter="url(#filter4_f)">
<path d="M159.961 172.551C162.108 172.551 163.848 170.887 163.848 168.833C163.848 166.78 162.108 165.115 159.961 165.115C157.814 165.115 156.074 166.78 156.074 168.833C156.074 170.887 157.814 172.551 159.961 172.551Z" fill="#FF0066"/>
</g>
<g id="circle1179" opacity="0.997" filter="url(#filter5_f)">
<path d="M206.045 186.575C209.769 186.575 212.789 183.688 212.789 180.125C212.789 176.563 209.769 173.676 206.045 173.676C202.32 173.676 199.301 176.563 199.301 180.125C199.301 183.688 202.32 186.575 206.045 186.575Z" fill="#C83771"/>
</g>
<g id="circle1181" opacity="0.997" filter="url(#filter6_f)">
<path d="M234.419 171.276C237.618 171.276 240.211 168.796 240.211 165.737C240.211 162.678 237.618 160.198 234.419 160.198C231.22 160.198 228.627 162.678 228.627 165.737C228.627 168.796 231.22 171.276 234.419 171.276Z" fill="#FF0066"/>
</g>
<g id="path1053" opacity="0.997" filter="url(#filter7_f)">
<path d="M224.431 225.06C230.894 225.06 236.134 220.049 236.134 213.867C236.134 207.685 230.894 202.673 224.431 202.673C217.967 202.673 212.727 207.685 212.727 213.867C212.727 220.049 217.967 225.06 224.431 225.06Z" fill="#C83771"/>
</g>
<g id="circle5351" opacity="0.997" filter="url(#filter8_f)">
<path d="M179.995 209.348C186.459 209.348 191.699 204.337 191.699 198.155C191.699 191.973 186.459 186.961 179.995 186.961C173.531 186.961 168.291 191.973 168.291 198.155C168.291 204.337 173.531 209.348 179.995 209.348Z" fill="#C83771"/>
</g>
<g id="circle4515" opacity="0.997" filter="url(#filter9_f)">
<path d="M141.775 244.865C148.239 244.865 153.479 239.853 153.479 233.671C153.479 227.489 148.239 222.478 141.775 222.478C135.311 222.478 130.071 227.489 130.071 233.671C130.071 239.853 135.311 244.865 141.775 244.865Z" fill="#C83771"/>
</g>
</g>
<g id="top_white" opacity="0.997">
<g id="path1475" opacity="0.997" filter="url(#filter10_f)">
<path d="M136.725 217.854C141.826 217.854 145.961 213.9 145.961 209.021C145.961 204.143 141.826 200.188 136.725 200.188C131.625 200.188 127.489 204.143 127.489 209.021C127.489 213.9 131.625 217.854 136.725 217.854Z" fill="#E9AFC6"/>
</g>
<g id="path1627" opacity="0.997" filter="url(#filter11_f)">
<path d="M207.568 186.682C210.829 186.682 213.472 184.154 213.472 181.036C213.472 177.918 210.829 175.39 207.568 175.39C204.308 175.39 201.665 177.918 201.665 181.036C201.665 184.154 204.308 186.682 207.568 186.682Z" fill="#E9AFC6"/>
</g>
<g id="path2243" opacity="0.997" filter="url(#filter12_f)">
<path d="M227.763 224.885C233.442 224.885 238.046 220.482 238.046 215.051C238.046 209.619 233.442 205.216 227.763 205.216C222.084 205.216 217.48 209.619 217.48 215.051C217.48 220.482 222.084 224.885 227.763 224.885Z" fill="#E9AFC6"/>
</g>
<g id="path2517" opacity="0.997" filter="url(#filter13_f)">
<path d="M146.54 189.202C149.064 189.202 151.111 187.245 151.111 184.831C151.111 182.417 149.064 180.46 146.54 180.46C144.016 180.46 141.97 182.417 141.97 184.831C141.97 187.245 144.016 189.202 146.54 189.202Z" fill="#E9AFC6"/>
</g>
<g id="path2523" opacity="0.997" filter="url(#filter14_f)">
<path d="M235.181 172.112C238.231 172.112 240.703 169.747 240.703 166.83C240.703 163.913 238.231 161.548 235.181 161.548C232.131 161.548 229.658 163.913 229.658 166.83C229.658 169.747 232.131 172.112 235.181 172.112Z" fill="#E9AFC6"/>
</g>
<g id="path2525" opacity="0.997" filter="url(#filter15_f)">
<path d="M207.22 156.513C208.859 156.513 210.188 155.242 210.188 153.674C210.188 152.107 208.859 150.836 207.22 150.836C205.58 150.836 204.252 152.107 204.252 153.674C204.252 155.242 205.58 156.513 207.22 156.513Z" fill="#E9AFC6"/>
</g>
<g id="path2527" opacity="0.997" filter="url(#filter16_f)">
<path d="M218.189 247.105C222.133 247.105 225.33 244.047 225.33 240.275C225.33 236.503 222.133 233.445 218.189 233.445C214.245 233.445 211.048 236.503 211.048 240.275C211.048 244.047 214.245 247.105 218.189 247.105Z" fill="#DE87AA"/>
</g>
<g id="circle2529" opacity="0.997" filter="url(#filter17_f)">
<path d="M160.723 173.205C162.616 173.205 164.15 171.737 164.15 169.926C164.15 168.116 162.616 166.648 160.723 166.648C158.83 166.648 157.295 168.116 157.295 169.926C157.295 171.737 158.83 173.205 160.723 173.205Z" fill="#E9AFC6"/>
</g>
<g id="circle5353" opacity="0.997" filter="url(#filter18_f)">
<path d="M184.089 210.631C189.768 210.631 194.372 206.228 194.372 200.796C194.372 195.364 189.768 190.961 184.089 190.961C178.41 190.961 173.806 195.364 173.806 200.796C173.806 206.228 178.41 210.631 184.089 210.631Z" fill="#E9AFC6"/>
</g>
<g id="circle4461" opacity="0.997" filter="url(#filter19_f)">
<path d="M142.537 233.307C145.324 233.307 147.583 231.146 147.583 228.481C147.583 225.815 145.324 223.654 142.537 223.654C139.75 223.654 137.49 225.815 137.49 228.481C137.49 231.146 139.75 233.307 142.537 233.307Z" fill="#D35F8D"/>
</g>
</g>
</g>
<g id="dark_liquid">
<path id="path912" d="M90.9179 334.052C88.0975 333.763 84.22 332.931 81.6424 332.062C69.8334 328.078 60.6663 319.057 56.6254 307.444C53.3323 297.98 53.9771 288.099 58.4625 279.292C59.3817 277.488 67.8195 264.375 77.2133 250.153L84.7196 237.374L119.426 231.068C165.103 224.365 248.16 258.526 301.019 232.672C307.65 241.792 304.933 239.197 311.564 248.317C322.565 263.447 330.736 277.55 331.317 278.647C333.973 283.658 335.34 289.28 335.36 295.267C335.396 306.112 331.091 315.826 322.893 323.395C316.426 329.366 308.684 332.905 299.807 333.946C297.249 334.246 93.8192 334.349 90.9179 334.052V334.052Z" fill="#C83771"/>
<g id="circle4517" opacity="0.997" filter="url(#filter20_f)">
<path d="M145.869 248.416C152.333 248.416 157.573 243.405 157.573 237.223C157.573 231.041 152.333 226.029 145.869 226.029C139.405 226.029 134.165 231.041 134.165 237.223C134.165 243.405 139.405 248.416 145.869 248.416Z" fill="#C83771"/>
</g>
<g id="circle4465" opacity="0.997" filter="url(#filter21_f)">
<path d="M137.205 247.506C143.668 247.506 148.908 242.494 148.908 236.312C148.908 230.13 143.668 225.119 137.205 225.119C130.741 225.119 125.501 230.13 125.501 236.312C125.501 242.494 130.741 247.506 137.205 247.506Z" fill="#C83771"/>
</g>
</g>
<g id="bright_liquid">
<g id="liquid">
<g id="liquid_2">
<path id="path934" d="M88.1201 333.675C75.9188 331.713 65.1223 324.15 59.3371 313.511C55.9928 307.361 54.6543 302.212 54.6458 295.464C54.6379 289.231 55.9174 283.962 58.726 278.662C59.8613 276.52 78.4494 247.988 79.2805 247.112C79.4151 246.97 80.956 247.069 82.7046 247.331C105.898 251.654 135.04 261.124 178.017 253.642C225.378 245.397 286.314 220.399 301.02 232.672C301.854 233.584 330.26 276.757 331.27 278.662C334.039 283.885 335.347 289.214 335.358 295.31C335.366 300.012 334.935 302.787 333.54 307.025C329.602 318.992 319.521 328.726 307.23 332.427C301.144 334.26 308.094 334.156 194.676 334.123C108.803 334.098 90.267 334.02 88.1201 333.675V333.675Z" fill="#FF0066"/>
</g>
<path id="path946" d="M59.2056 313.799C56.9325 309.751 55.3784 305.141 54.727 300.513C54.4635 298.642 54.362 296.928 54.3946 294.906C54.4188 293.408 54.4438 292.976 54.5842 291.63C55.1493 286.215 57.0476 280.745 60.0334 275.929C60.6573 274.922 69.505 261.545 69.5601 261.525C69.5907 261.513 69.6248 261.513 69.6358 261.523C69.6469 261.534 68.7278 262.971 67.5934 264.717C63.0759 271.67 59.7865 276.815 58.925 278.277C58.4286 279.119 57.7258 280.579 57.1806 281.9C55.7986 285.248 54.9586 288.862 54.6147 292.94C54.5339 293.898 54.5478 297.121 54.6371 298.139C54.9784 302.032 55.7008 305.278 56.9281 308.432C57.5863 310.124 58.6005 312.272 59.4715 313.818L59.77 314.348H59.642C59.5186 314.348 59.5029 314.328 59.2056 313.799L59.2056 313.799Z" fill="#FF0066"/>
<path id="path948" d="M94.1957 334.373C92.7709 334.351 91.1726 334.239 89.6627 334.057C83.0764 333.263 76.8827 330.953 71.5206 327.289C70.1232 326.334 68.899 325.38 67.5517 324.196C67.114 323.812 65.8736 322.629 65.4467 322.19C63.6412 320.331 62.0159 318.304 60.6481 316.207C60.2976 315.669 59.7247 314.748 59.7247 314.722C59.7247 314.717 59.7867 314.713 59.8625 314.713H60.0003L60.2088 315.055C65.5594 323.834 74.2119 330.224 84.3641 332.893C85.6217 333.224 87.5542 333.622 88.3431 333.712C88.4428 333.724 88.683 333.758 88.877 333.789C90.1291 333.987 90.7464 334.056 91.4557 334.078C92.1185 334.098 95.4457 334.128 99.1971 334.148L101.67 334.161V334.274V334.386L98.079 334.382C96.1038 334.38 94.3564 334.375 94.1957 334.373V334.373Z" fill="#FF0066"/>
<path id="path950" d="M210.631 334.3V334.216L216.36 334.212C219.511 334.209 222.987 334.205 224.085 334.203L226.081 334.198V334.291V334.384H218.356H210.631V334.3Z" fill="#FF0066"/>
<path id="path952" d="M101.672 334.269V334.161L106.341 334.174C109.819 334.184 127.028 334.219 130.91 334.224L131.308 334.224V334.301V334.378H116.49H101.672V334.269Z" fill="#FF0066"/>
<path id="path954" d="M127.417 334.383L131.312 334.381V334.303V334.225L131.221 334.223C131.171 334.221 132.619 334.22 134.439 334.219C136.259 334.218 138.024 334.22 138.362 334.222L138.976 334.226V334.307V334.388L131.25 334.386C127 334.385 125.275 334.384 127.417 334.383V334.383Z" fill="#FF0066"/>
<path id="path956" d="M138.985 334.311V334.234H147.567H156.15V334.311V334.388H147.567H138.985V334.311Z" fill="#FF0066"/>
<path id="path958" d="M226.114 334.292C226.139 334.268 240.66 334.215 258.382 334.173C276.105 334.132 292.781 334.067 295.44 334.03L300.276 333.961L301.686 333.726C303.33 333.452 303.921 333.424 302.575 333.683C301.524 333.886 299.398 334.146 297.866 334.259C296.766 334.34 226.03 334.372 226.114 334.292V334.292Z" fill="#FF0066"/>
<path id="path962" d="M227.632 334.293L227.432 334.253L227.66 334.252C227.786 334.251 228.042 334.269 228.23 334.291L228.572 334.332L228.202 334.332C227.998 334.333 227.741 334.315 227.632 334.293V334.293Z" fill="#FF0066"/>
<path id="path964" d="M243.406 334.362C252.945 334.354 268.535 334.354 278.052 334.362C287.57 334.369 279.766 334.375 260.711 334.375C241.655 334.375 233.868 334.369 243.406 334.362Z" fill="#FF0066"/>
<path id="path966" d="M227.988 334.323C227.724 334.309 227.529 334.304 227.219 334.304C227.031 334.303 226.724 334.301 226.538 334.298L226.2 334.293L226.439 334.289C226.57 334.287 226.844 334.285 227.048 334.284C227.252 334.283 227.45 334.281 227.486 334.278L227.553 334.273L227.514 334.264C227.48 334.257 227.504 334.256 227.685 334.258C227.801 334.26 227.927 334.265 227.967 334.269C228.015 334.274 228.22 334.275 228.608 334.272C229.774 334.264 235.066 334.243 238.906 334.231L240.357 334.226V334.278V334.331L238.98 334.33C237.301 334.33 230.287 334.319 229.185 334.314C228.516 334.311 228.397 334.313 228.447 334.32C228.504 334.328 228.495 334.329 228.294 334.329C228.177 334.329 228.039 334.327 227.988 334.324V334.323Z" fill="#FF0066"/>
<path id="path968" d="M226.082 334.294V334.203L228.72 334.199C230.17 334.197 233.032 334.193 235.079 334.191C237.126 334.189 239.151 334.186 239.579 334.184L240.357 334.18V334.201V334.222L239.896 334.222C239.185 334.222 233.039 334.246 230.103 334.26C228.744 334.266 228.009 334.267 227.967 334.262C227.885 334.254 227.423 334.245 227.43 334.252C227.433 334.255 227.454 334.261 227.477 334.266C227.51 334.272 227.391 334.275 226.841 334.279C226.469 334.282 226.152 334.286 226.136 334.289C226.082 334.299 226.315 334.304 227.073 334.311C227.482 334.315 227.844 334.32 227.878 334.324C227.973 334.333 228.573 334.341 228.565 334.332C228.561 334.328 228.545 334.323 228.529 334.322C228.514 334.32 228.874 334.32 229.331 334.322C230.468 334.326 237.659 334.337 239.148 334.337C240.351 334.338 240.357 334.338 240.357 334.351C240.357 334.365 240.351 334.365 239.846 334.367L239.335 334.368L239.846 334.369C240.181 334.37 240.357 334.373 240.357 334.378C240.357 334.382 237.973 334.384 233.22 334.384H226.082V334.294Z" fill="#FF0066"/>
<path id="path970" d="M184.223 334.308V334.231H197.419H210.615V334.308V334.385H197.419H184.223V334.308Z" fill="#FF0066"/>
<path id="path972" d="M156.166 334.31V334.242H170.184H184.202V334.31V334.379H170.184H156.166V334.31Z" fill="#FF0066"/>
<path id="path974" d="M276.904 334.36C272.334 334.348 273.026 334.344 283.257 334.326C289.572 334.315 295.412 334.3 296.235 334.294C297.937 334.28 297.815 334.313 295.993 334.358C294.847 334.387 287.159 334.388 276.904 334.361V334.36Z" fill="#FF0066"/>
<path id="path978" d="M299.939 334.075C300.24 334.034 300.516 334.023 300.281 334.061C300.21 334.073 300.044 334.089 299.911 334.097L299.668 334.111L299.939 334.075Z" fill="#FF0066"/>
<path id="path984" d="M264.894 334.248V334.177L269.46 334.159C271.971 334.149 277.488 334.129 281.719 334.114C290.039 334.084 295.104 334.051 298.244 334.005L300.238 333.976L301.235 333.814C302.44 333.618 302.95 333.543 303.045 333.545C303.403 333.556 301.383 333.88 299.925 334.046C299.596 334.084 299 334.146 298.6 334.184L297.873 334.253L290.978 334.279C287.186 334.294 279.766 334.309 274.489 334.313L264.894 334.319V334.248Z" fill="#FF0066"/>
<path id="path988" d="M300.371 334.044C300.377 334.034 300.367 334.028 300.341 334.028C300.319 334.027 300.391 334.015 300.501 334C301.399 333.885 302.056 333.787 302.516 333.7C303.036 333.602 303.328 333.534 303.328 333.51C303.328 333.464 302.717 333.548 301.129 333.812L300.233 333.961L300.004 333.959L299.774 333.958L299.931 333.939C300.621 333.856 301.567 333.716 302.395 333.574C302.63 333.534 302.954 333.484 303.115 333.464C303.679 333.393 304.262 333.29 304.744 333.178C305.189 333.074 305.477 332.989 306.69 332.605C307.008 332.505 307.444 332.368 307.659 332.301C309.889 331.606 312.2 330.641 314.287 329.532C314.413 329.465 314.519 329.41 314.521 329.41C314.523 329.41 314.526 329.47 314.526 329.543L314.525 329.676L314.194 329.846C310.097 331.948 305.633 333.344 300.978 333.98C300.38 334.061 300.359 334.063 300.371 334.045L300.371 334.044Z" fill="#FF0066"/>
<path id="path990" d="M297.445 334.303C297.445 334.292 297.328 334.287 297.042 334.285C296.683 334.283 296.71 334.282 297.295 334.273C297.718 334.267 298.036 334.256 298.193 334.242C298.726 334.193 299.047 334.162 299.339 334.132C299.555 334.111 299.679 334.104 299.76 334.111C299.822 334.116 299.858 334.121 299.838 334.122C299.818 334.124 299.655 334.14 299.475 334.158C298.943 334.213 298.355 334.26 297.577 334.31C297.484 334.316 297.445 334.314 297.445 334.303V334.303Z" fill="#FF0066"/>
<path id="path996" d="M314.555 329.506C314.556 329.442 314.783 329.286 315.249 329.029C316.12 328.549 317.963 327.379 318.848 326.744C320.621 325.472 322.071 324.257 323.645 322.724C329.266 317.248 332.776 311.099 334.552 303.616C335.055 301.498 335.259 299.839 335.354 297.092C335.53 291.996 334.889 287.577 333.337 283.194C332.429 280.631 331.704 279.165 329.585 275.602C329.115 274.814 328.743 274.157 328.758 274.142C328.789 274.113 329.484 275.166 330.163 276.274C330.779 277.277 332.062 279.754 332.535 280.852C335.959 288.796 336.536 297.141 334.234 305.431C333.122 309.438 331.23 313.45 328.774 317.012C325.586 321.636 321.465 325.513 316.605 328.465C315.841 328.929 314.646 329.602 314.585 329.602C314.568 329.602 314.554 329.559 314.555 329.506H314.555Z" fill="#FF0066"/>
<path id="path998" d="M328.844 274.403C328.765 274.268 327.832 272.731 327.555 272.278C327.221 271.735 327.449 272.058 328.168 273.146C328.581 273.772 328.916 274.287 328.911 274.292C328.907 274.296 328.872 274.259 328.835 274.209C328.735 274.072 328.74 274.139 328.845 274.339C328.896 274.437 328.934 274.52 328.929 274.525C328.924 274.53 328.886 274.475 328.844 274.403H328.844Z" fill="#FF0066"/>
<path id="path1000" d="M333.241 282.593C332.982 281.9 332.613 281.002 332.372 280.48C331.869 279.389 330.945 277.607 330.347 276.576C330.033 276.034 329.145 274.639 328.924 274.34C328.89 274.295 328.887 274.287 328.903 274.293C328.909 274.295 328.914 274.294 328.914 274.291C328.914 274.288 328.886 274.242 328.853 274.188C328.743 274.016 328.795 274.08 328.932 274.288C329.421 275.029 329.568 275.255 329.77 275.574C330.616 276.916 331.367 278.279 332.048 279.705C332.459 280.568 332.882 281.555 333.23 282.468C333.254 282.531 333.276 282.587 333.278 282.592C333.281 282.598 333.276 282.601 333.263 282.601C333.253 282.601 333.243 282.598 333.241 282.593V282.593Z" fill="#FF0066"/>
<path id="path1002" d="M333.038 282.505C332.58 281.324 332.035 280.124 331.417 278.937C331.214 278.546 331.13 278.404 330.668 277.67C330.153 276.851 328.726 274.627 327.932 273.408L327.839 273.265L327.986 273.263C328.067 273.262 328.135 273.264 328.138 273.267C328.148 273.277 328.941 274.589 329.332 275.244C330.082 276.5 330.895 277.892 331.229 278.494C331.329 278.673 331.644 279.284 331.778 279.557C332.241 280.502 332.641 281.418 333.015 282.39C333.096 282.602 333.096 282.602 333.085 282.602C333.08 282.602 333.06 282.56 333.038 282.505V282.505Z" fill="#FF0066"/>
<path id="path1006" d="M333.078 282.471C332.562 281.083 332.041 279.946 331.277 278.538C330.877 277.802 330.437 277.034 329.694 275.779C329.071 274.726 328.759 274.178 328.774 274.164C328.802 274.137 329.748 275.587 330.244 276.416C330.788 277.326 331.806 279.277 332.351 280.452C332.564 280.913 332.886 281.687 333.14 282.35C333.185 282.468 333.226 282.573 333.23 282.583L333.237 282.602H333.182H333.127L333.078 282.471Z" fill="#FF0066"/>
<path id="path1008" d="M331.904 279.803C331.805 279.594 331.589 279.164 331.414 278.828C331.249 278.513 331.125 278.291 330.778 277.69C330.506 277.219 330.014 276.379 329.771 275.971L329.741 275.921L329.755 275.92C329.763 275.92 329.77 275.921 329.772 275.923C329.776 275.927 329.867 276.082 330.061 276.412C330.87 277.789 331.428 278.799 331.875 279.696C331.901 279.749 331.925 279.798 331.929 279.806L331.936 279.821H331.924C331.912 279.821 331.912 279.821 331.904 279.804L331.904 279.803Z" fill="#FF0066"/>
<path id="path1012" d="M334.65 287.202C334.549 286.768 334.352 286.016 334.208 285.515C333.934 284.56 333.592 283.523 333.269 282.669C333.256 282.633 333.245 282.604 333.245 282.603C333.245 282.603 333.253 282.603 333.264 282.603L333.283 282.603L333.343 282.765C333.724 283.788 334.068 284.855 334.363 285.932C334.457 286.274 334.697 287.226 334.697 287.255C334.697 287.258 334.689 287.261 334.68 287.261C334.664 287.261 334.663 287.259 334.65 287.202L334.65 287.202Z" fill="#FF0066"/>
<path id="path1014" d="M334.477 287.097C334.384 286.69 334.219 286.034 334.114 285.653C333.859 284.732 333.594 283.899 333.259 282.969C332.796 281.68 332.392 280.723 331.866 279.669C331.812 279.561 331.766 279.469 331.765 279.465C331.763 279.46 331.775 279.458 331.816 279.458H331.871L331.916 279.547C332.278 280.27 332.541 280.853 332.852 281.616C333.584 283.419 334.168 285.23 334.611 287.066C334.635 287.167 334.655 287.252 334.655 287.255C334.655 287.258 334.625 287.26 334.585 287.26H334.515L334.477 287.097Z" fill="#FF0066"/>
<path id="path1016" d="M334.495 287.174C334.221 285.948 333.812 284.536 333.359 283.248C332.857 281.826 332.428 280.797 331.864 279.665C331.811 279.559 331.766 279.469 331.765 279.465C331.762 279.46 331.775 279.458 331.817 279.458L331.873 279.458L331.911 279.536C331.932 279.579 331.992 279.7 332.044 279.806C332.332 280.395 332.496 280.757 332.736 281.336C333.527 283.24 334.156 285.166 334.623 287.114C334.64 287.189 334.655 287.252 334.655 287.255C334.655 287.258 334.625 287.26 334.585 287.26H334.514L334.495 287.174Z" fill="#FF0066"/>
<path id="path1018" d="M334.492 287.254C334.49 287.25 334.468 287.152 334.441 287.036C334.24 286.164 333.935 285.063 333.649 284.171C333.178 282.707 332.627 281.321 331.951 279.897C331.933 279.858 331.918 279.826 331.918 279.824C331.918 279.823 331.921 279.822 331.927 279.822C331.932 279.822 331.944 279.839 331.956 279.863C331.967 279.886 332.002 279.958 332.033 280.024C332.413 280.807 332.766 281.645 333.117 282.597C333.633 283.996 334.023 285.256 334.348 286.578C334.405 286.812 334.506 287.244 334.506 287.255C334.506 287.263 334.495 287.263 334.492 287.254L334.492 287.254Z" fill="#FF0066"/>
<path id="path1020" d="M335.602 294.308C335.601 294.196 335.563 293.427 335.543 293.123C335.415 291.208 335.133 289.292 334.706 287.439C334.685 287.348 334.668 287.271 334.668 287.268C334.668 287.265 334.675 287.263 334.683 287.263C334.696 287.263 334.703 287.284 334.73 287.402C335.206 289.497 335.491 291.563 335.598 293.69C335.604 293.828 335.612 294.018 335.615 294.113C335.617 294.208 335.621 294.296 335.623 294.308C335.626 294.324 335.623 294.33 335.614 294.33C335.607 294.33 335.602 294.322 335.602 294.308L335.602 294.308Z" fill="#FF0066"/>
<path id="path1026" d="M335.371 294.296C335.369 294.278 335.365 294.177 335.362 294.073C335.351 293.647 335.316 292.977 335.278 292.455C335.048 289.356 334.469 286.503 333.476 283.588C333.424 283.432 333.38 283.303 333.38 283.3C333.38 283.297 333.406 283.295 333.437 283.297L333.493 283.299L333.576 283.54C334.125 285.139 334.517 286.555 334.844 288.113C335.225 289.928 335.457 291.691 335.56 293.541C335.569 293.707 335.593 294.259 335.593 294.304L335.594 294.33H335.485H335.376L335.371 294.296Z" fill="#FF0066"/>
<path id="path1028" d="M335.335 293.41C335.232 291.347 334.985 289.441 334.574 287.532C334.465 287.024 334.303 286.356 334.171 285.869C334.145 285.772 334.124 285.692 334.124 285.691C334.124 285.689 334.153 285.688 334.188 285.688H334.252L334.293 285.834C334.357 286.066 334.511 286.655 334.569 286.894C335.079 288.972 335.403 291.071 335.537 293.147C335.545 293.272 335.553 293.4 335.555 293.433L335.559 293.491H335.449H335.34L335.335 293.41Z" fill="#FF0066"/>
<path id="path1030" d="M335.318 293.478C335.316 293.471 335.311 293.373 335.305 293.26C335.259 292.282 335.15 291.116 335.007 290.09C334.881 289.185 334.703 288.193 334.512 287.343C334.499 287.284 334.496 287.264 334.502 287.262C334.507 287.26 334.513 287.277 334.522 287.317C334.593 287.651 334.65 287.919 334.686 288.104C334.995 289.659 335.201 291.27 335.302 292.913C335.317 293.155 335.332 293.434 335.332 293.466C335.332 293.492 335.322 293.5 335.318 293.478L335.318 293.478Z" fill="#FF0066"/>
<path id="path1034" d="M314.53 329.547C314.53 329.479 314.529 329.418 314.526 329.412C314.524 329.405 314.614 329.351 314.796 329.253C315.331 328.963 315.96 328.598 316.536 328.244C316.651 328.174 316.746 328.118 316.749 328.12C316.753 328.124 316.243 328.441 315.893 328.65C315.651 328.795 315.464 328.903 315.123 329.095C314.827 329.263 314.616 329.403 314.572 329.461C314.559 329.48 314.553 329.498 314.554 329.524C314.555 329.569 314.57 329.606 314.586 329.606C314.64 329.606 315.745 328.987 316.496 328.536C317.104 328.17 317.798 327.725 318.414 327.305C320.704 325.745 322.833 323.948 324.743 321.96C324.86 321.838 324.89 321.811 324.911 321.808L324.936 321.806L324.894 321.848C324.87 321.872 324.806 321.938 324.751 321.996C324.044 322.733 323.174 323.566 322.394 324.254C320.159 326.227 317.705 327.947 315.09 329.374C314.83 329.516 314.54 329.67 314.534 329.67C314.532 329.67 314.53 329.615 314.53 329.546L314.53 329.547Z" fill="#FF0066"/>
<path id="path1040" d="M316.693 328.145C316.694 328.143 316.734 328.118 316.782 328.089C316.907 328.011 317.252 327.792 317.401 327.695C318.391 327.051 319.336 326.377 320.249 325.665L320.358 325.58H320.377C320.388 325.58 320.396 325.581 320.395 325.581C320.391 325.585 320.293 325.661 320.213 325.724C319.708 326.117 319.029 326.619 318.606 326.912C318.186 327.204 317.641 327.562 317.045 327.941C316.748 328.129 316.718 328.148 316.716 328.146C316.716 328.146 316.723 328.14 316.733 328.133C316.759 328.115 316.75 328.115 316.72 328.132C316.697 328.146 316.686 328.151 316.693 328.145L316.693 328.145Z" fill="#FF0066"/>
<path id="path1044" d="M320.371 325.573C320.376 325.568 320.486 325.481 320.615 325.378C321.449 324.714 322.197 324.068 323.04 323.285C323.123 323.207 323.193 323.144 323.195 323.146C323.198 323.149 322.922 323.411 322.695 323.62C322.001 324.258 321.326 324.837 320.611 325.408C320.444 325.541 320.391 325.58 320.379 325.58C320.365 325.58 320.364 325.58 320.371 325.573L320.371 325.573Z" fill="#FF0066"/>
</g>
<g id="circle3939" opacity="0.997" filter="url(#filter22_f)">
<path d="M214.9 266.288C222.008 266.288 227.77 260.777 227.77 253.979C227.77 247.181 222.008 241.67 214.9 241.67C207.792 241.67 202.03 247.181 202.03 253.979C202.03 260.777 207.792 266.288 214.9 266.288Z" fill="#FF0066"/>
</g>
<g id="circle3937" opacity="0.997" filter="url(#filter23_f)">
<path d="M226.201 258.576C233.098 258.576 238.69 253.228 238.69 246.631C238.69 240.034 233.098 234.687 226.201 234.687C219.303 234.687 213.712 240.034 213.712 246.631C213.712 253.228 219.303 258.576 226.201 258.576Z" fill="#FF0066"/>
</g>
</g>
<g id="flask">
<g id="flask_2">
<path id="outerflask" d="M158.886 38.6777V105.946C158.886 114.651 156.308 123.179 151.453 130.542L57.4748 272.901C38.8085 301.174 60.0479 338.032 94.9953 338.032H295.005C329.952 338.032 351.191 301.174 332.525 272.901L238.539 130.542C233.687 123.178 231.112 114.651 231.114 105.946V38.6777" stroke="#C8B7BE" stroke-width="10" stroke-miterlimit="10"/>
<path id="innerflask" d="M159.744 38.6777V105.946C159.744 114.651 157.146 123.179 152.252 130.542L57.5333 272.901C38.7199 301.174 60.1267 338.032 95.3496 338.032H296.936C332.158 338.032 353.565 301.174 334.752 272.901L240.025 130.542C235.135 123.178 232.54 114.651 232.541 105.946V38.6777" stroke="#E3DBE2" stroke-width="3.7" stroke-miterlimit="10"/>
</g>
<g id="opening">
<path id="rect898" opacity="0.997" d="M205.445 31.3914H184.555C167.849 31.3914 154.305 33.3434 154.305 35.7513V36.1933C154.305 38.6012 167.849 40.5532 184.555 40.5532H205.445C222.151 40.5532 235.695 38.6012 235.695 36.1933V35.7513C235.695 33.3434 222.151 31.3914 205.445 31.3914Z" stroke="#C8B7BE" stroke-width="9.2" stroke-miterlimit="10"/>
<g id="rect5357" opacity="0.997" filter="url(#filter24_f)">
<path d="M206.958 31.3721H184.564C167.857 31.3721 154.314 33.3241 154.314 35.732V36.941C154.314 39.349 167.857 41.301 184.564 41.301H206.958C223.665 41.301 237.208 39.349 237.208 36.941V35.732C237.208 33.3241 223.665 31.3721 206.958 31.3721Z" stroke="#E3DBE2" stroke-width="3.2" stroke-miterlimit="10"/>
</g>
</g>
</g>
</g>
<defs>
<filter id="filter0_f" x="122.49" y="196.247" width="22.949" height="22.0881" filterUnits="userSpaceOnUse" color-interpolation-filters="sRGB">
<feFlood flood-opacity="0" result="BackgroundImageFix"/>
<feBlend mode="normal" in="SourceGraphic" in2="BackgroundImageFix" result="shape"/>
<feGaussianBlur stdDeviation="0.799822" result="effect1_foregroundBlur"/>
</filter>
<filter id="filter1_f" x="207.311" y="231.222" width="25.814" height="24.7252" filterUnits="userSpaceOnUse" color-interpolation-filters="sRGB">
<feFlood flood-opacity="0" result="BackgroundImageFix"/>
<feBlend mode="normal" in="SourceGraphic" in2="BackgroundImageFix" result="shape"/>
<feGaussianBlur stdDeviation="0.209" result="effect1_foregroundBlur"/>
</filter>
<filter id="filter2_f" x="202.119" y="148.908" width="8.90017" height="8.62175" filterUnits="userSpaceOnUse" color-interpolation-filters="sRGB">
<feFlood flood-opacity="0" result="BackgroundImageFix"/>
<feBlend mode="normal" in="SourceGraphic" in2="BackgroundImageFix" result="shape"/>
<feGaussianBlur stdDeviation="0.62824" result="effect1_foregroundBlur"/>
</filter>
<filter id="filter3_f" x="139.251" y="177.346" width="13.0559" height="12.634" filterUnits="userSpaceOnUse" color-interpolation-filters="sRGB">
<feFlood flood-opacity="0" result="BackgroundImageFix"/>
<feBlend mode="normal" in="SourceGraphic" in2="BackgroundImageFix" result="shape"/>
<feGaussianBlur stdDeviation="0.844196" result="effect1_foregroundBlur"/>
</filter>
<filter id="filter4_f" x="155.074" y="164.116" width="9.77346" height="9.43457" filterUnits="userSpaceOnUse" color-interpolation-filters="sRGB">
<feFlood flood-opacity="0" result="BackgroundImageFix"/>
<feBlend mode="normal" in="SourceGraphic" in2="BackgroundImageFix" result="shape"/>
<feGaussianBlur stdDeviation="0.499671" result="effect1_foregroundBlur"/>
</filter>
<filter id="filter5_f" x="197.567" y="171.942" width="16.955" height="16.3671" filterUnits="userSpaceOnUse" color-interpolation-filters="sRGB">
<feFlood flood-opacity="0" result="BackgroundImageFix"/>
<feBlend mode="normal" in="SourceGraphic" in2="BackgroundImageFix" result="shape"/>
<feGaussianBlur stdDeviation="0.866828" result="effect1_foregroundBlur"/>
</filter>
<filter id="filter6_f" x="226.31" y="157.881" width="16.217" height="15.7121" filterUnits="userSpaceOnUse" color-interpolation-filters="sRGB">
<feFlood flood-opacity="0" result="BackgroundImageFix"/>
<feBlend mode="normal" in="SourceGraphic" in2="BackgroundImageFix" result="shape"/>
<feGaussianBlur stdDeviation="1.1584" result="effect1_foregroundBlur"/>
</filter>
<filter id="filter7_f" x="211.376" y="201.322" width="26.1094" height="25.0891" filterUnits="userSpaceOnUse" color-interpolation-filters="sRGB">
<feFlood flood-opacity="0" result="BackgroundImageFix"/>
<feBlend mode="normal" in="SourceGraphic" in2="BackgroundImageFix" result="shape"/>
<feGaussianBlur stdDeviation="0.675509" result="effect1_foregroundBlur"/>
</filter>
<filter id="filter8_f" x="166.94" y="185.61" width="26.1094" height="25.0891" filterUnits="userSpaceOnUse" color-interpolation-filters="sRGB">
<feFlood flood-opacity="0" result="BackgroundImageFix"/>
<feBlend mode="normal" in="SourceGraphic" in2="BackgroundImageFix" result="shape"/>
<feGaussianBlur stdDeviation="0.675509" result="effect1_foregroundBlur"/>
</filter>
<filter id="filter9_f" x="129.887" y="222.294" width="23.7758" height="22.7554" filterUnits="userSpaceOnUse" color-interpolation-filters="sRGB">
<feFlood flood-opacity="0" result="BackgroundImageFix"/>
<feBlend mode="normal" in="SourceGraphic" in2="BackgroundImageFix" result="shape"/>
<feGaussianBlur stdDeviation="0.0920931" result="effect1_foregroundBlur"/>
</filter>
<filter id="filter10_f" x="118.846" y="191.544" width="35.7593" height="34.9541" filterUnits="userSpaceOnUse" color-interpolation-filters="sRGB">
<feFlood flood-opacity="0" result="BackgroundImageFix"/>
<feBlend mode="normal" in="SourceGraphic" in2="BackgroundImageFix" result="shape"/>
<feGaussianBlur stdDeviation="4.32189" result="effect1_foregroundBlur"/>
</filter>
<filter id="filter11_f" x="193.021" y="166.746" width="29.0942" height="28.5796" filterUnits="userSpaceOnUse" color-interpolation-filters="sRGB">
<feFlood flood-opacity="0" result="BackgroundImageFix"/>
<feBlend mode="normal" in="SourceGraphic" in2="BackgroundImageFix" result="shape"/>
<feGaussianBlur stdDeviation="4.32189" result="effect1_foregroundBlur"/>
</filter>
<filter id="filter12_f" x="208.836" y="196.572" width="37.854" height="36.9575" filterUnits="userSpaceOnUse" color-interpolation-filters="sRGB">
<feFlood flood-opacity="0" result="BackgroundImageFix"/>
<feBlend mode="normal" in="SourceGraphic" in2="BackgroundImageFix" result="shape"/>
<feGaussianBlur stdDeviation="4.32189" result="effect1_foregroundBlur"/>
</filter>
<filter id="filter13_f" x="133.326" y="171.816" width="26.4282" height="26.0298" filterUnits="userSpaceOnUse" color-interpolation-filters="sRGB">
<feFlood flood-opacity="0" result="BackgroundImageFix"/>
<feBlend mode="normal" in="SourceGraphic" in2="BackgroundImageFix" result="shape"/>
<feGaussianBlur stdDeviation="4.32189" result="effect1_foregroundBlur"/>
</filter>
<filter id="filter14_f" x="221.014" y="152.905" width="28.3325" height="27.851" filterUnits="userSpaceOnUse" color-interpolation-filters="sRGB">
<feFlood flood-opacity="0" result="BackgroundImageFix"/>
<feBlend mode="normal" in="SourceGraphic" in2="BackgroundImageFix" result="shape"/>
<feGaussianBlur stdDeviation="4.32189" result="effect1_foregroundBlur"/>
</filter>
<filter id="filter15_f" x="195.608" y="142.192" width="23.2236" height="22.9648" filterUnits="userSpaceOnUse" color-interpolation-filters="sRGB">
<feFlood flood-opacity="0" result="BackgroundImageFix"/>
<feBlend mode="normal" in="SourceGraphic" in2="BackgroundImageFix" result="shape"/>
<feGaussianBlur stdDeviation="4.32189" result="effect1_foregroundBlur"/>
</filter>
<filter id="filter16_f" x="208.331" y="230.728" width="19.7156" height="19.0931" filterUnits="userSpaceOnUse" color-interpolation-filters="sRGB">
<feFlood flood-opacity="0" result="BackgroundImageFix"/>
<feBlend mode="normal" in="SourceGraphic" in2="BackgroundImageFix" result="shape"/>
<feGaussianBlur stdDeviation="1.35835" result="effect1_foregroundBlur"/>
</filter>
<filter id="filter17_f" x="148.651" y="158.004" width="24.143" height="23.8442" filterUnits="userSpaceOnUse" color-interpolation-filters="sRGB">
<feFlood flood-opacity="0" result="BackgroundImageFix"/>
<feBlend mode="normal" in="SourceGraphic" in2="BackgroundImageFix" result="shape"/>
<feGaussianBlur stdDeviation="4.32189" result="effect1_foregroundBlur"/>
</filter>
<filter id="filter18_f" x="165.162" y="182.317" width="37.854" height="36.9575" filterUnits="userSpaceOnUse" color-interpolation-filters="sRGB">
<feFlood flood-opacity="0" result="BackgroundImageFix"/>
<feBlend mode="normal" in="SourceGraphic" in2="BackgroundImageFix" result="shape"/>
<feGaussianBlur stdDeviation="4.32189" result="effect1_foregroundBlur"/>
</filter>
<filter id="filter19_f" x="134.902" y="221.066" width="15.2684" height="14.8285" filterUnits="userSpaceOnUse" color-interpolation-filters="sRGB">
<feFlood flood-opacity="0" result="BackgroundImageFix"/>
<feBlend mode="normal" in="SourceGraphic" in2="BackgroundImageFix" result="shape"/>
<feGaussianBlur stdDeviation="1.29391" result="effect1_foregroundBlur"/>
</filter>
<filter id="filter20_f" x="133.301" y="225.165" width="25.1367" height="24.1163" filterUnits="userSpaceOnUse" color-interpolation-filters="sRGB">
<feFlood flood-opacity="0" result="BackgroundImageFix"/>
<feBlend mode="normal" in="SourceGraphic" in2="BackgroundImageFix" result="shape"/>
<feGaussianBlur stdDeviation="0.432326" result="effect1_foregroundBlur"/>
</filter>
<filter id="filter21_f" x="125.317" y="224.935" width="23.7757" height="22.7554" filterUnits="userSpaceOnUse" color-interpolation-filters="sRGB">
<feFlood flood-opacity="0" result="BackgroundImageFix"/>
<feBlend mode="normal" in="SourceGraphic" in2="BackgroundImageFix" result="shape"/>
<feGaussianBlur stdDeviation="0.0920931" result="effect1_foregroundBlur"/>
</filter>
<filter id="filter22_f" x="200.722" y="240.362" width="28.3565" height="27.2346" filterUnits="userSpaceOnUse" color-interpolation-filters="sRGB">
<feFlood flood-opacity="0" result="BackgroundImageFix"/>
<feBlend mode="normal" in="SourceGraphic" in2="BackgroundImageFix" result="shape"/>
<feGaussianBlur stdDeviation="0.654207" result="effect1_foregroundBlur"/>
</filter>
<filter id="filter23_f" x="212.859" y="233.833" width="26.6841" height="25.5953" filterUnits="userSpaceOnUse" color-interpolation-filters="sRGB">
<feFlood flood-opacity="0" result="BackgroundImageFix"/>
<feBlend mode="normal" in="SourceGraphic" in2="BackgroundImageFix" result="shape"/>
<feGaussianBlur stdDeviation="0.42653" result="effect1_foregroundBlur"/>
</filter>
<filter id="filter24_f" x="151.822" y="28.8804" width="87.8775" height="14.9123" filterUnits="userSpaceOnUse" color-interpolation-filters="sRGB">
<feFlood flood-opacity="0" result="BackgroundImageFix"/>
<feBlend mode="normal" in="SourceGraphic" in2="BackgroundImageFix" result="shape"/>
<feGaussianBlur stdDeviation="0.445837" result="effect1_foregroundBlur"/>
</filter>
</defs>
</svg>
