<svg width="519" height="524" viewBox="0 0 519 524" fill="none" xmlns="http://www.w3.org/2000/svg">
<g id="doug_white_app_logo">
<g id="Group 1">
<g id="logo">
<path id="dark" d="M77.2963 512.323C72.3372 511.841 65.5194 510.451 60.9872 509C40.2235 502.349 20.605 486.389 13.5 467C7.70968 451.199 8.1134 433.703 16 419C16 419 30.6097 388.902 49.5 369.179L63.5 350L70.5 340.5L104 338H116C184.5 342.5 374.058 411.166 467 368C455.341 352.773 478.659 383.227 467 368C486.342 393.26 498.968 417.987 499.99 419.819C504.659 428.185 508.465 432.327 508.5 442.323C515.401 457.079 499.592 481.892 485.178 494.53C473.807 504.5 460.193 510.408 444.586 512.146C440.089 512.647 82.3976 512.819 77.2963 512.323Z" fill="#5E220D"/>
<g id="bubbles">
<g id="23" opacity="0.997" filter="url(#filter0_f_1_7)">
<path d="M264.071 454.23C267.846 454.23 270.907 451.451 270.907 448.023C270.907 444.594 267.846 441.815 264.071 441.815C260.296 441.815 257.236 444.594 257.236 448.023C257.236 451.451 260.296 454.23 264.071 454.23Z" fill="#CE6B1E"/>
</g>
<g id="22" opacity="0.997" filter="url(#filter1_f_1_7)">
<path d="M251.763 492.631C247.988 492.631 244.928 489.852 244.928 486.423C244.928 482.995 247.988 480.216 251.763 480.216C255.538 480.216 258.598 482.995 258.598 486.423C258.598 489.852 255.538 492.631 251.763 492.631Z" fill="#CE6B1E"/>
</g>
<g id="21" opacity="0.997" filter="url(#filter2_f_1_7)">
<path d="M360.778 487.622C357.003 487.622 353.943 484.843 353.943 481.415C353.943 477.986 357.003 475.207 360.778 475.207C364.553 475.207 367.613 477.986 367.613 481.415C367.613 484.843 364.553 487.622 360.778 487.622Z" fill="#CE6B1E"/>
</g>
<g id="20" opacity="0.997" filter="url(#filter3_f_1_7)">
<path d="M102.308 504.318C106.083 504.318 109.143 501.539 109.143 498.111C109.143 494.682 106.083 491.903 102.308 491.903C98.5329 491.903 95.4727 494.682 95.4727 498.111C95.4727 501.539 98.5329 504.318 102.308 504.318Z" fill="#CE6B1E"/>
</g>
<g id="19" opacity="0.997" filter="url(#filter4_f_1_7)">
<path d="M109.341 457.569C113.116 457.569 116.176 454.79 116.176 451.362C116.176 447.933 113.116 445.154 109.341 445.154C105.566 445.154 102.506 447.933 102.506 451.362C102.506 454.79 105.566 457.569 109.341 457.569Z" fill="#CE6B1E"/>
</g>
<g id="18" opacity="0.997" filter="url(#filter5_f_1_7)">
<path d="M408.252 459.239C404.477 459.239 401.417 456.46 401.417 453.031C401.417 449.603 404.477 446.824 408.252 446.824C412.027 446.824 415.087 449.603 415.087 453.031C415.087 456.46 412.027 459.239 408.252 459.239Z" fill="#CE6B1E"/>
</g>
<g id="17" opacity="0.997" filter="url(#filter6_f_1_7)">
<path d="M234.066 293.714C241.835 293.714 248.133 287.734 248.133 280.357C248.133 272.98 241.835 267 234.066 267C226.298 267 220 272.98 220 280.357C220 287.734 226.298 293.714 234.066 293.714Z" fill="#CE6B1E"/>
</g>
<g id="16" opacity="0.997" filter="url(#filter7_f_1_7)">
<path d="M256.357 406.753C248.103 406.753 241.411 400.4 241.411 392.562C241.411 384.724 248.103 378.37 256.357 378.37C264.611 378.37 271.303 384.724 271.303 392.562C271.303 400.4 264.611 406.753 256.357 406.753Z" fill="#CE6B1E"/>
</g>
<g id="15" opacity="0.997" filter="url(#filter8_f_1_7)">
<path d="M346.909 371.692C339.141 371.692 332.843 365.712 332.843 358.335C332.843 350.958 339.141 344.978 346.909 344.978C354.678 344.978 360.976 350.958 360.976 358.335C360.976 365.712 354.678 371.692 346.909 371.692Z" fill="#CE6B1E"/>
</g>
<g id="14" opacity="0.997" filter="url(#filter9_f_1_7)">
<path d="M216.345 399.908C222.894 399.908 228.203 395.086 228.203 389.139C228.203 383.192 222.894 378.37 216.345 378.37C209.796 378.37 204.487 383.192 204.487 389.139C204.487 395.086 209.796 399.908 216.345 399.908Z" fill="#CE6B1E"/>
</g>
<g id="13" opacity="0.997" filter="url(#filter10_f_1_7)">
<path d="M398.983 325.754C394.093 321.617 386.752 321.864 382.586 326.305C378.419 330.746 379.006 337.699 383.896 341.836C388.786 345.972 396.128 345.725 400.294 341.284C404.46 336.843 403.873 329.89 398.983 325.754Z" fill="#CE6B1E"/>
</g>
<g id="11" opacity="0.997" filter="url(#filter11_f_1_7)">
<path d="M360.609 453.633C366.234 453.633 370.793 449.493 370.793 444.385C370.793 439.277 366.234 435.137 360.609 435.137C354.985 435.137 350.426 439.277 350.426 444.385C350.426 449.493 354.985 453.633 360.609 453.633Z" fill="#CE6B1E"/>
</g>
<g id="10" opacity="0.997" filter="url(#filter12_f_1_7)">
<path d="M246.32 440.276C240.696 440.276 236.137 436.136 236.137 431.028C236.137 425.92 240.696 421.78 246.32 421.78C251.944 421.78 256.504 425.92 256.504 431.028C256.504 436.136 251.944 440.276 246.32 440.276Z" fill="#CE6B1E"/>
</g>
<g id="9" opacity="0.997" filter="url(#filter13_f_1_7)">
<path d="M380.751 402.801C384.95 406.353 385.454 412.325 381.876 416.139C378.298 419.953 371.993 420.165 367.794 416.613C363.594 413.06 363.09 407.089 366.668 403.275C370.246 399.461 376.551 399.249 380.751 402.801Z" fill="#CE6B1E"/>
</g>
<g id="8" opacity="0.997" filter="url(#filter14_f_1_7)">
<path d="M81.9772 414.855C77.7776 418.407 77.2736 424.379 80.8516 428.193C84.4295 432.007 90.7344 432.219 94.934 428.666C99.1336 425.114 99.6375 419.143 96.0596 415.329C92.4817 411.515 86.1768 411.303 81.9772 414.855Z" fill="#CE6B1E"/>
</g>
<g id="7" opacity="0.997" filter="url(#filter15_f_1_7)">
<path d="M425.666 415.232C420.042 415.232 415.483 411.092 415.483 405.984C415.483 400.876 420.042 396.736 425.666 396.736C431.291 396.736 435.85 400.876 435.85 405.984C435.85 411.092 431.291 415.232 425.666 415.232Z" fill="#CE6B1E"/>
</g>
<g id="3" opacity="0.997" filter="url(#filter16_f_1_7)">
<path d="M142.282 293.212C137.708 301.061 140.409 310.792 148.315 314.945C156.22 319.099 166.337 316.104 170.911 308.254C175.485 300.405 172.784 290.675 164.878 286.521C156.972 282.367 146.856 285.363 142.282 293.212Z" fill="#CE6B1E"/>
</g>
<g id="1" opacity="0.997" filter="url(#filter17_f_1_7)">
<path d="M236.217 184.527C247.007 193.654 248.302 208.997 239.109 218.797C229.916 228.596 213.716 229.141 202.926 220.014C192.135 210.886 190.84 195.543 200.033 185.744C209.227 175.944 225.426 175.399 236.217 184.527Z" fill="#CE6B1E"/>
</g>
<g id="2" opacity="0.997" filter="url(#filter18_f_1_7)">
<path d="M341.536 284.118C350.222 277.158 362.946 277.91 369.957 285.798C376.967 293.686 375.609 305.723 366.924 312.683C358.238 319.643 345.514 318.891 338.504 311.004C331.493 303.116 332.851 291.079 341.536 284.118Z" fill="#CE6B1E"/>
</g>
</g>
<path id="bright" opacity="0.75" d="M444.152 512C449.116 511.512 455.939 510.106 460.475 508.637C481.257 501.908 497.389 486.668 504.5 467.049C510.295 451.06 510.541 433.901 502.647 419.024C501.03 415.975 484.801 394.286 468.27 370.259L453.5 347.5H407.5C221 358.5 116 431 51.5 366.5C63.1691 351.092 39.8309 381.908 51.5 366.5C30.3527 393.2 26 400 18.1473 417.024C13.4744 425.489 10.1824 431.875 10.1476 441.989C8.5 460.5 18.1473 483 33.6473 495.3C45.0278 505.388 60.9293 510.062 76.5503 511.821C81.051 512.327 439.047 512.502 444.152 512Z" fill="#00435E"/>
<g id="flask">
<g id="flask_2">
<path id="outerflask" d="M195.496 17.1976V129.509C195.495 144.043 190.963 158.281 182.426 170.574L17.1841 408.257C-15.6367 455.462 21.7084 517 83.1564 517H434.832C496.281 517 533.626 455.462 500.805 408.257L335.55 170.574C327.018 158.279 322.491 144.042 322.493 129.509V17.1976" stroke="#C8B7BE" stroke-width="10" stroke-miterlimit="10"/>
<path id="innerflask" d="M197.004 17.1976V129.509C197.003 144.043 192.435 158.281 183.831 170.574L17.287 408.257C-15.7925 455.462 21.8469 517 83.7794 517H438.228C500.16 517 537.799 455.462 504.72 408.257L338.162 170.574C329.563 158.279 325 144.042 325.003 129.509V17.1976" stroke="#E3DBE2" stroke-width="3.7" stroke-miterlimit="10"/>
</g>
<g id="opening">
<path id="rect898" opacity="0.997" d="M277.359 5.0321H240.63C211.254 5.0321 187.441 8.29121 187.441 12.3115V13.0494C187.441 17.0697 211.254 20.3288 240.63 20.3288H277.359C306.735 20.3288 330.548 17.0697 330.548 13.0494V12.3115C330.548 8.29121 306.735 5.0321 277.359 5.0321Z" stroke="#C8B7BE" stroke-width="9.2" stroke-miterlimit="10"/>
<g id="rect5357" opacity="0.997" filter="url(#filter19_f_1_7)">
<path d="M280.02 5H240.644C211.269 5 187.456 8.2591 187.456 12.2794V14.298C187.456 18.3183 211.269 21.5774 240.644 21.5774H280.02C309.396 21.5774 333.209 18.3183 333.209 14.298V12.2794C333.209 8.2591 309.396 5 280.02 5Z" stroke="#E3DBE2" stroke-width="3.2" stroke-miterlimit="10"/>
</g>
</g>
</g>
</g>
</g>
</g>
<defs>
<filter id="filter0_f_1_7" x="256.237" y="440.816" width="15.6691" height="14.4137" filterUnits="userSpaceOnUse" color-interpolation-filters="sRGB">
<feFlood flood-opacity="0" result="BackgroundImageFix"/>
<feBlend mode="normal" in="SourceGraphic" in2="BackgroundImageFix" result="shape"/>
<feGaussianBlur stdDeviation="0.499671" result="effect1_foregroundBlur_1_7"/>
</filter>
<filter id="filter1_f_1_7" x="243.929" y="479.217" width="15.6691" height="14.4137" filterUnits="userSpaceOnUse" color-interpolation-filters="sRGB">
<feFlood flood-opacity="0" result="BackgroundImageFix"/>
<feBlend mode="normal" in="SourceGraphic" in2="BackgroundImageFix" result="shape"/>
<feGaussianBlur stdDeviation="0.499671" result="effect1_foregroundBlur_1_7"/>
</filter>
<filter id="filter2_f_1_7" x="352.943" y="474.208" width="15.6691" height="14.4137" filterUnits="userSpaceOnUse" color-interpolation-filters="sRGB">
<feFlood flood-opacity="0" result="BackgroundImageFix"/>
<feBlend mode="normal" in="SourceGraphic" in2="BackgroundImageFix" result="shape"/>
<feGaussianBlur stdDeviation="0.499671" result="effect1_foregroundBlur_1_7"/>
</filter>
<filter id="filter3_f_1_7" x="94.4734" y="490.904" width="15.6691" height="14.4137" filterUnits="userSpaceOnUse" color-interpolation-filters="sRGB">
<feFlood flood-opacity="0" result="BackgroundImageFix"/>
<feBlend mode="normal" in="SourceGraphic" in2="BackgroundImageFix" result="shape"/>
<feGaussianBlur stdDeviation="0.499671" result="effect1_foregroundBlur_1_7"/>
</filter>
<filter id="filter4_f_1_7" x="101.507" y="444.155" width="15.6691" height="14.4137" filterUnits="userSpaceOnUse" color-interpolation-filters="sRGB">
<feFlood flood-opacity="0" result="BackgroundImageFix"/>
<feBlend mode="normal" in="SourceGraphic" in2="BackgroundImageFix" result="shape"/>
<feGaussianBlur stdDeviation="0.499671" result="effect1_foregroundBlur_1_7"/>
</filter>
<filter id="filter5_f_1_7" x="400.417" y="445.825" width="15.6691" height="14.4137" filterUnits="userSpaceOnUse" color-interpolation-filters="sRGB">
<feFlood flood-opacity="0" result="BackgroundImageFix"/>
<feBlend mode="normal" in="SourceGraphic" in2="BackgroundImageFix" result="shape"/>
<feGaussianBlur stdDeviation="0.499671" result="effect1_foregroundBlur_1_7"/>
</filter>
<filter id="filter6_f_1_7" x="218.266" y="265.266" width="31.6001" height="30.181" filterUnits="userSpaceOnUse" color-interpolation-filters="sRGB">
<feFlood flood-opacity="0" result="BackgroundImageFix"/>
<feBlend mode="normal" in="SourceGraphic" in2="BackgroundImageFix" result="shape"/>
<feGaussianBlur stdDeviation="0.866828" result="effect1_foregroundBlur_1_7"/>
</filter>
<filter id="filter7_f_1_7" x="239.678" y="376.637" width="33.3584" height="31.8506" filterUnits="userSpaceOnUse" color-interpolation-filters="sRGB">
<feFlood flood-opacity="0" result="BackgroundImageFix"/>
<feBlend mode="normal" in="SourceGraphic" in2="BackgroundImageFix" result="shape"/>
<feGaussianBlur stdDeviation="0.866828" result="effect1_foregroundBlur_1_7"/>
</filter>
<filter id="filter8_f_1_7" x="331.109" y="343.244" width="31.6001" height="30.181" filterUnits="userSpaceOnUse" color-interpolation-filters="sRGB">
<feFlood flood-opacity="0" result="BackgroundImageFix"/>
<feBlend mode="normal" in="SourceGraphic" in2="BackgroundImageFix" result="shape"/>
<feGaussianBlur stdDeviation="0.866828" result="effect1_foregroundBlur_1_7"/>
</filter>
<filter id="filter9_f_1_7" x="202.754" y="376.637" width="27.1827" height="25.0048" filterUnits="userSpaceOnUse" color-interpolation-filters="sRGB">
<feFlood flood-opacity="0" result="BackgroundImageFix"/>
<feBlend mode="normal" in="SourceGraphic" in2="BackgroundImageFix" result="shape"/>
<feGaussianBlur stdDeviation="0.866828" result="effect1_foregroundBlur_1_7"/>
</filter>
<filter id="filter10_f_1_7" x="378.074" y="321.072" width="26.7313" height="25.4446" filterUnits="userSpaceOnUse" color-interpolation-filters="sRGB">
<feFlood flood-opacity="0" result="BackgroundImageFix"/>
<feBlend mode="normal" in="SourceGraphic" in2="BackgroundImageFix" result="shape"/>
<feGaussianBlur stdDeviation="0.866828" result="effect1_foregroundBlur_1_7"/>
</filter>
<filter id="filter11_f_1_7" x="348.109" y="432.82" width="25.0006" height="23.1302" filterUnits="userSpaceOnUse" color-interpolation-filters="sRGB">
<feFlood flood-opacity="0" result="BackgroundImageFix"/>
<feBlend mode="normal" in="SourceGraphic" in2="BackgroundImageFix" result="shape"/>
<feGaussianBlur stdDeviation="1.1584" result="effect1_foregroundBlur_1_7"/>
</filter>
<filter id="filter12_f_1_7" x="233.82" y="419.463" width="25.0006" height="23.1302" filterUnits="userSpaceOnUse" color-interpolation-filters="sRGB">
<feFlood flood-opacity="0" result="BackgroundImageFix"/>
<feBlend mode="normal" in="SourceGraphic" in2="BackgroundImageFix" result="shape"/>
<feGaussianBlur stdDeviation="1.1584" result="effect1_foregroundBlur_1_7"/>
</filter>
<filter id="filter13_f_1_7" x="361.966" y="397.953" width="24.6131" height="23.508" filterUnits="userSpaceOnUse" color-interpolation-filters="sRGB">
<feFlood flood-opacity="0" result="BackgroundImageFix"/>
<feBlend mode="normal" in="SourceGraphic" in2="BackgroundImageFix" result="shape"/>
<feGaussianBlur stdDeviation="1.1584" result="effect1_foregroundBlur_1_7"/>
</filter>
<filter id="filter14_f_1_7" x="76.1491" y="410.007" width="24.6131" height="23.508" filterUnits="userSpaceOnUse" color-interpolation-filters="sRGB">
<feFlood flood-opacity="0" result="BackgroundImageFix"/>
<feBlend mode="normal" in="SourceGraphic" in2="BackgroundImageFix" result="shape"/>
<feGaussianBlur stdDeviation="1.1584" result="effect1_foregroundBlur_1_7"/>
</filter>
<filter id="filter15_f_1_7" x="413.166" y="394.419" width="25.0006" height="23.1302" filterUnits="userSpaceOnUse" color-interpolation-filters="sRGB">
<feFlood flood-opacity="0" result="BackgroundImageFix"/>
<feBlend mode="normal" in="SourceGraphic" in2="BackgroundImageFix" result="shape"/>
<feGaussianBlur stdDeviation="1.1584" result="effect1_foregroundBlur_1_7"/>
</filter>
<filter id="filter16_f_1_7" x="139.872" y="284.466" width="33.4493" height="32.534" filterUnits="userSpaceOnUse" color-interpolation-filters="sRGB">
<feFlood flood-opacity="0" result="BackgroundImageFix"/>
<feBlend mode="normal" in="SourceGraphic" in2="BackgroundImageFix" result="shape"/>
<feGaussianBlur stdDeviation="0.0920931" result="effect1_foregroundBlur_1_7"/>
</filter>
<filter id="filter17_f_1_7" x="193.719" y="177.838" width="51.7039" height="48.8643" filterUnits="userSpaceOnUse" color-interpolation-filters="sRGB">
<feFlood flood-opacity="0" result="BackgroundImageFix"/>
<feBlend mode="normal" in="SourceGraphic" in2="BackgroundImageFix" result="shape"/>
<feGaussianBlur stdDeviation="0.0920931" result="effect1_foregroundBlur_1_7"/>
</filter>
<filter id="filter18_f_1_7" x="333.835" y="279.169" width="40.7902" height="38.4643" filterUnits="userSpaceOnUse" color-interpolation-filters="sRGB">
<feFlood flood-opacity="0" result="BackgroundImageFix"/>
<feBlend mode="normal" in="SourceGraphic" in2="BackgroundImageFix" result="shape"/>
<feGaussianBlur stdDeviation="0.0920931" result="effect1_foregroundBlur_1_7"/>
</filter>
<filter id="filter19_f_1_7" x="184.964" y="2.50833" width="150.736" height="21.5607" filterUnits="userSpaceOnUse" color-interpolation-filters="sRGB">
<feFlood flood-opacity="0" result="BackgroundImageFix"/>
<feBlend mode="normal" in="SourceGraphic" in2="BackgroundImageFix" result="shape"/>
<feGaussianBlur stdDeviation="0.445837" result="effect1_foregroundBlur_1_7"/>
</filter>
</defs>
</svg>
