<svg xmlns="http://www.w3.org/2000/svg" width="519" height="524" fill="none"><path fill="#5E220D" d="M77.296 512.323c-4.959-.482-11.777-1.872-16.309-3.323-20.764-6.651-40.382-22.611-47.487-42-5.79-15.801-5.387-33.297 2.5-48 0 0 14.61-30.098 33.5-49.821L63.5 350l7-9.5L104 338h12c68.5 4.5 258.058 73.166 351 30-11.659-15.227 11.659 15.227 0 0 19.342 25.26 31.968 49.987 32.99 51.819 4.669 8.366 8.475 12.508 8.51 22.504 6.901 14.756-8.908 39.569-23.322 52.207-11.371 9.97-24.985 15.878-40.592 17.616-4.497.501-362.188.673-367.29.177Z"/><g filter="url(#a)" opacity=".997"><path fill="#CE6B1E" d="M264.071 454.23c3.775 0 6.836-2.779 6.836-6.207 0-3.429-3.061-6.208-6.836-6.208-3.775 0-6.835 2.779-6.835 6.208 0 3.428 3.06 6.207 6.835 6.207Z"/></g><g filter="url(#b)" opacity=".997"><path fill="#CE6B1E" d="M251.763 492.631c-3.775 0-6.835-2.779-6.835-6.208 0-3.428 3.06-6.207 6.835-6.207s6.835 2.779 6.835 6.207c0 3.429-3.06 6.208-6.835 6.208Z"/></g><g filter="url(#c)" opacity=".997"><path fill="#CE6B1E" d="M360.778 487.622c-3.775 0-6.835-2.779-6.835-6.207 0-3.429 3.06-6.208 6.835-6.208s6.835 2.779 6.835 6.208c0 3.428-3.06 6.207-6.835 6.207Z"/></g><g filter="url(#d)" opacity=".997"><path fill="#CE6B1E" d="M102.308 504.318c3.775 0 6.835-2.779 6.835-6.207 0-3.429-3.06-6.208-6.835-6.208s-6.835 2.779-6.835 6.208c0 3.428 3.06 6.207 6.835 6.207Z"/></g><g filter="url(#e)" opacity=".997"><path fill="#CE6B1E" d="M109.341 457.569c3.775 0 6.835-2.779 6.835-6.207 0-3.429-3.06-6.208-6.835-6.208s-6.835 2.779-6.835 6.208c0 3.428 3.06 6.207 6.835 6.207Z"/></g><g filter="url(#f)" opacity=".997"><path fill="#CE6B1E" d="M408.252 459.239c-3.775 0-6.835-2.779-6.835-6.208 0-3.428 3.06-6.207 6.835-6.207s6.835 2.779 6.835 6.207c0 3.429-3.06 6.208-6.835 6.208Z"/></g><g filter="url(#g)" opacity=".997"><path fill="#CE6B1E" d="M234.066 293.714c7.769 0 14.067-5.98 14.067-13.357 0-7.377-6.298-13.357-14.067-13.357-7.768 0-14.066 5.98-14.066 13.357 0 7.377 6.298 13.357 14.066 13.357Z"/></g><g filter="url(#h)" opacity=".997"><path fill="#CE6B1E" d="M256.357 406.753c-8.254 0-14.946-6.353-14.946-14.191 0-7.838 6.692-14.192 14.946-14.192s14.946 6.354 14.946 14.192-6.692 14.191-14.946 14.191Z"/></g><g filter="url(#i)" opacity=".997"><path fill="#CE6B1E" d="M346.909 371.692c-7.768 0-14.066-5.98-14.066-13.357 0-7.377 6.298-13.357 14.066-13.357 7.769 0 14.067 5.98 14.067 13.357 0 7.377-6.298 13.357-14.067 13.357Z"/></g><g filter="url(#j)" opacity=".997"><path fill="#CE6B1E" d="M216.345 399.908c6.549 0 11.858-4.822 11.858-10.769s-5.309-10.769-11.858-10.769-11.858 4.822-11.858 10.769 5.309 10.769 11.858 10.769Z"/></g><g filter="url(#k)" opacity=".997"><path fill="#CE6B1E" d="M398.983 325.754c-4.89-4.137-12.231-3.89-16.397.551-4.167 4.441-3.58 11.394 1.31 15.531 4.89 4.136 12.232 3.889 16.398-.552s3.579-11.394-1.311-15.53Z"/></g><g filter="url(#l)" opacity=".997"><path fill="#CE6B1E" d="M360.609 453.633c5.625 0 10.184-4.14 10.184-9.248s-4.559-9.248-10.184-9.248c-5.624 0-10.183 4.14-10.183 9.248s4.559 9.248 10.183 9.248Z"/></g><g filter="url(#m)" opacity=".997"><path fill="#CE6B1E" d="M246.32 440.276c-5.624 0-10.183-4.14-10.183-9.248s4.559-9.248 10.183-9.248 10.184 4.14 10.184 9.248-4.56 9.248-10.184 9.248Z"/></g><g filter="url(#n)" opacity=".997"><path fill="#CE6B1E" d="M380.751 402.801c4.199 3.552 4.703 9.524 1.125 13.338-3.578 3.814-9.883 4.026-14.082.474-4.2-3.553-4.704-9.524-1.126-13.338s9.883-4.026 14.083-.474Z"/></g><g filter="url(#o)" opacity=".997"><path fill="#CE6B1E" d="M81.977 414.855c-4.2 3.552-4.703 9.524-1.125 13.338 3.578 3.814 9.882 4.026 14.082.473 4.2-3.552 4.704-9.523 1.126-13.337s-9.883-4.026-14.083-.474Z"/></g><g filter="url(#p)" opacity=".997"><path fill="#CE6B1E" d="M425.666 415.232c-5.624 0-10.183-4.14-10.183-9.248s4.559-9.248 10.183-9.248c5.625 0 10.184 4.14 10.184 9.248s-4.559 9.248-10.184 9.248Z"/></g><g filter="url(#q)" opacity=".997"><path fill="#CE6B1E" d="M142.282 293.212c-4.574 7.849-1.873 17.58 6.033 21.733 7.905 4.154 18.022 1.159 22.596-6.691 4.574-7.849 1.873-17.579-6.033-21.733-7.906-4.154-18.022-1.158-22.596 6.691Z"/></g><g filter="url(#r)" opacity=".997"><path fill="#CE6B1E" d="M236.217 184.527c10.79 9.127 12.085 24.47 2.892 34.27-9.193 9.799-25.393 10.344-36.183 1.217-10.791-9.128-12.086-24.471-2.893-34.27 9.194-9.8 25.393-10.345 36.184-1.217Z"/></g><g filter="url(#s)" opacity=".997"><path fill="#CE6B1E" d="M341.536 284.118c8.686-6.96 21.41-6.208 28.421 1.68 7.01 7.888 5.652 19.925-3.033 26.885-8.686 6.96-21.41 6.208-28.42-1.679-7.011-7.888-5.653-19.925 3.032-26.886Z"/></g><path fill="#00435E" d="M444.152 512c4.964-.488 11.787-1.894 16.323-3.363 20.782-6.729 36.914-21.969 44.025-41.588 5.795-15.989 6.041-33.148-1.853-48.025-1.617-3.049-17.846-24.738-34.377-48.765L453.5 347.5h-46c-186.5 11-291.5 83.5-356 19 11.67-15.408-11.67 15.408 0 0C30.353 393.2 26 400 18.147 417.024c-4.673 8.465-7.965 14.851-8 24.965-1.647 18.511 8 41.011 23.5 53.311 11.38 10.088 27.282 14.762 42.903 16.521 4.501.506 362.497.681 367.602.179Z" opacity=".75"/><g stroke-miterlimit="10"><path stroke="#C8B7BE" stroke-width="10" d="M195.496 17.198v112.311c-.001 14.534-4.533 28.772-13.07 41.065L17.184 408.257C-15.636 455.462 21.708 517 83.156 517h351.676c61.449 0 98.794-61.538 65.973-108.743L335.55 170.574c-8.532-12.295-13.059-26.532-13.057-41.065V17.198"/><path stroke="#E3DBE2" stroke-width="3.7" d="M197.004 17.198v112.311c-.001 14.534-4.569 28.772-13.173 41.065L17.287 408.257C-15.793 455.462 21.847 517 83.779 517h354.449c61.932 0 99.571-61.538 66.492-108.743L338.162 170.574c-8.599-12.295-13.162-26.532-13.159-41.065V17.198"/></g><path stroke="#C8B7BE" stroke-miterlimit="10" stroke-width="9.2" d="M277.359 5.032H240.63c-29.376 0-53.189 3.26-53.189 7.28v.737c0 4.02 23.813 7.28 53.189 7.28h36.729c29.376 0 53.189-3.26 53.189-7.28v-.737c0-4.02-23.813-7.28-53.189-7.28Z" opacity=".997"/><g filter="url(#t)" opacity=".997"><path stroke="#E3DBE2" stroke-miterlimit="10" stroke-width="3.2" d="M280.02 5h-39.376c-29.375 0-53.188 3.26-53.188 7.28v2.018c0 4.02 23.813 7.28 53.188 7.28h39.376c29.376 0 53.189-3.26 53.189-7.28v-2.019C333.209 8.26 309.396 5 280.02 5Z"/></g><defs><filter id="a" width="15.669" height="14.414" x="256.237" y="440.816" color-interpolation-filters="sRGB" filterUnits="userSpaceOnUse"><feFlood flood-opacity="0" result="BackgroundImageFix"/><feBlend in="SourceGraphic" in2="BackgroundImageFix" result="shape"/><feGaussianBlur result="effect1_foregroundBlur_0_1" stdDeviation=".5"/></filter><filter id="b" width="15.669" height="14.414" x="243.929" y="479.217" color-interpolation-filters="sRGB" filterUnits="userSpaceOnUse"><feFlood flood-opacity="0" result="BackgroundImageFix"/><feBlend in="SourceGraphic" in2="BackgroundImageFix" result="shape"/><feGaussianBlur result="effect1_foregroundBlur_0_1" stdDeviation=".5"/></filter><filter id="c" width="15.669" height="14.414" x="352.943" y="474.208" color-interpolation-filters="sRGB" filterUnits="userSpaceOnUse"><feFlood flood-opacity="0" result="BackgroundImageFix"/><feBlend in="SourceGraphic" in2="BackgroundImageFix" result="shape"/><feGaussianBlur result="effect1_foregroundBlur_0_1" stdDeviation=".5"/></filter><filter id="d" width="15.669" height="14.414" x="94.473" y="490.904" color-interpolation-filters="sRGB" filterUnits="userSpaceOnUse"><feFlood flood-opacity="0" result="BackgroundImageFix"/><feBlend in="SourceGraphic" in2="BackgroundImageFix" result="shape"/><feGaussianBlur result="effect1_foregroundBlur_0_1" stdDeviation=".5"/></filter><filter id="e" width="15.669" height="14.414" x="101.507" y="444.155" color-interpolation-filters="sRGB" filterUnits="userSpaceOnUse"><feFlood flood-opacity="0" result="BackgroundImageFix"/><feBlend in="SourceGraphic" in2="BackgroundImageFix" result="shape"/><feGaussianBlur result="effect1_foregroundBlur_0_1" stdDeviation=".5"/></filter><filter id="f" width="15.669" height="14.414" x="400.417" y="445.825" color-interpolation-filters="sRGB" filterUnits="userSpaceOnUse"><feFlood flood-opacity="0" result="BackgroundImageFix"/><feBlend in="SourceGraphic" in2="BackgroundImageFix" result="shape"/><feGaussianBlur result="effect1_foregroundBlur_0_1" stdDeviation=".5"/></filter><filter id="g" width="31.6" height="30.181" x="218.266" y="265.266" color-interpolation-filters="sRGB" filterUnits="userSpaceOnUse"><feFlood flood-opacity="0" result="BackgroundImageFix"/><feBlend in="SourceGraphic" in2="BackgroundImageFix" result="shape"/><feGaussianBlur result="effect1_foregroundBlur_0_1" stdDeviation=".867"/></filter><filter id="h" width="33.358" height="31.851" x="239.678" y="376.637" color-interpolation-filters="sRGB" filterUnits="userSpaceOnUse"><feFlood flood-opacity="0" result="BackgroundImageFix"/><feBlend in="SourceGraphic" in2="BackgroundImageFix" result="shape"/><feGaussianBlur result="effect1_foregroundBlur_0_1" stdDeviation=".867"/></filter><filter id="i" width="31.6" height="30.181" x="331.109" y="343.244" color-interpolation-filters="sRGB" filterUnits="userSpaceOnUse"><feFlood flood-opacity="0" result="BackgroundImageFix"/><feBlend in="SourceGraphic" in2="BackgroundImageFix" result="shape"/><feGaussianBlur result="effect1_foregroundBlur_0_1" stdDeviation=".867"/></filter><filter id="j" width="27.183" height="25.005" x="202.754" y="376.637" color-interpolation-filters="sRGB" filterUnits="userSpaceOnUse"><feFlood flood-opacity="0" result="BackgroundImageFix"/><feBlend in="SourceGraphic" in2="BackgroundImageFix" result="shape"/><feGaussianBlur result="effect1_foregroundBlur_0_1" stdDeviation=".867"/></filter><filter id="k" width="26.731" height="25.445" x="378.074" y="321.072" color-interpolation-filters="sRGB" filterUnits="userSpaceOnUse"><feFlood flood-opacity="0" result="BackgroundImageFix"/><feBlend in="SourceGraphic" in2="BackgroundImageFix" result="shape"/><feGaussianBlur result="effect1_foregroundBlur_0_1" stdDeviation=".867"/></filter><filter id="l" width="25.001" height="23.13" x="348.109" y="432.82" color-interpolation-filters="sRGB" filterUnits="userSpaceOnUse"><feFlood flood-opacity="0" result="BackgroundImageFix"/><feBlend in="SourceGraphic" in2="BackgroundImageFix" result="shape"/><feGaussianBlur result="effect1_foregroundBlur_0_1" stdDeviation="1.158"/></filter><filter id="m" width="25.001" height="23.13" x="233.82" y="419.463" color-interpolation-filters="sRGB" filterUnits="userSpaceOnUse"><feFlood flood-opacity="0" result="BackgroundImageFix"/><feBlend in="SourceGraphic" in2="BackgroundImageFix" result="shape"/><feGaussianBlur result="effect1_foregroundBlur_0_1" stdDeviation="1.158"/></filter><filter id="n" width="24.613" height="23.508" x="361.966" y="397.953" color-interpolation-filters="sRGB" filterUnits="userSpaceOnUse"><feFlood flood-opacity="0" result="BackgroundImageFix"/><feBlend in="SourceGraphic" in2="BackgroundImageFix" result="shape"/><feGaussianBlur result="effect1_foregroundBlur_0_1" stdDeviation="1.158"/></filter><filter id="o" width="24.613" height="23.508" x="76.149" y="410.007" color-interpolation-filters="sRGB" filterUnits="userSpaceOnUse"><feFlood flood-opacity="0" result="BackgroundImageFix"/><feBlend in="SourceGraphic" in2="BackgroundImageFix" result="shape"/><feGaussianBlur result="effect1_foregroundBlur_0_1" stdDeviation="1.158"/></filter><filter id="p" width="25.001" height="23.13" x="413.166" y="394.419" color-interpolation-filters="sRGB" filterUnits="userSpaceOnUse"><feFlood flood-opacity="0" result="BackgroundImageFix"/><feBlend in="SourceGraphic" in2="BackgroundImageFix" result="shape"/><feGaussianBlur result="effect1_foregroundBlur_0_1" stdDeviation="1.158"/></filter><filter id="q" width="33.449" height="32.534" x="139.872" y="284.466" color-interpolation-filters="sRGB" filterUnits="userSpaceOnUse"><feFlood flood-opacity="0" result="BackgroundImageFix"/><feBlend in="SourceGraphic" in2="BackgroundImageFix" result="shape"/><feGaussianBlur result="effect1_foregroundBlur_0_1" stdDeviation=".092"/></filter><filter id="r" width="51.704" height="48.864" x="193.719" y="177.838" color-interpolation-filters="sRGB" filterUnits="userSpaceOnUse"><feFlood flood-opacity="0" result="BackgroundImageFix"/><feBlend in="SourceGraphic" in2="BackgroundImageFix" result="shape"/><feGaussianBlur result="effect1_foregroundBlur_0_1" stdDeviation=".092"/></filter><filter id="s" width="40.79" height="38.464" x="333.835" y="279.169" color-interpolation-filters="sRGB" filterUnits="userSpaceOnUse"><feFlood flood-opacity="0" result="BackgroundImageFix"/><feBlend in="SourceGraphic" in2="BackgroundImageFix" result="shape"/><feGaussianBlur result="effect1_foregroundBlur_0_1" stdDeviation=".092"/></filter><filter id="t" width="150.736" height="21.561" x="184.964" y="2.508" color-interpolation-filters="sRGB" filterUnits="userSpaceOnUse"><feFlood flood-opacity="0" result="BackgroundImageFix"/><feBlend in="SourceGraphic" in2="BackgroundImageFix" result="shape"/><feGaussianBlur result="effect1_foregroundBlur_0_1" stdDeviation=".446"/></filter></defs></svg>